<svg width="32" height="32" viewBox="0 0 32 32" fill="none" xmlns="http://www.w3.org/2000/svg">
<path d="M25.5995 28.6001H6.39952C6.05644 28.598 5.72802 28.4608 5.48542 28.2182C5.24283 27.9756 5.10561 27.6472 5.10352 27.3041V4.69615C5.10561 4.35307 5.24283 4.02465 5.48542 3.78205C5.72802 3.53946 6.05644 3.40224 6.39952 3.40015H21.5995C21.7466 3.40208 21.8883 3.45592 21.9995 3.55215L26.6795 7.68015C26.7438 7.73765 26.7955 7.80786 26.8313 7.88635C26.8671 7.96483 26.8862 8.04989 26.8875 8.13615V27.3361C26.8772 27.6723 26.7375 27.9914 26.4975 28.2269C26.2575 28.4625 25.9358 28.5962 25.5995 28.6001ZM6.39952 4.60015C6.37405 4.60015 6.34964 4.61026 6.33163 4.62826C6.31363 4.64627 6.30352 4.67069 6.30352 4.69615V27.3041C6.30352 27.3296 6.31363 27.354 6.33163 27.372C6.34964 27.39 6.37405 27.4001 6.39952 27.4001H25.5995C25.625 27.4001 25.6494 27.39 25.6674 27.372C25.6854 27.354 25.6955 27.3296 25.6955 27.3041V8.40815L21.3755 4.60015H6.39952Z" fill="#3C4852"/>
<path d="M17.7129 7.9998H9.14492C8.98579 7.9998 8.83318 7.93659 8.72066 7.82407C8.60814 7.71155 8.54492 7.55893 8.54492 7.3998C8.54492 7.24067 8.60814 7.08806 8.72066 6.97554C8.83318 6.86302 8.98579 6.7998 9.14492 6.7998H17.7129C17.8721 6.7998 18.0247 6.86302 18.1372 6.97554C18.2497 7.08806 18.3129 7.24067 18.3129 7.3998C18.3129 7.55893 18.2497 7.71155 18.1372 7.82407C18.0247 7.93659 17.8721 7.9998 17.7129 7.9998Z" fill="#3C4852"/>
<path d="M22.8568 14.0318H16.0008C15.8374 14.0318 15.6807 13.9669 15.5652 13.8514C15.4497 13.7359 15.3848 13.5792 15.3848 13.4158C15.3848 13.2524 15.4497 13.0958 15.5652 12.9802C15.6807 12.8647 15.8374 12.7998 16.0008 12.7998H22.8568C23.0159 12.7998 23.1685 12.863 23.281 12.9755C23.3936 13.0881 23.4568 13.2407 23.4568 13.3998C23.4568 13.5589 23.3936 13.7115 23.281 13.8241C23.1685 13.9366 23.0159 13.9998 22.8568 13.9998V14.0318Z" fill="#3C4852"/>
<path d="M22.8564 19.2H16.0004C15.8413 19.2 15.6886 19.1368 15.5761 19.0243C15.4636 18.9117 15.4004 18.7591 15.4004 18.6C15.4004 18.4409 15.4636 18.2883 15.5761 18.1757C15.6886 18.0632 15.8413 18 16.0004 18H22.8564C23.0155 18 23.1681 18.0632 23.2807 18.1757C23.3932 18.2883 23.4564 18.4409 23.4564 18.6C23.4564 18.7591 23.3932 18.9117 23.2807 19.0243C23.1681 19.1368 23.0155 19.2 22.8564 19.2Z" fill="#3C4852"/>
<path d="M22.8564 24.3118H16.0004C15.8413 24.3118 15.6886 24.2486 15.5761 24.1361C15.4636 24.0236 15.4004 23.8709 15.4004 23.7118C15.4004 23.5527 15.4636 23.4001 15.5761 23.2876C15.6886 23.175 15.8413 23.1118 16.0004 23.1118H22.8564C23.0155 23.1118 23.1681 23.175 23.2807 23.2876C23.3932 23.4001 23.4564 23.5527 23.4564 23.7118C23.4564 23.8709 23.3932 24.0236 23.2807 24.1361C23.1681 24.2486 23.0155 24.3118 22.8564 24.3118Z" fill="#3C4852"/>
<path d="M9.80746 19.9996C9.64906 19.9961 9.49773 19.9333 9.38345 19.8236L8.79946 19.2796C8.73778 19.224 8.68847 19.1562 8.65471 19.0804C8.62096 19.0046 8.60352 18.9225 8.60352 18.8395C8.60352 18.7566 8.62096 18.6745 8.65471 18.5987C8.68847 18.5229 8.73778 18.4551 8.79946 18.3996C8.91196 18.2872 9.06445 18.2241 9.22345 18.2241C9.38246 18.2241 9.53496 18.2872 9.64746 18.3996L9.79145 18.5436L11.0795 17.2555C11.192 17.1432 11.3445 17.0801 11.5035 17.0801C11.6625 17.0801 11.815 17.1432 11.9275 17.2555C11.9841 17.3107 12.029 17.3766 12.0598 17.4495C12.0905 17.5223 12.1063 17.6005 12.1063 17.6796C12.1063 17.7586 12.0905 17.8368 12.0598 17.9096C12.029 17.9825 11.9841 18.0484 11.9275 18.1035L10.2155 19.8236C10.1052 19.9297 9.96028 19.9922 9.80746 19.9996Z" fill="#08BD7F"/>
<path d="M9.80795 25.1678C9.72912 25.1682 9.651 25.1528 9.5782 25.1226C9.50539 25.0924 9.43934 25.0479 9.38395 24.9918L8.79995 24.4238C8.74334 24.3687 8.69836 24.3027 8.66764 24.2299C8.63692 24.1571 8.62109 24.0789 8.62109 23.9998C8.62109 23.9208 8.63692 23.8426 8.66764 23.7697C8.69836 23.6969 8.74334 23.631 8.79995 23.5758C8.91245 23.4635 9.06495 23.4004 9.22395 23.4004C9.38295 23.4004 9.53545 23.4635 9.64795 23.5758L9.79195 23.7198L11.0959 22.3998C11.2084 22.2875 11.3609 22.2244 11.5199 22.2244C11.6789 22.2244 11.8314 22.2875 11.9439 22.3998C12.0006 22.455 12.0455 22.5209 12.0763 22.5937C12.107 22.6666 12.1228 22.7448 12.1228 22.8238C12.1228 22.9029 12.107 22.9811 12.0763 23.0539C12.0455 23.1267 12.0006 23.1927 11.9439 23.2478L10.2319 24.9598C10.1793 25.0217 10.1145 25.0722 10.0416 25.1079C9.96864 25.1437 9.88911 25.1641 9.80795 25.1678Z" fill="#08BD7F"/>
<path d="M10.3755 13H9.51953V13.856H10.3755V13Z" fill="#3C4852"/>
<path d="M10.3991 14.2559H9.51914C9.41305 14.2559 9.31131 14.2137 9.2363 14.1387C9.16128 14.0637 9.11914 13.9619 9.11914 13.8559V12.9999C9.11914 12.8938 9.16128 12.792 9.2363 12.717C9.31131 12.642 9.41305 12.5999 9.51914 12.5999H10.3991C10.5052 12.5999 10.607 12.642 10.682 12.717C10.757 12.792 10.7991 12.8938 10.7991 12.9999V13.8559C10.7991 13.9619 10.757 14.0637 10.682 14.1387C10.607 14.2137 10.5052 14.2559 10.3991 14.2559ZM9.93514 13.4559H9.99914V13.3999H9.91914L9.93514 13.4559Z" fill="#3C4852"/>
<path d="M26.288 9.26415H21.6C21.4415 9.26207 21.2901 9.19819 21.178 9.08612C21.066 8.97404 21.0021 8.82263 21 8.66415V4.00015C21 3.84102 21.0632 3.6884 21.1757 3.57588C21.2883 3.46336 21.4409 3.40015 21.6 3.40015C21.7591 3.40015 21.9117 3.46336 22.0243 3.57588C22.1368 3.6884 22.2 3.84102 22.2 4.00015V8.06415H26.288C26.4471 8.06415 26.5997 8.12736 26.7123 8.23988C26.8248 8.3524 26.888 8.50502 26.888 8.66415C26.888 8.82328 26.8248 8.97589 26.7123 9.08841C26.5997 9.20093 26.4471 9.26415 26.288 9.26415Z" fill="#3C4852"/>
</svg>
