<!-- Generated by IcoMoon.io -->
<svg version="1.1" xmlns="http://www.w3.org/2000/svg" width="32" height="32" viewBox="0 0 32 32">
<title>add-to-calendar</title>
<path d="M26.56 4.333h-3v-1.667c0-0.552-0.448-1-1-1s-1 0.448-1 1v0 1.667h-11.333v-1.667c0-0.552-0.448-1-1-1s-1 0.448-1 1v0 1.667h-3c-0.552 0-1 0.448-1 1v0 21.333c0 0.552 0.448 1 1 1v0h21.333c0.004 0 0.009 0 0.013 0 0.545 0 0.987-0.442 0.987-0.987 0-0.005-0-0.009-0-0.014v0.001-21.333c0-0.004 0-0.009 0-0.013 0-0.545-0.442-0.987-0.987-0.987-0.005 0-0.009 0-0.014 0h0.001zM25.56 25.667h-19.333v-19.333h2v1.667c0 0.552 0.448 1 1 1s1-0.448 1-1v0-1.667h11.333v1.667c0 0.552 0.448 1 1 1s1-0.448 1-1v0-1.667h2zM21.227 15.080h-4.333v-4.333c0-0.552-0.448-1-1-1s-1 0.448-1 1v0 4.333h-4.333c-0.552 0-1 0.448-1 1s0.448 1 1 1v0h4.333v4.333c0 0.552 0.448 1 1 1s1-0.448 1-1v0-4.333h4.333c0.552 0 1-0.448 1-1s-0.448-1-1-1v0z"></path>
</svg>
