<!-- Generated by IcoMoon.io -->
<svg version="1.1" xmlns="http://www.w3.org/2000/svg" width="32" height="32" viewBox="0 0 32 32">
<title>attachment</title>
<path d="M22.667 9.227c-0.552 0-1 0.448-1 1v0 11.547c-0.13 2.916-2.525 5.231-5.462 5.231-0.072 0-0.144-0.001-0.215-0.004l0.010 0c-0.061 0.002-0.133 0.004-0.205 0.004-2.936 0-5.332-2.315-5.461-5.219l-0-0.012v-13.88c0.125-1.627 1.476-2.9 3.125-2.9 0.073 0 0.146 0.003 0.218 0.008l-0.010-0.001c0.062-0.004 0.135-0.007 0.209-0.007 1.648 0 3 1.273 3.124 2.89l0.001 0.011v14.013c-0.060 0.537-0.512 0.951-1.060 0.951-0.035 0-0.070-0.002-0.104-0.005l0.004 0c-0.030 0.003-0.065 0.005-0.101 0.005-0.551 0-1.006-0.413-1.072-0.946l-0.001-0.005v-11.813c0-0.552-0.448-1-1-1s-1 0.448-1 1v0 11.813c0.065 1.642 1.412 2.949 3.064 2.949 0.038 0 0.076-0.001 0.114-0.002l-0.005 0c0.028 0.001 0.062 0.002 0.096 0.002 1.652 0 2.999-1.306 3.064-2.942l0-0.006v-14.013c-0.122-2.731-2.366-4.898-5.115-4.898-0.077 0-0.153 0.002-0.229 0.005l0.011-0c-0.065-0.003-0.141-0.005-0.218-0.005-2.75 0-4.993 2.167-5.115 4.887l-0 0.011v13.88c0.132 4.020 3.423 7.229 7.463 7.229 0.072 0 0.143-0.001 0.214-0.003l-0.010 0c0.061 0.002 0.132 0.003 0.204 0.003 4.040 0 7.331-3.209 7.463-7.217l0-0.012v-11.547c0-0.552-0.448-1-1-1v0z"></path>
</svg>
