<!-- Generated by IcoMoon.io -->
<svg version="1.1" xmlns="http://www.w3.org/2000/svg" width="32" height="32" viewBox="0 0 32 32">
<title>check</title>
<path d="M13.107 22.44c-0.001 0-0.003 0-0.005 0-0.275 0-0.523-0.112-0.702-0.293l-5.107-5.107c-0.166-0.178-0.268-0.418-0.268-0.682 0-0.552 0.448-1 1-1 0.264 0 0.504 0.102 0.682 0.269l-0.001-0.001 4.4 4.373 10.187-10.173c0.179-0.184 0.43-0.298 0.707-0.298s0.527 0.114 0.706 0.298l0 0c0.181 0.181 0.292 0.431 0.292 0.707s-0.112 0.526-0.292 0.707v0l-10.893 10.88c-0.174 0.196-0.426 0.319-0.707 0.32h-0z"></path>
</svg>
