<!-- Generated by IcoMoon.io -->
<svg version="1.1" xmlns="http://www.w3.org/2000/svg" width="32" height="32" viewBox="0 0 32 32">
<title>copy-to-clipboard</title>
<path d="M3 6.667v10.667c0 2.025 1.642 3.667 3.667 3.667h2.333v-2h-2.333c-0.92 0-1.667-0.746-1.667-1.667v-10.667c0-0.92 0.746-1.667 1.667-1.667h10.667c0.921 0 1.667 0.746 1.667 1.667v2.333h2v-2.333c0-2.025-1.642-3.667-3.667-3.667h-10.667c-2.025 0-3.667 1.642-3.667 3.667zM19 11h6.333c2.025 0 3.667 1.642 3.667 3.667v10.667c0 2.025-1.642 3.667-3.667 3.667h-10.667c-2.025 0-3.667-1.642-3.667-3.667v-10.667c0-2.025 1.642-3.667 3.667-3.667h4.333zM21 13h-6.333c-0.921 0-1.667 0.746-1.667 1.667v10.667c0 0.921 0.746 1.667 1.667 1.667h10.667c0.921 0 1.667-0.746 1.667-1.667v-10.667c0-0.921-0.746-1.667-1.667-1.667h-4.333zM21 17.333v-2.333h-2v2.333c0 0.921-0.746 1.667-1.667 1.667h-2.333v2h2.333c2.025 0 3.667-1.642 3.667-3.667z"></path>
</svg>
