<!-- Generated by IcoMoon.io -->
<svg version="1.1" xmlns="http://www.w3.org/2000/svg" width="32" height="32" viewBox="0 0 32 32">
<title>credit-gained</title>
<path d="M24.667 16c-0.552 0-1 0.448-1 1v0 5c0 0.92-0.746 1.667-1.667 1.667v0h-12c-0.92 0-1.667-0.746-1.667-1.667v0-12c0-0.92 0.746-1.667 1.667-1.667v0h4.76c0.552 0 1-0.448 1-1s-0.448-1-1-1v0h-4.76c-2.025 0-3.667 1.642-3.667 3.667v0 12c0 2.025 1.642 3.667 3.667 3.667v0h12c2.025 0 3.667-1.642 3.667-3.667v0-5.013c-0.008-0.547-0.452-0.987-1-0.987-0 0-0 0-0 0v0zM28.667 6.333h-3v-3c0-0.552-0.448-1-1-1s-1 0.448-1 1v0 3h-3c-0.552 0-1 0.448-1 1s0.448 1 1 1v0h3v3c0 0.552 0.448 1 1 1s1-0.448 1-1v0-3h3c0.552 0 1-0.448 1-1s-0.448-1-1-1v0zM20.213 13.827c0.008-0.064 0.012-0.138 0.012-0.213s-0.004-0.149-0.013-0.222l0.001 0.009c0-0.004 0-0.010 0-0.015 0-0.123-0.093-0.225-0.213-0.238l-0.001-0h-7.493c-0 0-0 0-0 0-0.133 0-0.24 0.107-0.24 0.24 0 0.005 0 0.009 0 0.014l-0-0.001c-0.005 0.056-0.008 0.121-0.008 0.187s0.003 0.131 0.009 0.195l-0.001-0.008c0.306 1.932 1.959 3.391 3.953 3.391s3.647-1.459 3.95-3.368l0.003-0.023zM16.253 17.907c-0.001 0-0.002 0-0.004 0-0.982 0-1.799 0.708-1.968 1.641l-0.002 0.012c-0.005 0.032-0.008 0.069-0.008 0.107s0.003 0.075 0.009 0.111l-0.001-0.004c-0 0.004-0.001 0.009-0.001 0.013 0 0.066 0.054 0.12 0.12 0.12 0 0 0.001 0 0.001 0h3.733c0 0 0 0 0.001 0 0.066 0 0.12-0.054 0.12-0.12 0-0.005-0-0.009-0.001-0.014l0 0.001c0.005-0.028 0.008-0.060 0.008-0.093s-0.003-0.065-0.009-0.097l0 0.003c-0.16-0.958-0.983-1.68-1.974-1.68-0.009 0-0.018 0-0.027 0h0.001z"></path>
</svg>
