<!-- Generated by IcoMoon.io -->
<svg version="1.1" xmlns="http://www.w3.org/2000/svg" width="32" height="32" viewBox="0 0 32 32">
<title>discussion</title>
<path d="M27.053 10.867h-3.293v-4.773c-0.008-1.158-0.948-2.093-2.107-2.093 0 0-0 0-0 0h-16.547c0 0-0 0-0 0-1.159 0-2.099 0.936-2.107 2.093v16.654c0.002 0.39 0.227 0.727 0.554 0.891l0.006 0.003c0.128 0.065 0.279 0.105 0.439 0.107h0.001c0.232-0.006 0.444-0.085 0.616-0.215l-0.003 0.002 4.52-3.533h1.867v2.867c0 1.075 0.872 1.947 1.947 1.947h10.667l3.813 2.947c0.156 0.131 0.353 0.218 0.569 0.24l0.004 0c0.008 0 0.018 0 0.027 0 0.538 0 0.973-0.436 0.973-0.973 0-0.009-0-0.019-0-0.028l0 0.001v-14.173c0 0 0-0 0-0 0-1.078-0.87-1.952-1.946-1.96h-0.001zM8.107 8.32h10.667c0.552 0 1 0.448 1 1s-0.448 1-1 1v0h-10.667c-0.552 0-1-0.448-1-1s0.448-1 1-1v0zM8.107 15.653c-0.552 0-1-0.448-1-1s0.448-1 1-1v0h10.667c0.552 0 1 0.448 1 1s-0.448 1-1 1v0zM27 24.987l-2.48-1.907c-0.168-0.131-0.381-0.211-0.613-0.213h-10.907v-2.867h8.653c1.163 0 2.107-0.943 2.107-2.107v-5.053h3.24z"></path>
</svg>
