<!-- Generated by IcoMoon.io -->
<svg version="1.1" xmlns="http://www.w3.org/2000/svg" width="32" height="32" viewBox="0 0 32 32">
<title>download</title>
<path d="M16 3c-7.18 0-13 5.82-13 13s5.82 13 13 13c7.18 0 13-5.82 13-13v0c-0.008-7.177-5.823-12.992-12.999-13h-0.001zM16 27c-6.075 0-11-4.925-11-11s4.925-11 11-11c6.075 0 11 4.925 11 11v0c-0.008 6.072-4.928 10.992-10.999 11h-0.001zM18.32 16.68l-1.333 1.333v-6.427c0-0.552-0.448-1-1-1s-1 0.448-1 1v0 6.413l-1.333-1.333c-0.181-0.181-0.431-0.292-0.707-0.292s-0.526 0.112-0.707 0.292v0c-0.184 0.179-0.298 0.43-0.298 0.707s0.114 0.527 0.298 0.706l0 0 3.027 3.027c0.181 0.181 0.431 0.292 0.707 0.292s0.526-0.112 0.707-0.292v0l3.027-3.027c0.184-0.179 0.298-0.43 0.298-0.707s-0.114-0.527-0.298-0.706l-0-0c-0.179-0.169-0.42-0.273-0.686-0.273-0.273 0-0.52 0.109-0.7 0.286l0-0z"></path>
</svg>
