<!-- Generated by IcoMoon.io -->
<svg version="1.1" xmlns="http://www.w3.org/2000/svg" width="32" height="32" viewBox="0 0 32 32">
<title>erase</title>
<path d="M28.667 26.187h-14.547l1.88-1.893 13.333-13.333c0.178-0.184 0.288-0.436 0.288-0.713s-0.11-0.529-0.289-0.714l0 0-5.333-5.427c-0.181-0.181-0.431-0.292-0.707-0.292s-0.526 0.112-0.707 0.292l-19.92 19.893c-0.181 0.181-0.292 0.431-0.292 0.707s0.112 0.526 0.292 0.707v0l2.4 2.48c0.088 0.091 0.195 0.164 0.314 0.211l0.006 0.002c0.113 0.051 0.245 0.080 0.384 0.080 0.001 0 0.002 0 0.003 0h22.893c0.552 0 1-0.448 1-1s-0.448-1-1-1v0zM23.267 6.187l4 4-12 12-4-4zM6.187 26.187l-1.44-1.44 5.16-5.16 4 4-2.6 2.667z"></path>
</svg>
