<!-- Generated by IcoMoon.io -->
<svg version="1.1" xmlns="http://www.w3.org/2000/svg" width="32" height="32" viewBox="0 0 32 32">
<title>exit-full-screen</title>
<path d="M12.307 18.24h-5.64c-0.552 0-1 0.448-1 1s0.448 1 1 1v0h4.64v5.093c0 0.56 0.454 1.013 1.013 1.013s1.013-0.454 1.013-1.013v0-6.093c-0.007-0.554-0.458-1-1.013-1-0.005 0-0.009 0-0.014 0h0.001zM25.333 18.24h-5.64c-0.549 0.007-0.993 0.451-1 0.999v6.094c0 0.552 0.448 1 1 1s1-0.448 1-1v0-5.093h4.64c0.552 0 1-0.448 1-1s-0.448-1-1-1v0zM19.693 12.853h5.64c0.552 0 1-0.448 1-1s-0.448-1-1-1v0h-4.64v-4.187c0-0.56-0.454-1.013-1.013-1.013s-1.013 0.454-1.013 1.013v0 5.187c0.007 0.554 0.458 1 1.013 1 0.005 0 0.009-0 0.014-0h-0.001zM12.307 5.667c-0.552 0-1 0.448-1 1v0 4.187h-4.64c-0.552 0-1 0.448-1 1s0.448 1 1 1v0h5.64c0.004 0 0.009 0 0.013 0 0.555 0 1.006-0.446 1.013-0.999v-5.187c-0.007-0.554-0.458-1-1.013-1-0.005 0-0.009 0-0.014 0h0.001z"></path>
</svg>
