<!-- Generated by IcoMoon.io -->
<svg version="1.1" xmlns="http://www.w3.org/2000/svg" width="32" height="32" viewBox="0 0 32 32">
<title>explore</title>
<path d="M17.28 15.987c0 0.736-0.597 1.333-1.333 1.333s-1.333-0.597-1.333-1.333c0-0.736 0.597-1.333 1.333-1.333s1.333 0.597 1.333 1.333zM16 2.987c-0.016-0-0.035-0-0.053-0-7.18 0-13 5.82-13 13s5.82 13 13 13c7.175 0 12.992-5.813 13-12.986v-0.001c0-0 0-0 0-0 0-7.164-5.788-12.975-12.943-13.013h-0.004zM16 5.76c0.736 0 1.333 0.597 1.333 1.333s-0.597 1.333-1.333 1.333c-0.736 0-1.333-0.597-1.333-1.333v0c0-0.736 0.597-1.333 1.333-1.333v0zM7.053 17.333c-0.736 0-1.333-0.597-1.333-1.333s0.597-1.333 1.333-1.333c0.736 0 1.333 0.597 1.333 1.333v0c0 0.736-0.597 1.333-1.333 1.333v0zM16 26.2c-0.736 0-1.333-0.597-1.333-1.333s0.597-1.333 1.333-1.333c0.736 0 1.333 0.597 1.333 1.333v0c0 0.736-0.597 1.333-1.333 1.333v0zM18.84 19.307l-9.133 4.253c-0.126 0.054-0.271 0.088-0.424 0.093l-0.002 0c-0.276-0-0.526-0.112-0.707-0.293v0c-0.179-0.185-0.289-0.437-0.289-0.714 0-0.152 0.033-0.296 0.092-0.425l-0.003 0.006 4.24-9.093c0.1-0.213 0.267-0.38 0.474-0.477l0.006-0.003 9.093-4.24c0.126-0.062 0.274-0.098 0.431-0.098 0.552 0 1 0.448 1 1 0 0.157-0.036 0.305-0.1 0.437l0.003-0.006-4.24 9.093c-0.108 0.208-0.279 0.37-0.487 0.464l-0.006 0.003zM24.84 17.333c-0.736 0-1.333-0.597-1.333-1.333s0.597-1.333 1.333-1.333c0.736 0 1.333 0.597 1.333 1.333v0c0 0.736-0.597 1.333-1.333 1.333v0z"></path>
</svg>
