<!-- Generated by IcoMoon.io -->
<svg version="1.1" xmlns="http://www.w3.org/2000/svg" width="32" height="32" viewBox="0 0 32 32">
<title>failed-2</title>
<path d="M16 3c-7.18 0-13 5.82-13 13s5.82 13 13 13c7.18 0 13-5.82 13-13v0c-0.008-7.177-5.823-12.992-12.999-13h-0.001zM22.507 20.16c0.302 0.3 0.489 0.715 0.489 1.173s-0.187 0.874-0.488 1.173l-0 0c-0.298 0.305-0.714 0.494-1.173 0.494s-0.875-0.189-1.173-0.494l-0-0-4.16-4.147-4.16 4.147c-0.298 0.305-0.714 0.494-1.173 0.494s-0.875-0.189-1.173-0.494l-0-0c-0.302-0.3-0.489-0.715-0.489-1.173s0.187-0.874 0.488-1.173l0-0 4.147-4.16-4.147-4.16c-0.3-0.3-0.486-0.715-0.486-1.173 0-0.916 0.743-1.659 1.659-1.659 0.458 0 0.873 0.186 1.173 0.486v0l4.16 4.147 4.16-4.147c0.3-0.3 0.715-0.486 1.173-0.486 0.916 0 1.659 0.743 1.659 1.659 0 0.458-0.186 0.873-0.486 1.173v0l-4.147 4.16z"></path>
</svg>
