<!-- Generated by IcoMoon.io -->
<svg version="1.1" xmlns="http://www.w3.org/2000/svg" width="32" height="32" viewBox="0 0 32 32">
<title>help</title>
<path d="M16 3c-7.18 0-13 5.82-13 13s5.82 13 13 13c7.18 0 13-5.82 13-13v0c-0.008-7.177-5.823-12.992-12.999-13h-0.001zM16.96 21.213c-0.281 0.224-0.641 0.359-1.033 0.359s-0.752-0.135-1.037-0.362l0.003 0.003c-0.241-0.253-0.389-0.596-0.389-0.973s0.148-0.72 0.389-0.974l-0.001 0.001c0.281-0.224 0.641-0.359 1.033-0.359s0.752 0.135 1.037 0.362l-0.003-0.003c0.232 0.257 0.374 0.598 0.374 0.973s-0.142 0.717-0.375 0.975l0.001-0.001zM18.213 15.64c-0.415 0.214-0.768 0.486-1.064 0.81l-0.003 0.003c-0.168 0.242-0.268 0.542-0.268 0.866 0 0.019 0 0.038 0.001 0.057l-0-0.003v0.427h-2.067v-0.44c-0.012-0.096-0.019-0.206-0.019-0.319 0-0.438 0.106-0.851 0.293-1.216l-0.007 0.015c0.288-0.448 0.674-0.809 1.13-1.059l0.016-0.008c0.402-0.206 0.742-0.475 1.023-0.796l0.003-0.004c0.175-0.231 0.281-0.524 0.281-0.841 0-0.018-0-0.037-0.001-0.055l0 0.003c0-0.012 0.001-0.027 0.001-0.041 0-0.342-0.155-0.648-0.399-0.851l-0.002-0.001c-0.274-0.227-0.629-0.364-1.016-0.364-0.041 0-0.082 0.002-0.122 0.005l0.005-0c-0.021-0.001-0.046-0.002-0.070-0.002-0.389 0-0.744 0.147-1.011 0.389l0.001-0.001c-0.276 0.262-0.449 0.63-0.453 1.039v0.001h-2.093c-0.002-0.036-0.002-0.079-0.002-0.122 0-0.889 0.369-1.692 0.961-2.264l0.001-0.001c0.686-0.569 1.575-0.914 2.545-0.914 0.085 0 0.169 0.003 0.253 0.008l-0.011-0.001c0.050-0.002 0.11-0.003 0.169-0.003 0.944 0 1.813 0.317 2.508 0.851l-0.010-0.007c0.621 0.493 1.015 1.247 1.015 2.094 0 0.037-0.001 0.074-0.002 0.111l0-0.005c0 0.003 0 0.006 0 0.010 0 1.135-0.636 2.121-1.571 2.622l-0.016 0.008z"></path>
</svg>
