<!-- Generated by IcoMoon.io -->
<svg version="1.1" xmlns="http://www.w3.org/2000/svg" width="32" height="32" viewBox="0 0 32 32">
<title>language-filled</title>
<path d="M10.667 10.907c0.945-3.004 2.564-5.566 4.688-7.608l0.006-0.006c0.165-0.167 0.388-0.276 0.637-0.293l0.003-0c-0.006 0-0.014-0-0.022-0-5.344 0-9.937 3.218-11.946 7.823l-0.033 0.084zM20.147 16c-0.008-1.099-0.119-2.167-0.325-3.201l0.018 0.107h-7.68c-0.188 0.927-0.299 1.995-0.307 3.087l-0 0.006c0 0.001 0 0.002 0 0.003 0 1.232 0.136 2.432 0.394 3.586l-0.020-0.109h7.547c0.237-1.045 0.373-2.245 0.373-3.477 0-0.001 0-0.002 0-0.004v0zM21.4 10.907h6.6c-2.041-4.688-6.634-7.907-11.978-7.907-0.008 0-0.015 0-0.023 0h0.001c0.001 0 0.003 0 0.005 0 0.275 0 0.523 0.112 0.702 0.293l0 0c2.129 2.047 3.749 4.609 4.659 7.487l0.035 0.126zM19.213 21.48h-6.427c0.767 1.967 1.856 3.652 3.218 5.072l-0.005-0.005c1.357-1.415 2.446-3.099 3.178-4.963l0.036-0.103zM28.52 19.48c0.305-1.037 0.48-2.229 0.48-3.461 0-1.105-0.141-2.178-0.406-3.201l0.019 0.088h-6.747c0.171 0.926 0.273 1.995 0.28 3.087l0 0.006c-0.005 1.235-0.136 2.436-0.38 3.595l0.020-0.115zM10.667 21.48h-6.44c2.118 4.471 6.59 7.51 11.772 7.52h0.001c-0.001 0-0.003 0-0.005 0-0.275 0-0.523-0.112-0.702-0.293l-0-0c-2.048-1.957-3.633-4.38-4.588-7.1l-0.039-0.127zM21.333 21.48c-0.982 2.844-2.554 5.267-4.581 7.221l-0.006 0.005c-0.179 0.181-0.427 0.293-0.702 0.293-0.002 0-0.003 0-0.005 0h0c5.184-0.010 9.655-3.049 11.74-7.441l0.034-0.079zM9.853 16c0.007-1.098 0.109-2.167 0.297-3.206l-0.017 0.113h-6.747c-0.246 0.934-0.387 2.007-0.387 3.112 0 1.232 0.175 2.424 0.502 3.551l-0.022-0.090h6.733c-0.224-1.044-0.355-2.245-0.36-3.476v-0.004zM12.68 10.907h6.667c-0.755-2.124-1.896-3.943-3.352-5.458l0.005 0.005c-1.44 1.512-2.573 3.331-3.287 5.348l-0.033 0.105z"></path>
</svg>
