<!-- Generated by IcoMoon.io -->
<svg version="1.1" xmlns="http://www.w3.org/2000/svg" width="32" height="32" viewBox="0 0 32 32">
<title>list</title>
<path d="M6.667 10.333h18.667c0.552 0 1-0.448 1-1s-0.448-1-1-1v0h-18.667c-0.552 0-1 0.448-1 1s0.448 1 1 1v0zM14 21.667h-7.333c-0.552 0-1 0.448-1 1s0.448 1 1 1v0h7.333c0.552 0 1-0.448 1-1s-0.448-1-1-1v0zM14 15h-7.333c-0.552 0-1 0.448-1 1s0.448 1 1 1v0h7.333c0.552 0 1-0.448 1-1s-0.448-1-1-1v0zM25.653 18.16l-5.133-2.973c-0.191-0.112-0.421-0.179-0.667-0.179s-0.475 0.066-0.673 0.182l0.006-0.003c-0.401 0.235-0.667 0.664-0.667 1.155 0 0.007 0 0.013 0 0.020v-0.001 5.933c-0 0.003-0 0.007-0 0.011 0 0.496 0.271 0.929 0.674 1.159l0.007 0.003c0.189 0.109 0.416 0.173 0.657 0.173 0.003 0 0.006 0 0.010-0h-0c0.007 0 0.014 0 0.022 0 0.242 0 0.469-0.064 0.664-0.177l-0.006 0.003 5.133-2.973c0.413-0.232 0.688-0.667 0.688-1.167s-0.275-0.935-0.681-1.163l-0.007-0.003z"></path>
</svg>
