<!-- Generated by IcoMoon.io -->
<svg version="1.1" xmlns="http://www.w3.org/2000/svg" width="32" height="32" viewBox="0 0 32 32">
<title>mic-off-outline</title>
<path d="M15.907 7.667c0.92 0 1.667 0.746 1.667 1.667v0 2.733l2 2v-4.733c0-0.003 0-0.007 0-0.011 0-2.025-1.642-3.667-3.667-3.667-1.286 0-2.417 0.662-3.071 1.663l-0.009 0.014 1.507 1.507c0.212-0.682 0.835-1.169 1.573-1.173h0zM26.12 24.627l-18.667-18.667c-0.184-0.178-0.436-0.288-0.713-0.288s-0.529 0.11-0.714 0.289l0-0c-0.181 0.181-0.292 0.431-0.292 0.707s0.112 0.526 0.292 0.707v0l6.213 6.2v3.76c0 2.025 1.642 3.667 3.667 3.667v0c0.011 0 0.025 0 0.039 0 1.035 0 1.968-0.435 2.626-1.132l0.002-0.002 1.427 1.467c-0.999 1.019-2.383 1.657-3.916 1.68l-0.004 0h-0.16c-3.093-0.038-5.587-2.554-5.587-5.653 0-0.009 0-0.019 0-0.029v0.001c0-0.552-0.448-1-1-1s-1 0.448-1 1v0c0.008 3.875 2.89 7.076 6.627 7.582l0.040 0.004v1.747c0 0.552 0.448 1 1 1s1-0.448 1-1v0-1.72c1.721-0.275 3.213-1.096 4.33-2.276l0.003-0.004 3.307 3.32c0.183 0.181 0.435 0.294 0.713 0.294s0.53-0.112 0.713-0.294l-0 0c0.182-0.181 0.294-0.432 0.294-0.709 0-0.249-0.091-0.477-0.242-0.653l0.001 0.001zM15.907 19c-0.92 0-1.667-0.746-1.667-1.667v0-1.76l2.853 2.867c-0.287 0.339-0.711 0.555-1.186 0.56h-0.001zM23.667 17.333c0-0.552-0.448-1-1-1v0c-0.227 0.008-0.435 0.087-0.603 0.215l0.003-0.002 1.533 1.533c0.033-0.215 0.057-0.473 0.066-0.734l0-0.013z"></path>
</svg>
