<!-- Generated by IcoMoon.io -->
<svg version="1.1" xmlns="http://www.w3.org/2000/svg" width="32" height="32" viewBox="0 0 32 32">
<title>people</title>
<path d="M10.867 16.8c-3.264-0.008-5.907-2.655-5.907-5.92 0-3.27 2.65-5.92 5.92-5.92s5.92 2.65 5.92 5.92v0c-0.008 3.271-2.661 5.92-5.933 5.92 0 0 0 0-0 0v0zM10.867 6.96c-2.159 0.008-3.907 1.76-3.907 3.92 0 2.165 1.755 3.92 3.92 3.92s3.92-1.755 3.92-3.92v0c0 0 0 0 0-0 0-2.165-1.755-3.92-3.92-3.92-0.005 0-0.009 0-0.014 0h0.001zM23.533 19.24h-2.067c-0.061-0.002-0.134-0.003-0.206-0.003-1.383 0-2.688 0.331-3.842 0.918l0.048-0.022c-1.407-1.27-3.279-2.049-5.332-2.053h-2.508c-4.418 0-8 3.582-8 8v0c0 0.552 0.448 1 1 1s1-0.448 1-1v0c0.008-3.289 2.671-5.952 5.959-5.96h2.521c0 0 0 0 0 0 3.294 0 5.966 2.667 5.973 5.959v0.001c0 0.552 0.448 1 1 1s1-0.448 1-1v0c-0.014-1.613-0.51-3.106-1.351-4.348l0.018 0.028c0.768-0.304 1.658-0.48 2.588-0.48 0.027 0 0.055 0 0.082 0l-0.004-0h2.067c2.648 0.008 4.792 2.152 4.8 4.799v0.001c0 0.552 0.448 1 1 1s1-0.448 1-1v0c0-0.008 0-0.017 0-0.027 0-3.739-3.013-6.775-6.743-6.813l-0.004-0zM22.493 18.507c-2.82 0-5.107-2.286-5.107-5.107s2.286-5.107 5.107-5.107c2.82 0 5.107 2.286 5.107 5.107v0c-0.008 2.817-2.289 5.099-5.106 5.107h-0.001zM22.493 10.307c-1.716 0-3.107 1.391-3.107 3.107s1.391 3.107 3.107 3.107c1.716 0 3.107-1.391 3.107-3.107 0-0.005 0-0.009-0-0.014v0.001c-0.008-1.71-1.396-3.093-3.107-3.093 0 0-0 0-0 0v0z"></path>
</svg>
