<!-- Generated by IcoMoon.io -->
<svg version="1.1" xmlns="http://www.w3.org/2000/svg" width="32" height="32" viewBox="0 0 32 32">
<title>pin</title>
<path d="M23.373 20.347c-0.699-1.015-1.534-1.875-2.491-2.579l-0.029-0.021v-9.333c0.822-0.235 1.413-0.979 1.413-1.862 0-0.002 0-0.003 0-0.005v0-0.587c0-0.004 0-0.009 0-0.013 0-1.075-0.872-1.947-1.947-1.947-0 0-0 0-0 0h-8.64c0 0-0 0-0 0-1.075 0-1.947 0.872-1.947 1.947 0 0.005 0 0.009 0 0.014v-0.001 0.587c0.004 0.879 0.594 1.619 1.4 1.85l0.014 0.003v9.333c-0.986 0.725-1.821 1.585-2.497 2.564l-0.023 0.036c-0.653 0.96-0.133 2.413 0.88 2.413h5.493v5.253c0 0.552 0.448 1 1 1s1-0.448 1-1v0-5.24h5.493c1.013 0 1.507-1.427 0.88-2.413z"></path>
</svg>
