<!-- Generated by IcoMoon.io -->
<svg version="1.1" xmlns="http://www.w3.org/2000/svg" width="32" height="32" viewBox="0 0 32 32">
<title>play-circle-big</title>
<path d="M16 0c-3.165 0-6.258 0.938-8.889 2.696s-4.682 4.257-5.893 7.181c-1.211 2.924-1.528 6.141-0.91 9.244s2.141 5.955 4.379 8.192c2.238 2.238 5.089 3.761 8.192 4.379s6.321 0.3 9.244-0.91c2.924-1.211 5.422-3.262 7.181-5.893s2.697-5.725 2.697-8.889c-0.004-4.242-1.691-8.309-4.691-11.309s-7.067-4.687-11.309-4.691v0zM22.137 17.444l-7.27 4.185c-0.248 0.148-0.532 0.227-0.82 0.23-0.295-0-0.584-0.079-0.837-0.23-0.254-0.142-0.465-0.35-0.612-0.601s-0.225-0.536-0.225-0.827v-8.402c0.001-0.291 0.078-0.576 0.225-0.827s0.358-0.458 0.612-0.601c0.249-0.144 0.532-0.22 0.821-0.22s0.571 0.076 0.82 0.22l7.27 4.185c0.261 0.141 0.478 0.349 0.63 0.603s0.232 0.545 0.232 0.841-0.080 0.587-0.232 0.841c-0.152 0.254-0.369 0.463-0.63 0.603h0.016z"></path>
</svg>
