<!-- Generated by IcoMoon.io -->
<svg version="1.1" xmlns="http://www.w3.org/2000/svg" width="32" height="32" viewBox="0 0 32 32">
<title>play-big</title>
<path d="M25.733 15.133l-18.467-10.667c-0.144-0.082-0.316-0.13-0.5-0.13s-0.356 0.048-0.505 0.133l0.005-0.003c-0.304 0.169-0.507 0.488-0.507 0.854 0 0.004 0 0.009 0 0.013v-0.001 21.333c-0 0.004-0 0.008-0 0.012 0 0.366 0.203 0.686 0.502 0.852l0.005 0.003c0.136 0.084 0.301 0.133 0.477 0.133 0.006 0 0.011-0 0.017-0h-0.001c0.002 0 0.005 0 0.008 0 0.184 0 0.356-0.049 0.504-0.136l-0.005 0.003 18.467-10.667c0.302-0.176 0.501-0.498 0.501-0.867s-0.199-0.691-0.496-0.864l-0.005-0.003z"></path>
</svg>
