<!-- Generated by IcoMoon.io -->
<svg version="1.1" xmlns="http://www.w3.org/2000/svg" width="32" height="32" viewBox="0 0 32 32">
<title>privacy-policy</title>
<path d="M24.667 10.893h-2.227v-1.333c0-3.557-2.883-6.44-6.44-6.44s-6.44 2.883-6.44 6.44v0 1.333h-2.227c-0.549 0.007-0.993 0.451-1 0.999v14.667c0 0.552 0.448 1 1 1v0h17.333c0.552 0 1-0.448 1-1v0-14.667c-0.007-0.549-0.451-0.993-0.999-1h-0.001zM11.56 9.56c0-2.452 1.988-4.44 4.44-4.44s4.44 1.988 4.44 4.44v0 1.333h-8.88zM23.667 25.56h-15.333v-12.667h15.333zM18.333 19.547c0 1.289-1.045 2.333-2.333 2.333s-2.333-1.045-2.333-2.333c0-1.289 1.045-2.333 2.333-2.333s2.333 1.045 2.333 2.333z"></path>
</svg>
