<!-- Generated by IcoMoon.io -->
<svg version="1.1" xmlns="http://www.w3.org/2000/svg" width="32" height="32" viewBox="0 0 32 32">
<title>refer-filled</title>
<path d="M15 17.787h-10.667v8.88c0.007 0.549 0.451 0.993 0.999 1h9.707zM15 15.787v-6.587h2v6.587h11.533v-5.587c0-0.552-0.448-1-1-1v0h-5.107c0.515-0.225 0.956-0.521 1.335-0.882l-0.002 0.002c0.588-0.603 0.951-1.427 0.951-2.337 0-0.512-0.115-0.996-0.32-1.43l0.009 0.020c-0.78-1.728-2.489-2.909-4.473-2.909-0.059 0-0.117 0.001-0.175 0.003l0.008-0c-2.2 0-3.267 1.893-3.787 3.813-0.533-1.92-1.6-3.813-3.8-3.813-0.051-0.002-0.111-0.003-0.171-0.003-1.987 0-3.698 1.181-4.469 2.879l-0.013 0.031c-0.193 0.412-0.306 0.895-0.306 1.404 0 0.91 0.361 1.737 0.947 2.344l-0.001-0.001c0.379 0.355 0.82 0.651 1.303 0.868l0.030 0.012h-5.027c-0.552 0-1 0.448-1 1v0 5.587zM19.747 3.667c0.048-0.003 0.104-0.004 0.161-0.004 1.159 0 2.16 0.675 2.632 1.654l0.008 0.017c0.092 0.183 0.145 0.399 0.145 0.627 0 0.364-0.136 0.695-0.36 0.947l0.001-0.001c-0.8 0.8-3.067 1.2-4.813 1.333 0.16-1.76 0.72-4.573 2.227-4.573zM9.333 5.333c0.483-0.996 1.487-1.671 2.648-1.671 0.054 0 0.107 0.001 0.16 0.004l-0.007-0c1.52 0 2.080 2.813 2.24 4.547-1.76-0.107-4-0.507-4.827-1.333-0.218-0.249-0.35-0.577-0.35-0.936 0-0.222 0.051-0.432 0.141-0.619l-0.004 0.009zM17 17.787v9.88h9.667c0.549-0.007 0.993-0.451 1-0.999v-8.881z"></path>
</svg>
