<!-- Generated by IcoMoon.io -->
<svg version="1.1" xmlns="http://www.w3.org/2000/svg" width="32" height="32" viewBox="0 0 32 32">
<title>rewind-10</title>
<path d="M11.667 13.707l-0.613 0.16c-0.046 0.006-0.099 0.010-0.153 0.010s-0.107-0.004-0.159-0.010l0.006 0.001c-0 0-0 0-0 0-0.408 0-0.739-0.327-0.747-0.733v-0.001c0.005-0.354 0.243-0.651 0.568-0.745l0.006-0.001 1.107-0.32c0.195-0.045 0.42-0.071 0.651-0.071 0.057 0 0.114 0.002 0.171 0.005l-0.008-0c0.471 0 0.853 0.382 0.853 0.853v0 6.333c0 0.471-0.382 0.853-0.853 0.853v0c-0.471 0-0.853-0.382-0.853-0.853v0zM15.013 16v0c-0.008-0.093-0.013-0.201-0.013-0.311 0-1.979 1.556-3.594 3.511-3.689l0.009-0c1.95 0.094 3.496 1.698 3.496 3.663 0 0.119-0.006 0.236-0.017 0.352l0.001-0.015c0.012 0.113 0.019 0.244 0.019 0.377 0 1.981-1.559 3.598-3.518 3.689l-0.008 0c-1.952-0.074-3.505-1.675-3.505-3.637 0-0.151 0.009-0.3 0.027-0.447l-0.002 0.018zM20.227 16v0c0-1.427-0.693-2.507-1.733-2.507s-1.707 1.040-1.707 2.48v0c0 1.44 0.68 2.507 1.733 2.507s1.707-1.027 1.707-2.48zM16 3c-4.121 0.014-7.785 1.956-10.139 4.971l-0.021 0.029-0.507-2.813c-0.078-0.474-0.484-0.831-0.974-0.831-0.066 0-0.13 0.006-0.192 0.019l0.006-0.001c-0.473 0.086-0.827 0.494-0.827 0.985 0 0.057 0.005 0.113 0.014 0.168l-0.001-0.006 0.893 5.333c0.023 0.091 0.055 0.171 0.096 0.245l-0.003-0.005c-0.003 0.016-0.005 0.034-0.005 0.053s0.002 0.037 0.006 0.055l-0-0.002c0.043 0.066 0.092 0.122 0.146 0.173l0.001 0.001 0.12 0.093s0 0 0.107 0.080v0h0.56l5.387-0.88c0.476-0.083 0.834-0.493 0.834-0.987 0-0.553-0.448-1.001-1.001-1.001-0.059 0-0.117 0.005-0.173 0.015l0.006-0.001-3.027 0.52c2.012-2.574 5.117-4.214 8.605-4.214 0.031 0 0.062 0 0.093 0l-0.005-0c6.075 0 11 4.925 11 11s-4.925 11-11 11c-6.075 0-11-4.925-11-11v0c0-0.552-0.448-1-1-1s-1 0.448-1 1v0c0 7.18 5.82 13 13 13s13-5.82 13-13c0-7.18-5.82-13-13-13v0z"></path>
</svg>
