<!-- Generated by IcoMoon.io -->
<svg version="1.1" xmlns="http://www.w3.org/2000/svg" width="32" height="32" viewBox="0 0 32 32">
<title>settings-filled</title>
<path d="M27.493 17.707l-1.133-0.6c0.047-0.356 0.073-0.768 0.073-1.187s-0.027-0.83-0.078-1.235l0.005 0.048 1.12-0.613c0.564-0.325 0.938-0.925 0.938-1.611 0-0.181-0.026-0.356-0.074-0.522l0.003 0.013c-0.62-1.844-1.577-3.428-2.808-4.755l0.008 0.008c-0.335-0.36-0.811-0.584-1.339-0.584-0.359 0-0.693 0.103-0.975 0.282l0.008-0.004-1.093 0.68c-0.287-0.214-0.614-0.426-0.954-0.617l-0.046-0.023c-0.296-0.178-0.646-0.356-1.009-0.511l-0.058-0.022v-1.333c0-0.014 0.001-0.031 0.001-0.047 0-0.862-0.598-1.585-1.402-1.777l-0.012-0.002c-0.829-0.194-1.782-0.305-2.76-0.305s-1.931 0.111-2.845 0.321l0.085-0.016c-0.818 0.199-1.416 0.925-1.416 1.791 0 0.036 0.001 0.072 0.003 0.108l-0-0.005v1.333c-0.428 0.168-0.779 0.334-1.118 0.519l0.051-0.026c-0.379 0.218-0.701 0.434-1.008 0.669l0.021-0.016-1.107-0.667c-0.273-0.169-0.604-0.269-0.958-0.269-0.539 0-1.024 0.232-1.36 0.601l-0.001 0.001c-1.179 1.339-2.094 2.943-2.642 4.708l-0.025 0.092c-0.048 0.157-0.076 0.337-0.076 0.524 0 0.705 0.393 1.318 0.972 1.631l0.010 0.005 1.133 0.6c-0.047 0.356-0.073 0.768-0.073 1.187s0.027 0.83 0.078 1.235l-0.005-0.048-1.12 0.613c-0.559 0.323-0.929 0.918-0.929 1.599 0 0.186 0.028 0.365 0.079 0.535l-0.003-0.013c0.614 1.862 1.567 3.464 2.796 4.81l-0.009-0.010c0.335 0.363 0.813 0.589 1.344 0.589 0.362 0 0.7-0.105 0.984-0.287l-0.007 0.004 1.093-0.68c0.284 0.208 0.61 0.42 0.949 0.613l0.051 0.027c0.301 0.183 0.652 0.358 1.018 0.503l0.049 0.017v1.333c0 0.002 0 0.005 0 0.007 0 0.862 0.597 1.585 1.401 1.777l0.012 0.003c0.799 0.186 1.716 0.293 2.658 0.293 0.003 0 0.006 0 0.009 0h-0.001c1.012-0.001 1.996-0.118 2.941-0.337l-0.088 0.017c0.818-0.204 1.415-0.933 1.415-1.801 0-0.023-0-0.046-0.001-0.069l0 0.003v-1.333c0.419-0.187 0.764-0.369 1.097-0.571l-0.044 0.025c0.381-0.221 0.703-0.437 1.011-0.671l-0.024 0.017 1.107 0.667c0.273 0.169 0.604 0.269 0.958 0.269 0.539 0 1.024-0.232 1.36-0.601l0.001-0.001c1.182-1.338 2.097-2.942 2.642-4.709l0.024-0.091c0.041-0.145 0.065-0.312 0.065-0.485 0-0.698-0.389-1.306-0.962-1.617l-0.010-0.005zM20.333 16c0 2.393-1.94 4.333-4.333 4.333s-4.333-1.94-4.333-4.333c0-2.393 1.94-4.333 4.333-4.333v0c2.39 0.008 4.326 1.943 4.333 4.333v0.001z"></path>
</svg>
