<!-- Generated by IcoMoon.io -->
<svg version="1.1" xmlns="http://www.w3.org/2000/svg" width="32" height="32" viewBox="0 0 32 32">
<title>stats-filled</title>
<path d="M18.573 17.907c-0.368 0-0.667 0.298-0.667 0.667v0c-0 0.004-0 0.009-0 0.013 0 0.368 0.298 0.667 0.667 0.667 0 0 0 0 0 0v0c0.376 0 0.68-0.304 0.68-0.68v0c0-0 0-0 0-0 0-0.368-0.298-0.667-0.667-0.667-0.005 0-0.009 0-0.014 0h0.001zM13.44 12.76c-0.376 0-0.68 0.304-0.68 0.68v0c0.065 0.314 0.339 0.546 0.667 0.546s0.602-0.232 0.666-0.542l0.001-0.004c0-0 0-0 0-0.001 0-0.366-0.289-0.665-0.652-0.679l-0.001-0zM8 18.2c-0.368 0-0.667 0.298-0.667 0.667v0c-0 0.004-0 0.009-0 0.013 0 0.368 0.298 0.667 0.667 0.667 0 0 0 0 0 0v0c0.376 0 0.68-0.304 0.68-0.68v0c0-0 0-0 0-0 0-0.368-0.298-0.667-0.667-0.667-0.005 0-0.009 0-0.014 0h0.001zM24 12.453c-0.376 0-0.68 0.304-0.68 0.68v0c0 0 0 0 0 0 0 0.368 0.298 0.667 0.667 0.667 0.005 0 0.009-0 0.014-0h-0.001c0.368 0 0.667-0.298 0.667-0.667v0c0-0.004 0-0.009 0-0.013 0-0.368-0.298-0.667-0.667-0.667-0 0-0 0-0 0v0zM27.333 5.333h-22.667c-0 0-0 0-0 0-1.647 0-2.985 1.328-3 2.972v15.388c0.015 1.645 1.352 2.973 3 2.973 0 0 0 0 0 0h22.667c1.657 0 3-1.343 3-3v0-15.36c-0.015-1.645-1.352-2.973-3-2.973-0 0-0 0-0 0v0zM24 15.8c-0.001 0-0.003 0-0.004 0-0.389 0-0.759-0.083-1.093-0.233l0.017 0.007-1.933 1.92c0.143 0.317 0.227 0.686 0.227 1.076 0 1.473-1.194 2.667-2.667 2.667-1.471 0-2.664-1.192-2.667-2.662v-0c-0-0.011-0-0.023-0-0.036 0-0.364 0.079-0.709 0.22-1.020l-0.006 0.015-1.64-1.64c-0.295 0.135-0.64 0.214-1.004 0.214-0.013 0-0.025-0-0.038-0l0.002 0c-0.011 0-0.025 0-0.038 0-0.367 0-0.717-0.079-1.031-0.22l0.016 0.006-1.907 1.947c0.122 0.304 0.195 0.656 0.2 1.025l0 0.002c0 1.473-1.194 2.667-2.667 2.667s-2.667-1.194-2.667-2.667c0-1.473 1.194-2.667 2.667-2.667v0c0.385 0 0.752 0.078 1.085 0.22l-0.018-0.007 1.933-1.933c-0.118-0.29-0.186-0.626-0.186-0.978 0-1.473 1.194-2.667 2.667-2.667 1.451 0 2.631 1.159 2.666 2.602l0 0.003c0 0.002 0 0.005 0 0.007 0 0.375-0.084 0.73-0.233 1.048l0.006-0.015 1.64 1.64c0.295-0.135 0.64-0.214 1.004-0.214 0.013 0 0.025 0 0.038 0l-0.002-0c0.007-0 0.015-0 0.024-0 0.357 0 0.697 0.074 1.006 0.206l-0.017-0.006 1.96-1.96c-0.137-0.298-0.22-0.645-0.227-1.011l-0-0.002c0-1.473 1.194-2.667 2.667-2.667s2.667 1.194 2.667 2.667c0 1.473-1.194 2.667-2.667 2.667v0z"></path>
</svg>
