<!-- Generated by IcoMoon.io -->
<svg version="1.1" xmlns="http://www.w3.org/2000/svg" width="32" height="32" viewBox="0 0 32 32">
<title>views</title>
<path d="M21.333 16c0 2.946-2.388 5.333-5.333 5.333s-5.333-2.388-5.333-5.333c0-2.946 2.388-5.333 5.333-5.333s5.333 2.388 5.333 5.333zM16 26.333c-7.093 0-13-7.507-13-10.333s5.907-10.333 13-10.333 13 6.933 13 10.333-6.013 10.333-13 10.333zM16 7.667c-6.307 0-11 7-11 8.333s4.693 8.333 11 8.333c6.053 0 11-6.293 11-8.333s-4.947-8.333-11-8.333z"></path>
</svg>
