<!-- Generated by IcoMoon.io -->
<svg version="1.1" xmlns="http://www.w3.org/2000/svg" width="32" height="32" viewBox="0 0 32 32">
<title>watched</title>
<path d="M9.773 22.44c-0.001 0-0.003 0-0.005 0-0.275 0-0.523-0.112-0.702-0.293l-0-0-5.067-5.107c-0.304-0.175-0.506-0.499-0.506-0.869 0-0.552 0.448-1 1-1 0.35 0 0.658 0.18 0.837 0.452l0.002 0.004 4.44 4.373 10.227-10.147c0.179-0.184 0.43-0.298 0.707-0.298s0.527 0.114 0.706 0.298l0 0c0.181 0.181 0.292 0.431 0.292 0.707s-0.112 0.526-0.292 0.707v0l-10.933 10.88c-0.173 0.181-0.416 0.294-0.685 0.294-0.008 0-0.015-0-0.022-0l0.001 0zM28 9.853c-0.179-0.184-0.43-0.298-0.707-0.298s-0.527 0.114-0.706 0.298l-0 0-10.147 10.147-1.253-1.253-1.413 1.413 1.96 1.96c0.179 0.181 0.427 0.293 0.702 0.293 0.002 0 0.003 0 0.005 0h-0c0.006 0 0.014 0 0.021 0 0.269 0 0.513-0.113 0.685-0.293l0-0 10.853-10.853c0.181-0.181 0.292-0.431 0.292-0.707s-0.112-0.526-0.292-0.707v0z"></path>
</svg>
