<!-- Generated by IcoMoon.io -->
<svg version="1.1" xmlns="http://www.w3.org/2000/svg" width="32" height="32" viewBox="0 0 32 32">
<title>Close-Circle</title>
<path fill="#9aafbf" opacity="0.0025000000000000005" d="M32 0h-32v32h32v-32z"></path>
<path fill="#dde6ed" d="M16 29c-2.571 0-5.085-0.762-7.222-2.191s-3.804-3.459-4.788-5.834-1.241-4.989-0.74-7.511c0.502-2.522 1.74-4.838 3.558-6.656s4.134-3.056 6.656-3.558c2.522-0.502 5.136-0.244 7.511 0.74s4.406 2.65 5.834 4.788c1.428 2.138 2.191 4.651 2.191 7.222-0.003 3.447-1.374 6.751-3.811 9.188s-5.742 3.808-9.188 3.811zM16 5c-2.176 0-4.302 0.645-6.111 1.854s-3.219 2.927-4.051 4.937c-0.833 2.010-1.050 4.222-0.626 6.355s1.472 4.094 3.010 5.632c1.538 1.538 3.498 2.586 5.632 3.010s4.346 0.207 6.355-0.626c2.010-0.833 3.728-2.242 4.937-4.051s1.854-3.936 1.854-6.111c-0.003-2.916-1.164-5.712-3.226-7.774s-4.858-3.222-7.774-3.226z"></path>
<path fill="#9aafbf" d="M17.413 16l3.067-3.067c0.177-0.19 0.273-0.44 0.268-0.699s-0.11-0.506-0.293-0.689-0.43-0.288-0.689-0.293c-0.259-0.005-0.51 0.092-0.699 0.268l-3.067 3.067-3.067-3.067c-0.19-0.177-0.44-0.273-0.699-0.268s-0.506 0.11-0.69 0.293-0.288 0.43-0.293 0.689c-0.005 0.259 0.092 0.51 0.268 0.699l3.067 3.067-3.067 3.067c-0.187 0.188-0.293 0.442-0.293 0.707s0.105 0.519 0.293 0.707c0.092 0.093 0.202 0.168 0.324 0.218s0.252 0.076 0.383 0.075c0.132 0.001 0.262-0.024 0.383-0.074s0.232-0.125 0.323-0.219l3.067-3.067 3.067 3.067c0.092 0.094 0.202 0.169 0.323 0.219s0.252 0.076 0.383 0.074c0.131 0.001 0.262-0.025 0.383-0.075s0.232-0.124 0.324-0.218c0.187-0.188 0.292-0.442 0.292-0.707s-0.105-0.519-0.292-0.707l-3.067-3.067z"></path>
</svg>
