<svg width="128" height="43" viewBox="0 0 128 43" fill="none" xmlns="http://www.w3.org/2000/svg">
<path d="M117.807 0.000139503H10.1989C9.80663 0.000139503 9.41909 0.000139503 9.02789 0.0022857C8.70041 0.00443189 8.37554 0.0106666 8.04492 0.015914C7.32666 0.0243935 6.61008 0.0877861 5.90143 0.205541C5.19377 0.32586 4.50827 0.552695 3.86813 0.878374C3.22877 1.20681 2.64457 1.63357 2.13672 2.14319C1.62621 2.65138 1.20066 3.23877 0.876427 3.88278C0.551304 4.52551 0.325862 5.21426 0.207889 5.92523C0.0887936 6.6353 0.0247074 7.35357 0.0162054 8.07357C0.00627891 8.40258 0.00523064 8.73269 0 9.06174V33.8656C0.00523064 34.1988 0.00627891 34.5216 0.0162054 34.8549C0.02471 35.5749 0.0887962 36.2931 0.207889 37.0031C0.325536 37.7145 0.550991 38.4037 0.876427 39.0466C1.20051 39.6886 1.62612 40.2736 2.13672 40.7789C2.64265 41.2908 3.22722 41.7179 3.86813 42.0438C4.50827 42.3703 5.19369 42.5985 5.90143 42.7207C6.61021 42.8375 7.3267 42.9009 8.04492 42.9104C8.37554 42.9177 8.70041 42.9219 9.02789 42.9219C9.41908 42.9241 9.80665 42.9241 10.1989 42.9241H117.807C118.191 42.9241 118.582 42.9241 118.966 42.9219C119.292 42.9219 119.627 42.9177 119.953 42.9104C120.669 42.9014 121.385 42.838 122.092 42.7207C122.802 42.5977 123.49 42.3695 124.133 42.0438C124.773 41.7177 125.357 41.2906 125.863 40.7789C126.372 40.2716 126.799 39.687 127.127 39.0466C127.45 38.4032 127.673 37.7141 127.789 37.0031C127.908 36.293 127.975 35.5749 127.987 34.8549C127.992 34.5216 127.992 34.1988 127.992 33.8656C128 33.4758 128 33.088 128 32.6919V10.2333C128 9.84036 128 9.45053 127.992 9.06174C127.992 8.73269 127.992 8.40258 127.987 8.07353C127.975 7.35346 127.908 6.63536 127.789 5.92519C127.673 5.21462 127.449 4.52593 127.127 3.88274C126.466 2.59188 125.419 1.54114 124.133 0.878277C123.49 0.553394 122.802 0.326619 122.092 0.205445C121.385 0.0871707 120.669 0.023756 119.953 0.0157638C119.627 0.0105271 119.292 0.00423874 118.966 0.0021462C118.582 0 118.191 0 117.807 0V0.000139503Z" fill="#A6A6A6"/>
<path d="M9.03434 41.9855C8.70844 41.9855 8.3904 41.9813 8.06706 41.974C7.39721 41.9652 6.72894 41.9067 6.06771 41.7989C5.45115 41.6924 4.85386 41.4943 4.29556 41.211C3.74238 40.9301 3.23783 40.5617 2.80124 40.1201C2.35834 39.6836 1.9896 39.1774 1.70964 38.6215C1.4266 38.062 1.23072 37.4622 1.12882 36.8432C1.01877 36.178 0.959238 35.5053 0.950718 34.8311C0.943937 34.6048 0.935059 33.8513 0.935059 33.8513V9.0621C0.935059 9.0621 0.944514 8.32015 0.950772 8.10217C0.958929 7.42899 1.01812 6.75742 1.12783 6.09325C1.22992 5.47249 1.42595 4.87101 1.70915 4.30966C1.98808 3.75413 2.35477 3.24754 2.79501 2.80952C3.23475 2.36734 3.74091 1.9971 4.29504 1.71231C4.85206 1.42996 5.44821 1.23319 6.06353 1.12861C6.72693 1.01976 7.39752 0.960911 8.06969 0.952556L9.03486 0.939453H118.962L119.939 0.953081C120.605 0.961022 121.27 1.01935 121.927 1.12756C122.548 1.23346 123.151 1.43159 123.714 1.71545C124.824 2.2894 125.728 3.19743 126.297 4.31228C126.576 4.86976 126.769 5.46632 126.87 6.08173C126.981 6.75134 127.043 7.4282 127.056 8.10689C127.059 8.41079 127.059 8.73723 127.059 9.0621C127.067 9.46451 127.067 9.84753 127.067 10.2337V32.6922C127.067 33.0821 127.067 33.4625 127.059 33.846C127.059 34.195 127.059 34.5146 127.055 34.8437C127.042 35.5102 126.981 36.175 126.872 36.8326C126.772 37.4562 126.577 38.0606 126.294 38.6247C126.012 39.1746 125.646 39.6764 125.208 40.1117C124.771 40.5557 124.266 40.9262 123.711 41.209C123.149 41.4944 122.548 41.6933 121.927 41.7989C121.266 41.9073 120.597 41.9658 119.928 41.974C119.614 41.9813 119.286 41.9855 118.968 41.9855L117.808 41.9876L9.03434 41.9855Z" fill="black"/>
<path d="M26.4936 21.7858C26.517 19.9653 27.4684 18.2838 29.0144 17.3303C28.0346 15.9265 26.4525 15.0684 24.7452 15.0148C22.949 14.8257 21.2076 16.0931 20.2923 16.0931C19.3592 16.0931 17.95 15.0336 16.4324 15.065C14.4357 15.1297 12.6193 16.241 11.6479 17.9922C9.57917 21.5854 11.1223 26.8662 13.1039 29.7706C14.0954 31.1929 15.2541 32.7815 16.7703 32.7252C18.254 32.6635 18.8081 31.7761 20.5991 31.7761C22.3734 31.7761 22.8933 32.7252 24.4402 32.6894C26.0323 32.6634 27.0354 31.2608 27.992 29.8251C28.7044 28.8117 29.2526 27.6917 29.6162 26.5066C27.7253 25.7042 26.4958 23.8455 26.4936 21.7858Z" fill="white"/>
<path d="M23.5736 13.1056C24.4416 12.0602 24.8693 10.7165 24.7657 9.35986C23.4395 9.4996 22.2145 10.1355 21.3347 11.1408C20.4659 12.1327 20.0258 13.4303 20.1113 14.7479C21.4553 14.7618 22.7314 14.1565 23.5736 13.1056Z" fill="white"/>
<path fill-rule="evenodd" clip-rule="evenodd" d="M40.1837 29.1258H45.2468L46.4617 32.7276H48.6428L43.8471 19.4019H41.619L36.8232 32.7276H38.9678L40.1837 29.1258ZM44.7202 27.463H40.7068L42.6864 21.6176H42.7417L44.7202 27.463Z" fill="white"/>
<path fill-rule="evenodd" clip-rule="evenodd" d="M54.9576 32.8269C57.3884 32.8269 58.9992 30.8871 58.9992 27.868C58.9992 24.8572 57.3789 22.9081 54.9211 22.908C53.6563 22.8671 52.4715 23.5271 51.8374 24.6256H51.8009V23.0097H49.8767V35.9393H51.8646V31.1271H51.9106C52.5177 32.2326 53.7012 32.8928 54.9576 32.8269ZM54.3967 24.6082C55.9427 24.6082 56.956 25.9014 56.956 27.8684C56.956 29.8532 55.9427 31.1369 54.3967 31.1369C52.8779 31.1369 51.8563 29.826 51.8563 27.8684C51.8563 25.9286 52.8779 24.6082 54.3967 24.6082Z" fill="white"/>
<path fill-rule="evenodd" clip-rule="evenodd" d="M65.6188 32.8269C68.0495 32.8269 69.6603 30.8871 69.6603 27.868C69.6603 24.8572 68.0401 22.908 65.5822 22.908C64.3174 22.8671 63.1326 23.527 62.4985 24.6256H62.462V23.0097H60.5378V35.9393H62.5257V31.1271H62.5717C63.1788 32.2326 64.3623 32.8928 65.6188 32.8269ZM65.0578 24.6082C66.6038 24.6082 67.6171 25.9014 67.6171 27.8684H67.6171C67.6171 29.8532 66.6038 31.1369 65.0578 31.1369C63.539 31.1369 62.5174 29.826 62.5174 27.8684C62.5174 25.9286 63.539 24.6082 65.0578 24.6082Z" fill="white"/>
<path d="M76.7048 29.0138C76.8521 30.3352 78.1317 31.2029 79.8804 31.2029C81.5559 31.2029 82.7614 30.3352 82.7614 29.1436C82.7614 28.1093 82.0343 27.49 80.3128 27.0656L78.5914 26.6495C76.1522 26.0585 75.0199 24.9141 75.0199 23.0572C75.0199 20.758 77.0172 19.1787 79.8532 19.1787C82.66 19.1787 84.5842 20.758 84.6489 23.0572H82.6422C82.5221 21.7273 81.4263 20.9246 79.825 20.9246C78.2236 20.9246 77.1279 21.7368 77.1279 22.9188C77.1279 23.8609 77.8277 24.4153 79.5398 24.8397L81.0033 25.2002C83.7286 25.8468 84.861 26.945 84.861 28.8942C84.861 31.3873 82.8815 32.9487 79.7331 32.9487C76.7873 32.9487 74.7984 31.4239 74.6699 29.0137L76.7048 29.0138Z" fill="white"/>
<path d="M89.149 20.7119V23.0111H90.9906V24.5904H89.149V29.9464C89.149 30.7785 89.5178 31.1662 90.3273 31.1662C90.5459 31.1624 90.7642 31.147 90.9812 31.1201V32.6899C90.6173 32.7581 90.2473 32.789 89.8771 32.7821C87.9164 32.7821 87.1518 32.0433 87.1518 30.1591V24.5904H85.7437V23.0111H87.1517V20.7119H89.149Z" fill="white"/>
<path fill-rule="evenodd" clip-rule="evenodd" d="M96.6509 22.8896C93.8525 22.8896 92.0579 24.8105 92.0579 27.8674C92.0579 30.9326 93.8347 32.8451 96.6509 32.8451C99.4682 32.8451 101.245 30.9326 101.245 27.8674C101.245 24.8105 99.4588 22.8896 96.6509 22.8896ZM96.6518 24.5324C98.2626 24.5324 99.2204 25.77 99.2204 27.867H99.2204C99.2204 29.9723 98.2626 31.2005 96.6518 31.2005C95.041 31.2005 94.0842 29.9723 94.0842 27.867C94.0842 25.7795 95.041 24.5324 96.6518 24.5324Z" fill="white"/>
<path d="M102.883 23.0096H104.779V24.6633H104.825C105.09 23.5987 106.062 22.8661 107.155 22.908C107.384 22.9072 107.612 22.9321 107.836 22.9824V24.8477C107.547 24.7591 107.245 24.7183 106.943 24.7272C106.358 24.7034 105.793 24.9371 105.394 25.3668C104.996 25.7966 104.805 26.3795 104.871 26.9625V32.7251H102.883L102.883 23.0096Z" fill="white"/>
<path fill-rule="evenodd" clip-rule="evenodd" d="M112.832 32.8451C115.023 32.8451 116.735 31.6348 117.002 29.8711L115.115 29.8711C114.752 30.7725 113.843 31.3283 112.878 31.2376C112.155 31.2643 111.455 30.978 110.957 30.4515C110.458 29.925 110.209 29.209 110.273 28.4857V28.3652H117.113V27.6819C117.113 24.7361 115.428 22.8896 112.749 22.8896C110.024 22.8896 108.266 24.8661 108.266 27.9135C108.266 30.9515 110.015 32.8451 112.832 32.8451ZM115.126 26.9735L110.284 26.9735C110.282 26.3176 110.542 25.6881 111.005 25.2251C111.468 24.762 112.096 24.5038 112.75 24.5077C113.399 24.4937 114.024 24.7518 114.475 25.2199C114.926 25.688 115.162 26.3236 115.126 26.9735Z" fill="white"/>
<path fill-rule="evenodd" clip-rule="evenodd" d="M42.7117 10.2443C42.13 9.628 41.3034 9.3059 40.4595 9.36665H38.1541V15.7697H40.4595C42.3606 15.7697 43.4627 14.5938 43.4627 12.5482C43.5691 11.7062 43.2935 10.8606 42.7117 10.2443ZM40.3472 14.8651H39.1438V10.2725H40.3472C40.9471 10.2391 41.5305 10.4764 41.9378 10.9195C42.3451 11.3626 42.5337 11.9651 42.452 12.5622C42.5401 13.1619 42.3542 13.7694 41.9459 14.2162C41.5375 14.6629 40.9503 14.9013 40.3472 14.8651Z" fill="white"/>
<path fill-rule="evenodd" clip-rule="evenodd" d="M45.6526 11.1903C44.9157 11.649 44.5017 12.4872 44.5843 13.3534C44.5001 14.2204 44.9137 15.0602 45.6513 15.52C46.3889 15.9797 47.3226 15.9797 48.0602 15.52C48.7978 15.0602 49.2114 14.2204 49.1272 13.3534C49.2098 12.4872 48.7958 11.649 48.0589 11.1903C47.322 10.7315 46.3895 10.7315 45.6526 11.1903ZM46.859 11.6926C47.6821 11.6926 48.1512 12.3051 48.1512 13.3526H48.1512C48.1512 14.4042 47.6822 15.0162 46.859 15.0162C46.0328 15.0162 45.5679 14.4084 45.5679 13.3526C45.5679 12.3051 46.0328 11.6926 46.859 11.6926Z" fill="white"/>
<path d="M55.166 15.771H54.1799L53.1844 12.2122H53.1092L52.1178 15.771H51.1412L49.8135 10.939H50.7776L51.6405 14.6261H51.7115L52.7018 10.939H53.6137L54.604 14.6261H54.6792L55.5378 10.939H56.4884L55.166 15.771Z" fill="white"/>
<path d="M57.6018 10.9399H58.5169V11.7075H58.5879C58.8349 11.1423 59.4121 10.7966 60.0253 10.8466C60.5 10.8108 60.9652 10.9935 61.2895 11.3431C61.6139 11.6927 61.7621 12.1713 61.6924 12.6438V15.7719H60.7419V12.8833C60.7419 12.1068 60.4055 11.7206 59.7025 11.7206C59.3805 11.7055 59.068 11.8323 58.8469 12.0677C58.6259 12.303 58.5183 12.6235 58.5524 12.9451V15.7719H57.6018L57.6018 10.9399Z" fill="white"/>
<path d="M63.2083 9.05176H64.1588V15.7701H63.2083V9.05176Z" fill="white"/>
<path fill-rule="evenodd" clip-rule="evenodd" d="M66.5495 11.1903C65.8125 11.649 65.3984 12.4873 65.481 13.3534C65.3969 14.2205 65.8106 15.0603 66.5482 15.5201C67.2858 15.9798 68.2196 15.9798 68.9572 15.5201C69.6948 15.0603 70.1085 14.2205 70.0244 13.3534C70.1069 12.4873 69.6929 11.649 68.9559 11.1903C68.2189 10.7315 67.2864 10.7315 66.5495 11.1903ZM67.7551 11.6926C68.5782 11.6926 69.0472 12.3051 69.0472 13.3526H69.0472C69.0472 14.4042 68.5782 15.0162 67.7551 15.0162C66.9288 15.0162 66.464 14.4084 66.464 13.3526C66.464 12.3051 66.9288 11.6926 67.7551 11.6926Z" fill="white"/>
<path fill-rule="evenodd" clip-rule="evenodd" d="M72.8176 12.9625C71.6717 13.0338 71.0261 13.5352 71.0261 14.405C71.0277 14.8174 71.2032 15.2099 71.5091 15.4854C71.815 15.761 72.2228 15.8938 72.6317 15.8512C73.2149 15.8782 73.7676 15.5884 74.0784 15.0925H74.1536V15.7715H75.0687V12.47C75.0687 11.4493 74.3876 10.8462 73.1801 10.8462C72.0874 10.8462 71.3092 11.3785 71.2121 12.2085H72.1323C72.2379 11.8669 72.6056 11.6714 73.1362 11.6714C73.7859 11.6714 74.1223 11.9596 74.1223 12.47V12.8871L72.8176 12.9625ZM74.1226 13.5881V13.9921C74.1018 14.3001 73.9573 14.5864 73.7222 14.7855C73.4871 14.9846 73.1815 15.0795 72.8754 15.0484C72.3583 15.0484 71.9822 14.7953 71.9822 14.3604C71.9822 13.9344 72.2831 13.7081 72.9464 13.6636L74.1226 13.5881Z" fill="white"/>
<path fill-rule="evenodd" clip-rule="evenodd" d="M78.316 10.8579C77.0991 10.8579 76.3167 11.8252 76.3167 13.352C76.3167 14.8826 77.0907 15.8498 78.316 15.8498C78.9372 15.8728 79.5199 15.548 79.8286 15.0067H79.9038V15.7701H80.8147V9.05176H79.8641V11.7057H79.793C79.506 11.1598 78.9305 10.8295 78.316 10.8579ZM78.5855 14.9927C77.7801 14.9927 77.2986 14.376 77.2986 13.3511H77.2985C77.2985 12.3346 77.7853 11.7137 78.5855 11.7137C79.3815 11.7137 79.8818 12.3482 79.8818 13.3553C79.8818 14.3671 79.3867 14.9927 78.5855 14.9927Z" fill="white"/>
<path fill-rule="evenodd" clip-rule="evenodd" d="M85.8159 11.1903C85.079 11.649 84.665 12.4872 84.7476 13.3534C84.6634 14.2204 85.077 15.0602 85.8146 15.52C86.5522 15.9797 87.4859 15.9797 88.2235 15.52C88.9611 15.0602 89.3747 14.2204 89.2905 13.3534C89.3731 12.4872 88.9591 11.649 88.2222 11.1903C87.4853 10.7315 86.5528 10.7315 85.8159 11.1903ZM87.0217 11.6926C87.8448 11.6926 88.3139 12.3051 88.3139 13.3526C88.3139 14.4042 87.8449 15.0162 87.0217 15.0162C86.1955 15.0162 85.7306 14.4084 85.7306 13.3526C85.7306 12.3051 86.1955 11.6926 87.0217 11.6926Z" fill="white"/>
<path d="M90.5667 10.9399H91.4817V11.7075H91.5527C91.7998 11.1423 92.377 10.7966 92.9901 10.8466C93.4648 10.8108 93.93 10.9935 94.2544 11.3431C94.5787 11.6927 94.727 12.1713 94.6573 12.6438V15.7719H93.7067V12.8833C93.7067 12.1068 93.3703 11.7206 92.6673 11.7206C92.3453 11.7055 92.0328 11.8323 91.8118 12.0677C91.5907 12.303 91.4831 12.6235 91.5172 12.9451V15.7719H90.5667V10.9399Z" fill="white"/>
<path d="M100.029 9.73438V10.9594H101.073V11.7627H100.029V14.2474C100.029 14.7535 100.237 14.9752 100.71 14.9752C100.831 14.9748 100.952 14.9674 101.073 14.9532V15.7475C100.902 15.7781 100.729 15.7944 100.555 15.7962C99.4984 15.7962 99.0774 15.4231 99.0774 14.4915V11.7626H98.3127V10.9594H99.0774V9.73438H100.029Z" fill="white"/>
<path d="M102.37 9.05176H103.313V11.7146H103.388C103.647 11.1445 104.234 10.7983 104.856 10.849C105.328 10.8232 105.787 11.01 106.108 11.3583C106.429 11.7067 106.578 12.1804 106.515 12.6504V15.7702H105.564V12.8857C105.564 12.1139 105.205 11.723 104.534 11.723C104.203 11.6958 103.877 11.8164 103.643 12.0526C103.41 12.2888 103.292 12.6164 103.321 12.948V15.7701H102.37L102.37 9.05176Z" fill="white"/>
<path fill-rule="evenodd" clip-rule="evenodd" d="M109.968 15.8649C110.91 15.9673 111.789 15.3784 112.056 14.4669L111.14 14.4669C110.912 14.8773 110.46 15.1087 109.995 15.0527C109.636 15.0567 109.292 14.9087 109.048 14.6452C108.804 14.3816 108.682 14.027 108.712 13.6684V13.615H112.113V13.2822C112.113 11.7648 111.304 10.8463 109.964 10.8463C109.32 10.8408 108.706 11.1158 108.28 11.6002C107.854 12.0845 107.658 12.7305 107.743 13.3708C107.656 14.0093 107.852 14.6542 108.28 15.1345C108.709 15.6148 109.326 15.8819 109.968 15.8649ZM111.146 12.911H108.713C108.709 12.5778 108.839 12.257 109.074 12.0213C109.309 11.7856 109.628 11.655 109.961 11.6592C110.288 11.6517 110.604 11.7833 110.83 12.0217C111.055 12.2601 111.17 12.583 111.146 12.911Z" fill="white"/>
</svg>
