<!-- Generated by IcoMoon.io -->
<svg version="1.1" xmlns="http://www.w3.org/2000/svg" width="32" height="32" viewBox="0 0 32 32">
<title>Goal</title>
<path fill="#3c4852" d="M18.511 23.438c-0.052 0.006-0.104 0.006-0.156 0-0.501-0.175-0.985-0.397-1.445-0.663-0.461-0.272-0.895-0.59-1.296-0.949-0.067-0.060-0.116-0.137-0.142-0.224s-0.029-0.179-0.007-0.267l0.428-1.732c-0.308-0.422-0.565-0.881-0.765-1.367l-1.685-0.491c-0.087-0.023-0.165-0.070-0.226-0.137s-0.102-0.151-0.117-0.241c-0.216-1.064-0.216-2.161 0-3.225 0.016-0.090 0.057-0.174 0.117-0.241s0.139-0.115 0.226-0.137l1.685-0.491c0.197-0.487 0.454-0.946 0.765-1.367l-0.428-1.732c-0.022-0.088-0.020-0.18 0.007-0.267s0.076-0.164 0.142-0.224c0.401-0.359 0.835-0.677 1.296-0.949 0.459-0.269 0.943-0.492 1.445-0.664 0.085-0.028 0.176-0.031 0.262-0.010s0.166 0.066 0.23 0.129l1.257 1.247c0.509-0.073 1.026-0.073 1.536 0l1.251-1.247c0.060-0.069 0.138-0.12 0.225-0.147s0.179-0.029 0.267-0.005c0.503 0.169 0.987 0.392 1.445 0.663 0.462 0.271 0.896 0.588 1.296 0.949 0.068 0.059 0.118 0.136 0.145 0.223s0.028 0.18 0.005 0.268l-0.428 1.732c0.313 0.42 0.572 0.88 0.771 1.367l1.685 0.491c0.086 0.024 0.164 0.072 0.224 0.139s0.102 0.15 0.119 0.239c0.207 1.064 0.207 2.16 0 3.225-0.017 0.090-0.059 0.172-0.119 0.239s-0.138 0.115-0.224 0.139l-1.685 0.491c-0.199 0.487-0.459 0.947-0.771 1.367l0.415 1.738c0.023 0.088 0.022 0.181-0.005 0.268s-0.076 0.164-0.145 0.223c-0.4 0.36-0.834 0.678-1.296 0.949-0.458 0.272-0.942 0.494-1.445 0.663-0.085 0.029-0.176 0.033-0.263 0.012s-0.167-0.067-0.23-0.132l-1.251-1.247c-0.509 0.073-1.026 0.073-1.536 0l-1.244 1.254c-0.044 0.045-0.097 0.080-0.155 0.104s-0.12 0.036-0.182 0.035zM21.822 21.023c0.129 0 0.252 0.053 0.343 0.146l1.205 1.201c0.342-0.134 0.674-0.296 0.991-0.484 0.32-0.195 0.624-0.417 0.907-0.663l-0.415-1.665c-0.018-0.076-0.019-0.155-0.002-0.231s0.051-0.147 0.1-0.207c0.363-0.459 0.652-0.974 0.855-1.526 0.026-0.072 0.068-0.137 0.124-0.188s0.122-0.090 0.194-0.11l1.627-0.471c0.113-0.743 0.113-1.5 0-2.243l-1.627-0.471c-0.072-0.021-0.139-0.058-0.194-0.11s-0.098-0.117-0.124-0.188c-0.202-0.553-0.491-1.069-0.855-1.526-0.049-0.060-0.083-0.131-0.1-0.207s-0.016-0.155 0.002-0.231l0.415-1.665c-0.284-0.247-0.587-0.469-0.907-0.663-0.317-0.188-0.649-0.35-0.991-0.484l-1.225 1.254c-0.055 0.055-0.122 0.096-0.195 0.12s-0.151 0.031-0.227 0.019c-0.566-0.106-1.145-0.106-1.711 0-0.075 0.011-0.151 0.004-0.223-0.020s-0.137-0.065-0.191-0.119l-1.212-1.201c-0.343 0.134-0.674 0.296-0.991 0.484-0.318 0.195-0.619 0.417-0.901 0.664l0.408 1.665c0.019 0.075 0.021 0.154 0.005 0.23s-0.049 0.147-0.096 0.208c-0.353 0.45-0.631 0.957-0.823 1.499-0.028 0.072-0.071 0.137-0.127 0.188s-0.124 0.089-0.197 0.11l-1.62 0.471c-0.121 0.742-0.121 1.5 0 2.243l1.62 0.471c0.073 0.020 0.14 0.058 0.197 0.11s0.1 0.116 0.127 0.189c0.199 0.554 0.489 1.070 0.855 1.526 0.048 0.060 0.081 0.132 0.097 0.208s0.014 0.155-0.006 0.23l-0.408 1.665c0.281 0.247 0.583 0.469 0.901 0.663 0.317 0.188 0.649 0.35 0.991 0.484l1.212-1.201c0.054-0.054 0.119-0.095 0.191-0.119s0.148-0.031 0.223-0.020c0.566 0.106 1.145 0.106 1.711 0l0.065-0.033z"></path>
<path fill="#08bd7f" d="M20.866 18.25c-0.487-0.001-0.962-0.15-1.366-0.428s-0.719-0.672-0.904-1.133c-0.185-0.461-0.233-0.968-0.137-1.456s0.331-0.937 0.675-1.289c0.345-0.352 0.783-0.591 1.261-0.688s0.972-0.046 1.422 0.145 0.834 0.514 1.104 0.929c0.27 0.414 0.415 0.902 0.415 1.4 0 0.332-0.064 0.66-0.188 0.966s-0.306 0.585-0.535 0.819c-0.229 0.234-0.502 0.42-0.801 0.546s-0.62 0.191-0.944 0.19zM20.866 14.202c-0.294 0.001-0.582 0.092-0.826 0.26s-0.434 0.407-0.546 0.686-0.14 0.586-0.082 0.881c0.058 0.296 0.201 0.567 0.409 0.78s0.474 0.358 0.763 0.416c0.289 0.058 0.588 0.028 0.86-0.088s0.504-0.311 0.668-0.562c0.163-0.251 0.251-0.546 0.251-0.847 0-0.201-0.039-0.4-0.114-0.585s-0.186-0.354-0.325-0.496c-0.139-0.142-0.304-0.254-0.486-0.33s-0.376-0.115-0.572-0.114z"></path>
<path fill="#f9fbfc" d="M19.817 22.476l-5.534-7.564v-7.962h-4.536v7.962l-5.547 7.564c-0.283 0.394-0.455 0.861-0.495 1.349s0.052 0.977 0.267 1.415c0.215 0.438 0.543 0.806 0.949 1.064s0.874 0.396 1.352 0.399h11.483c0.477-0.005 0.943-0.145 1.348-0.404s0.731-0.627 0.944-1.064c0.213-0.437 0.304-0.926 0.263-1.412s-0.212-0.952-0.495-1.346z"></path>
<path fill="#3c4852" d="M17.752 27.199h-11.483c-0.569-0-1.127-0.163-1.612-0.469s-0.876-0.744-1.132-1.265c-0.255-0.521-0.364-1.104-0.315-1.685s0.256-1.136 0.596-1.604l5.443-7.431v-7.829c0-0.132 0.051-0.259 0.142-0.352s0.215-0.146 0.344-0.146h4.536c0.128 0.002 0.251 0.055 0.342 0.148s0.143 0.219 0.144 0.35v7.829l5.437 7.431c0.342 0.466 0.55 1.020 0.602 1.601s-0.056 1.164-0.31 1.686c-0.254 0.521-0.645 0.96-1.129 1.267s-1.042 0.469-1.611 0.47h0.006zM10.222 7.413v7.498c0.002 0.108-0.033 0.213-0.097 0.299l-5.541 7.564c-0.232 0.32-0.372 0.699-0.405 1.096s0.041 0.795 0.216 1.151 0.442 0.655 0.773 0.864c0.331 0.209 0.712 0.32 1.101 0.32h11.483c0.389-0 0.77-0.111 1.1-0.321s0.598-0.509 0.771-0.865c0.174-0.356 0.247-0.755 0.212-1.151s-0.177-0.775-0.411-1.093l-5.534-7.564c-0.064-0.085-0.099-0.191-0.097-0.299v-7.498h-3.571z"></path>
<path fill="#3c4852" d="M14.733 5.795h-5.45c-0.129 0-0.253-0.052-0.344-0.146s-0.142-0.22-0.142-0.352c0-0.132 0.051-0.259 0.142-0.352s0.215-0.146 0.344-0.146h5.45c0.129 0 0.252 0.052 0.344 0.146s0.142 0.22 0.142 0.352-0.051 0.259-0.142 0.352c-0.091 0.093-0.215 0.146-0.344 0.146z"></path>
<path fill="#08bd7f" d="M17.544 24.625h-2.812c-0.129 0-0.252-0.052-0.344-0.146s-0.142-0.22-0.142-0.352 0.051-0.259 0.142-0.352c0.091-0.093 0.215-0.146 0.344-0.146h2.812c0.129 0 0.253 0.052 0.344 0.146s0.142 0.22 0.142 0.352-0.051 0.259-0.142 0.352c-0.091 0.093-0.215 0.146-0.344 0.146z"></path>
<path fill="#08bd7f" d="M13.435 24.625h-6.966c-0.129 0-0.253-0.052-0.344-0.146s-0.142-0.22-0.142-0.352c0-0.132 0.051-0.259 0.142-0.352s0.215-0.146 0.344-0.146h6.966c0.129 0 0.252 0.052 0.344 0.146s0.142 0.22 0.142 0.352-0.051 0.259-0.142 0.352c-0.091 0.093-0.215 0.146-0.344 0.146z"></path>
<path fill="#08bd7f" d="M15.987 22.197h-3.985c-0.129 0-0.252-0.052-0.344-0.146s-0.142-0.22-0.142-0.352 0.051-0.259 0.142-0.352c0.091-0.093 0.215-0.146 0.344-0.146h3.985c0.129 0 0.252 0.052 0.344 0.146s0.142 0.22 0.142 0.352-0.051 0.259-0.142 0.352c-0.091 0.093-0.215 0.146-0.344 0.146z"></path>
<path fill="#08bd7f" d="M9.656 22.197h-1.607c-0.129 0-0.253-0.052-0.344-0.146s-0.142-0.22-0.142-0.352 0.051-0.259 0.142-0.352c0.091-0.093 0.215-0.146 0.344-0.146h1.607c0.129 0 0.253 0.052 0.344 0.146s0.142 0.22 0.142 0.352-0.051 0.259-0.142 0.352c-0.091 0.093-0.215 0.146-0.344 0.146z"></path>
</svg>
