<svg width="98" height="88" viewBox="0 0 98 88" fill="none" xmlns="http://www.w3.org/2000/svg">
<g style="mix-blend-mode:multiply" opacity="0.6">
<path d="M0.741063 9.36484C5.31298 37.4137 30.4446 58.8645 60.7621 58.8645C90.7728 58.8645 115.702 37.8456 120.638 10.2143C121.27 7.62005 121.531 5.54811 121.452 3.77296C121.452 1.73923 119.943 0.1604 117.852 0.1604L114.46 0.1604L7.63397 0.1604L3.72438 0.1604C1.63498 0.1604 0.127572 1.73686 0.125307 3.76837C0.120645 3.7682 0.115986 3.76802 0.111328 3.76784C0.114179 3.81328 0.117084 3.8587 0.120042 3.90411C0.0655104 5.45029 0.266248 7.22208 0.741062 9.36484L0.741063 9.36484Z" fill="#F0F4F7"/>
<path d="M90.5894 94.793C88.3035 80.7686 75.7377 70.0432 60.5789 70.0432C45.5736 70.0432 33.109 80.5527 30.641 94.3683C30.325 95.6654 30.1943 96.7014 30.2342 97.589C30.2342 98.6058 30.9883 99.3953 32.0337 99.3953H33.7297L87.143 99.3953H89.0978C90.1425 99.3953 90.8962 98.607 90.8973 97.5913C90.8996 97.5914 90.902 97.5915 90.9043 97.5915C90.9029 97.5688 90.9014 97.5461 90.8999 97.5234C90.9272 96.7503 90.8268 95.8644 90.5894 94.793Z" fill="#F0F4F7"/>
</g>
</svg>
