<!-- Generated by IcoMoon.io -->
<svg version="1.1" xmlns="http://www.w3.org/2000/svg" width="32" height="32" viewBox="0 0 32 32">
<title>added-to-list</title>
<path d="M25.333 10.333h-18.667c-0.552 0-1-0.448-1-1s0.448-1 1-1v0h18.667c0.552 0 1 0.448 1 1s-0.448 1-1 1v0zM14 23.667h-7.333c-0.552 0-1-0.448-1-1s0.448-1 1-1v0h7.333c0.552 0 1 0.448 1 1s-0.448 1-1 1v0zM14 17h-7.333c-0.552 0-1-0.448-1-1s0.448-1 1-1v0h7.333c0.552 0 1 0.448 1 1s-0.448 1-1 1v0zM19.6 23.667c-0.001 0-0.003 0-0.005 0-0.275 0-0.523-0.112-0.702-0.293l-2.667-2.667c-0.196-0.183-0.318-0.443-0.318-0.732 0-0.552 0.448-1 1-1 0.289 0 0.549 0.122 0.731 0.318l0.001 0.001 2 2 5.067-5.067c0.183-0.196 0.443-0.318 0.732-0.318 0.552 0 1 0.448 1 1 0 0.289-0.122 0.549-0.318 0.731l-0.001 0.001-5.773 5.773c-0.175 0.159-0.408 0.257-0.664 0.257-0.029 0-0.058-0.001-0.086-0.004l0.004 0z"></path>
</svg>
