<!-- Generated by IcoMoon.io -->
<svg version="1.1" xmlns="http://www.w3.org/2000/svg" width="32" height="32" viewBox="0 0 32 32">
<title>arrow-down</title>
<path d="M16.747 27.453l8-8.080c0.276-0.181 0.456-0.489 0.456-0.839 0-0.552-0.448-1-1-1-0.37 0-0.694 0.201-0.867 0.501l-0.003 0.005-6.333 6.387v-19c0-0.552-0.448-1-1-1s-1 0.448-1 1v0 18.893l-6.333-6.28c-0.181-0.181-0.431-0.292-0.707-0.292s-0.526 0.112-0.707 0.292v0c-0.181 0.183-0.294 0.435-0.294 0.713s0.112 0.53 0.294 0.713l-0-0 8.080 8c0.181 0.181 0.431 0.293 0.707 0.293h0c0.276-0.011 0.524-0.126 0.707-0.307l-0 0z"></path>
</svg>
