<!-- Generated by IcoMoon.io -->
<svg version="1.1" xmlns="http://www.w3.org/2000/svg" width="32" height="32" viewBox="0 0 32 32">
<title>arrow-forward</title>
<path d="M27.453 15.253l-8.080-8c-0.181-0.276-0.489-0.456-0.839-0.456-0.552 0-1 0.448-1 1 0 0.37 0.201 0.694 0.501 0.867l0.005 0.003 6.387 6.333h-19c-0.552 0-1 0.448-1 1s0.448 1 1 1v0h18.893l-6.28 6.333c-0.181 0.181-0.292 0.431-0.292 0.707s0.112 0.526 0.292 0.707v0c0.183 0.181 0.435 0.294 0.713 0.294s0.53-0.112 0.713-0.294l-0 0 8-8.080c0.181-0.181 0.293-0.431 0.293-0.707v-0c-0.011-0.276-0.126-0.524-0.307-0.707l0 0z"></path>
</svg>
