<!-- Generated by IcoMoon.io -->
<svg version="1.1" xmlns="http://www.w3.org/2000/svg" width="32" height="32" viewBox="0 0 32 32">
<title>calendar-filled</title>
<path d="M26.667 5.653h-2.227v-1.653c0-0.552-0.448-1-1-1s-1 0.448-1 1v0 1.653h-13v-1.653c0-0.552-0.448-1-1-1s-1 0.448-1 1v0 1.653h-2.107c-0.554 0.008-1 0.458-1 1.013 0 0 0 0 0 0v0 4.72h23.333v-4.72c0-0 0-0 0-0 0-0.555-0.446-1.006-0.999-1.013h-0.001zM4.333 13.333v14.667c0.007 0.549 0.451 0.993 0.999 1h21.334c0.549-0.007 0.993-0.451 1-0.999v-14.667zM10.907 18.667h-1.333c-0.552 0-1-0.448-1-1s0.448-1 1-1v0h1.333c0.552 0 1 0.448 1 1s-0.448 1-1 1v0zM16.667 18.667h-1.333c-0.552 0-1-0.448-1-1s0.448-1 1-1v0h1.333c0.552 0 1 0.448 1 1s-0.448 1-1 1v0zM22.667 18.667h-1.333c-0.552 0-1-0.448-1-1s0.448-1 1-1v0h1.333c0.552 0 1 0.448 1 1s-0.448 1-1 1v0z"></path>
</svg>
