<!-- Generated by IcoMoon.io -->
<svg version="1.1" xmlns="http://www.w3.org/2000/svg" width="32" height="32" viewBox="0 0 32 32">
<title>dedications</title>
<path d="M28.88 13.333c-0-0.405-0.245-0.752-0.594-0.904l-0.006-0.002-11.88-5.213c-0.117-0.057-0.255-0.090-0.4-0.090s-0.283 0.033-0.406 0.093l-11.874 5.211c-0.352 0.16-0.593 0.508-0.593 0.913s0.241 0.753 0.587 0.911l0.006 0.003 3.36 1.48 0.92 6.32c0.051 0.316 0.24 0.579 0.502 0.731l0.005 0.003c2.124 1.177 4.631 1.933 7.299 2.091l0.048 0.002c2.807-0.185 5.4-0.933 7.723-2.131l-0.11 0.051c0.283-0.148 0.485-0.419 0.533-0.741l0.001-0.005 0.92-6.32 1.813-0.8v2.467c0 0.552 0.448 1 1 1s1-0.448 1-1v0-3.547c0.091-0.148 0.145-0.328 0.147-0.52v-0zM22.093 21.24c-1.82 0.903-3.945 1.492-6.191 1.637l-0.049 0.003c-2.192-0.132-4.22-0.718-6.029-1.666l0.082 0.039-0.667-4.573 6.36 2.787c0.112 0.059 0.244 0.093 0.385 0.093 0.005 0 0.010-0 0.016-0h-0.001c0.002 0 0.004 0 0.006 0 0.144 0 0.28-0.035 0.399-0.096l-0.005 0.002 6.36-2.787zM16 17.467l-9.333-4.133 9.333-4.12 9.4 4.12z"></path>
</svg>
