<!-- Generated by IcoMoon.io -->
<svg version="1.1" xmlns="http://www.w3.org/2000/svg" width="32" height="32" viewBox="0 0 32 32">
<title>discussion-closed</title>
<path d="M25.4 7.013h-18.733c-0.020-0.001-0.044-0.001-0.067-0.001-1.252 0-2.267 1.015-2.267 2.267 0 0.019 0 0.038 0.001 0.057l-0-0.003v18.867c-0 0.008-0 0.018-0 0.027 0 0.538 0.436 0.973 0.973 0.973 0.010 0 0.019-0 0.028-0l-0.001 0c0.231-0.001 0.443-0.076 0.616-0.202l-0.003 0.002 5.173-4h14.28c1.252 0 2.267-1.015 2.267-2.267v0-13.4c0-0.016 0.001-0.035 0.001-0.053 0-1.252-1.015-2.267-2.267-2.267-0 0-0 0-0.001 0h0zM25.667 22.747c0 0.147-0.119 0.267-0.267 0.267h-14.667c-0.232 0.002-0.446 0.082-0.616 0.215l0.002-0.002-3.787 2.947v-16.84c0-0.147 0.119-0.267 0.267-0.267h18.8c0.147 0 0.267 0.119 0.267 0.267v0zM19.373 12.627c-0.181-0.181-0.431-0.292-0.707-0.292s-0.526 0.112-0.707 0.292v0l-1.96 1.96-1.96-1.96c-0.178-0.166-0.418-0.268-0.682-0.268-0.552 0-1 0.448-1 1 0 0.264 0.102 0.504 0.269 0.682l-0.001-0.001 1.96 1.96-1.96 1.96c-0.181 0.181-0.292 0.431-0.292 0.707s0.112 0.526 0.292 0.707v0c0.181 0.181 0.431 0.292 0.707 0.292s0.526-0.112 0.707-0.292v0l1.96-1.96 1.96 1.96c0.181 0.181 0.431 0.292 0.707 0.292s0.526-0.112 0.707-0.292v0c0.181-0.181 0.292-0.431 0.292-0.707s-0.112-0.526-0.292-0.707v0l-1.96-1.96 1.96-1.96c0.181-0.181 0.292-0.431 0.292-0.707s-0.112-0.526-0.292-0.707v0z"></path>
</svg>
