<!-- Generated by IcoMoon.io -->
<svg version="1.1" xmlns="http://www.w3.org/2000/svg" width="32" height="32" viewBox="0 0 32 32">
<title>help-filled</title>
<path d="M24.533 4.333h-17.067c-1.731 0-3.133 1.403-3.133 3.133v0 19.2c0 0.002-0 0.004-0 0.007 0 0.41 0.25 0.762 0.607 0.911l0.007 0.002c0.114 0.050 0.247 0.079 0.386 0.080h0c0.276-0.003 0.524-0.115 0.707-0.294l4-4h14.493c1.73 0 3.133-1.403 3.133-3.133v0-12.773c0-1.731-1.403-3.133-3.133-3.133v0zM16.707 17.96c-0.178 0.187-0.429 0.304-0.707 0.304s-0.529-0.117-0.706-0.304l-0-0c-0.176-0.179-0.286-0.423-0.293-0.692l-0-0.001c0-0.001 0-0.002 0-0.003 0-0.139 0.029-0.271 0.082-0.39l-0.002 0.006c0.053-0.124 0.125-0.23 0.214-0.32l-0 0c0.182-0.178 0.432-0.287 0.707-0.287s0.524 0.11 0.707 0.287l-0-0c0.093 0.087 0.166 0.194 0.211 0.314l0.002 0.006c0.051 0.113 0.080 0.245 0.080 0.384 0 0.001 0 0.002 0 0.003v-0c-0.001 0.272-0.113 0.517-0.293 0.693l-0 0zM17 13.827c0 0.552-0.448 1-1 1s-1-0.448-1-1v0-3.427c0-0.552 0.448-1 1-1s1 0.448 1 1v0z"></path>
</svg>
