<!-- Generated by IcoMoon.io -->
<svg version="1.1" xmlns="http://www.w3.org/2000/svg" width="32" height="32" viewBox="0 0 32 32">
<title>home-new</title>
<path d="M29.96 13.867l-13.333-10.827c-0.168-0.142-0.387-0.229-0.627-0.229s-0.459 0.086-0.628 0.23l0.001-0.001-13.333 10.827c-0.225 0.187-0.368 0.468-0.368 0.781 0 0.24 0.083 0.46 0.223 0.634l-0.002-0.002c0.185 0.225 0.463 0.367 0.774 0.367 0.238 0 0.456-0.083 0.628-0.222l-0.002 0.001 1.333-1.093v13.853c0.007 0.549 0.451 0.993 0.999 1h9.334v-9.867c0-0.552 0.448-1 1-1s1 0.448 1 1v0 9.867h9.333c0.549-0.007 0.993-0.451 1-0.999v-13.854l1.333 1.093c0.162 0.116 0.365 0.185 0.584 0.185 0.297 0 0.564-0.128 0.749-0.331l0.001-0.001c0.178-0.182 0.287-0.432 0.287-0.707s-0.11-0.524-0.287-0.707l0 0zM16.933 14.813c-0.117 0.24-0.306 0.43-0.54 0.544l-0.007 0.003c-0.115 0.041-0.248 0.065-0.386 0.067h-0.001c-0.134-0.002-0.262-0.026-0.381-0.069l0.008 0.003c-0.13-0.055-0.241-0.131-0.333-0.226l-0-0c-0.088-0.090-0.16-0.196-0.211-0.313l-0.003-0.007c-0.051-0.113-0.080-0.245-0.080-0.384 0-0.001 0-0.002 0-0.003v0c0-0.001 0-0.002 0-0.004 0-0.134 0.029-0.261 0.082-0.375l-0.002 0.006c0.095-0.254 0.292-0.451 0.54-0.545l0.006-0.002c0.111-0.046 0.24-0.072 0.375-0.072 0.274 0 0.523 0.109 0.705 0.286l-0-0c0.096 0.089 0.169 0.202 0.212 0.328l0.002 0.006c0.051 0.109 0.080 0.236 0.080 0.37 0 0.001 0 0.003 0 0.004v-0c-0.002 0.139-0.026 0.272-0.069 0.395l0.003-0.009z"></path>
</svg>
