<!-- Generated by IcoMoon.io -->
<svg version="1.1" xmlns="http://www.w3.org/2000/svg" width="32" height="32" viewBox="0 0 32 32">
<title>home-filled</title>
<path d="M28.627 14l-12-9.747c-0.17-0.137-0.389-0.221-0.627-0.221s-0.457 0.083-0.629 0.222l0.002-0.001-12 9.747c-0.225 0.187-0.368 0.468-0.368 0.781 0 0.24 0.083 0.46 0.223 0.634l-0.002-0.002c0.185 0.225 0.463 0.367 0.774 0.367 0.238 0 0.456-0.083 0.628-0.222l-0.002 0.001 1.053-0.893v12.267c-0.001 0.016-0.001 0.035-0.001 0.054 0 0.551 0.439 0.999 0.987 1.013l0.001 0h8.32v-9.013c0-0.552 0.448-1 1-1s1 0.448 1 1v0 9.013h8.347c0.552 0 1-0.448 1-1v0-12.333l1.053 0.853c0.17 0.137 0.389 0.221 0.627 0.221 0.553 0 1.001-0.448 1.001-1.001 0-0.315-0.145-0.595-0.372-0.779l-0.002-0.001zM16.933 14.96c-0.058 0.124-0.134 0.23-0.226 0.32l-0 0c-0.181 0.181-0.431 0.292-0.707 0.292s-0.526-0.112-0.707-0.292v0c-0.088-0.090-0.16-0.196-0.211-0.313l-0.003-0.007c-0.051-0.11-0.080-0.238-0.080-0.373 0-0.005 0-0.010 0-0.015v0.001c0.002-0.271 0.114-0.516 0.293-0.693l0-0c0.089-0.096 0.202-0.169 0.328-0.212l0.006-0.002c0.112-0.050 0.243-0.080 0.38-0.080s0.268 0.029 0.386 0.082l-0.006-0.002c0.126 0.048 0.233 0.121 0.32 0.213l0 0c0.179 0.177 0.291 0.422 0.293 0.693v0c-0 0.139-0.025 0.272-0.069 0.395l0.003-0.008z"></path>
</svg>
