<!-- Generated by IcoMoon.io -->
<svg version="1.1" xmlns="http://www.w3.org/2000/svg" width="32" height="32" viewBox="0 0 32 32">
<title>insights</title>
<path d="M27.24 7.013c-1.657 0-3 1.343-3 3v0c-0 0.009-0 0.020-0 0.030 0 0.475 0.113 0.923 0.314 1.32l-0.008-0.017-5.72 5.72c-0.355-0.168-0.771-0.267-1.21-0.267-0.001 0-0.002 0-0.003 0h0c-0.003 0-0.008-0-0.012-0-0.436 0-0.849 0.098-1.219 0.274l0.017-0.007-1.333-1.333c0.21-0.399 0.333-0.872 0.333-1.374 0-1.657-1.343-3-3-3s-3 1.343-3 3c0 0.014 0 0.028 0 0.043l-0-0.002c-0 0.014-0 0.030-0 0.046 0 0.47 0.113 0.913 0.315 1.304l-0.008-0.016-3.667 3.547c-0.376-0.185-0.818-0.294-1.285-0.294-0.017 0-0.034 0-0.050 0l0.003-0c-1.657 0-3 1.343-3 3s1.343 3 3 3c1.657 0 3-1.343 3-3v0c0-0.009 0-0.020 0-0.030 0-0.475-0.113-0.923-0.314-1.32l0.008 0.017 3.667-3.68c0.372 0.185 0.81 0.294 1.274 0.294 0.021 0 0.042-0 0.063-0.001l-0.003 0c0.445-0.001 0.866-0.099 1.245-0.274l-0.018 0.008 1.333 1.333c-0.206 0.387-0.329 0.845-0.333 1.332v0.001c-0 0.012-0 0.026-0 0.041 0 1.657 1.343 3 3 3s3-1.343 3-3c0-0.502-0.123-0.975-0.341-1.39l0.008 0.017 5.68-5.68c0.376 0.185 0.818 0.294 1.285 0.294 0.017 0 0.034-0 0.050-0l-0.003 0c1.657 0 3-1.343 3-3s-1.343-3-3-3v0zM4.76 23.013c-0.552 0-1-0.448-1-1s0.448-1 1-1c0.552 0 1 0.448 1 1v0c-0.015 0.541-0.457 0.973-1 0.973-0 0-0 0-0 0h0zM12.4 15.32c-0.004 0-0.009 0-0.013 0-0.545 0-0.987-0.442-0.987-0.987 0-0.005 0-0.009 0-0.014v0.001c0.008-0.395 0.25-0.732 0.594-0.878l0.006-0.002c0.116-0.063 0.253-0.102 0.398-0.107l0.002-0c0.122 0.007 0.236 0.036 0.339 0.082l-0.006-0.002h0.107l0.173 0.12 0.12 0.093c0.048 0.068 0.097 0.146 0.141 0.228l0.006 0.012c0.069 0.123 0.113 0.269 0.12 0.425l0 0.002c0 0.008 0 0.017 0 0.027 0 0.552-0.448 1-1 1-0 0-0 0-0 0h0zM18.52 20.16c-0.048 0.097-0.106 0.18-0.174 0.254l0.001-0.001-0.093 0.080-0.2 0.133h-0.093c-0.103 0.041-0.222 0.065-0.346 0.067h-0.001c-0.13-0.002-0.253-0.026-0.367-0.069l0.007 0.002h-0.093l-0.2-0.133-0.093-0.080c-0.049-0.062-0.094-0.132-0.13-0.207l-0.003-0.007c-0.074-0.135-0.117-0.296-0.117-0.467 0-0.545 0.442-0.987 0.987-0.987 0.004 0 0.008 0 0.011 0h-0.001c0.549 0.007 0.993 0.451 1 0.999v0.001c-0.004 0.15-0.038 0.292-0.096 0.42l0.003-0.007zM27.24 11.013c-0.552 0-1-0.448-1-1s0.448-1 1-1c0.552 0 1 0.448 1 1v0c-0.007 0.549-0.451 0.993-0.999 1h-0.001z"></path>
</svg>
