<!-- Generated by IcoMoon.io -->
<svg version="1.1" xmlns="http://www.w3.org/2000/svg" width="32" height="32" viewBox="0 0 32 32">
<title>invoices</title>
<path d="M16 29c-7.18 0-13-5.82-13-13s5.82-13 13-13c7.18 0 13 5.82 13 13v0c-0.008 7.177-5.823 12.992-12.999 13h-0.001zM16 5c-6.075 0-11 4.925-11 11s4.925 11 11 11c6.075 0 11-4.925 11-11v0c-0.008-6.072-4.928-10.992-10.999-11h-0.001zM13.413 12.387c-0.016 0.001-0.035 0.002-0.055 0.002-0.196 0-0.374-0.077-0.506-0.202l0 0c-0.116-0.124-0.187-0.29-0.187-0.473 0-0.002 0-0.005 0-0.007v0c0-0.001 0-0.003 0-0.004 0-0.18 0.071-0.343 0.187-0.463l-0 0c0.129-0.125 0.306-0.202 0.501-0.202 0.021 0 0.042 0.001 0.062 0.003l-0.003-0h5.173c0.016-0.001 0.035-0.002 0.055-0.002 0.196 0 0.374 0.077 0.506 0.202l-0-0c0.115 0.131 0.185 0.304 0.187 0.493v0c-0.004 0.176-0.074 0.335-0.187 0.454l0-0c-0.129 0.125-0.306 0.202-0.501 0.202-0.021 0-0.042-0.001-0.062-0.003l0.003 0h-1.693s0 0 0 0c0.173 0.095 0.322 0.206 0.454 0.334l-0.001-0.001c0.146 0.147 0.266 0.319 0.355 0.509l0.005 0.011h0.893c0.016-0.001 0.035-0.002 0.055-0.002 0.196 0 0.374 0.077 0.506 0.202l-0-0c0.115 0.131 0.185 0.304 0.187 0.493v0c-0.004 0.176-0.074 0.335-0.187 0.454l0-0c-0.129 0.125-0.306 0.202-0.501 0.202-0.021 0-0.042-0.001-0.062-0.003l0.003 0h-0.733c-0.041 0.397-0.16 0.759-0.341 1.081l0.007-0.014c-0.166 0.279-0.375 0.513-0.621 0.702l-0.006 0.004c-0.22 0.178-0.477 0.323-0.755 0.421l-0.018 0.006c-0.216 0.086-0.471 0.16-0.734 0.209l-0.026 0.004 2.573 2.347c0.095 0.097 0.179 0.207 0.249 0.325l0.004 0.008c0.067 0.109 0.107 0.241 0.107 0.382 0 0.011-0 0.022-0.001 0.033l0-0.002c0 0.010 0.001 0.022 0.001 0.034 0 0.229-0.098 0.435-0.254 0.578l-0.001 0c-0.159 0.149-0.374 0.241-0.61 0.241-0.015 0-0.030-0-0.045-0.001l0.002 0c-0.004 0-0.008 0-0.012 0-0.199 0-0.384-0.060-0.538-0.162l0.004 0.002c-0.175-0.111-0.328-0.23-0.468-0.362l0.002 0.002-2.973-2.8c-0.168-0.151-0.317-0.317-0.447-0.497l-0.006-0.009c-0.112-0.147-0.182-0.331-0.187-0.532l-0-0.001c0.003-0.231 0.099-0.438 0.253-0.586l0-0c0.161-0.141 0.373-0.227 0.605-0.227 0.012 0 0.024 0 0.036 0.001l-0.002-0h0.080c0.102 0.010 0.22 0.015 0.34 0.015s0.238-0.006 0.355-0.016l-0.015 0.001c0.236-0.043 0.447-0.107 0.645-0.194l-0.018 0.007c0.187-0.093 0.346-0.214 0.479-0.359l0.001-0.001c0.146-0.147 0.253-0.332 0.305-0.539l0.002-0.008h-2.427c-0.024 0.003-0.052 0.005-0.081 0.005-0.368 0-0.667-0.298-0.667-0.667 0-0.011 0-0.022 0.001-0.033l-0 0.002c0.001-0.177 0.072-0.336 0.187-0.453l-0 0c0.129-0.125 0.306-0.202 0.501-0.202 0.021 0 0.042 0.001 0.062 0.003l-0.003-0h2.36c-0.312-0.534-0.883-0.886-1.536-0.886-0.093 0-0.185 0.007-0.274 0.021l0.010-0.001z"></path>
</svg>
