<!-- Generated by IcoMoon.io -->
<svg version="1.1" xmlns="http://www.w3.org/2000/svg" width="32" height="32" viewBox="0 0 32 32">
<title>lessons</title>
<path d="M28.32 20.413l-5.88-3.4c-0.198-0.122-0.437-0.195-0.694-0.195-0.736 0-1.333 0.597-1.333 1.333 0 0.012 0 0.024 0 0.037l-0-0.002v6.8c0 0.736 0.597 1.333 1.333 1.333v0c0.251-0 0.486-0.069 0.686-0.19l-0.006 0.003 5.88-3.387c0.409-0.233 0.68-0.666 0.68-1.162 0-0.004-0-0.008-0-0.012v0.001c0-0.002 0-0.003 0-0.005 0-0.491-0.265-0.92-0.66-1.151l-0.006-0.003zM23.48 5.667h-17.627c-1.576 0-2.853 1.277-2.853 2.853v0 14.96c0 1.576 1.277 2.853 2.853 2.853h10.347c0.552 0 1-0.448 1-1s-0.448-1-1-1v0h-10.347c-0.471 0-0.853-0.382-0.853-0.853v0-14.96c0-0.471 0.382-0.853 0.853-0.853v0h17.627c0.471 0 0.853 0.382 0.853 0.853v0 3.227c0 0.552 0.448 1 1 1s1-0.448 1-1v0-3.227c0-1.576-1.277-2.853-2.853-2.853v0zM18.667 12.333h-9.333c-0.552 0-1 0.448-1 1s0.448 1 1 1v0h9.333c0.552 0 1-0.448 1-1s-0.448-1-1-1v0zM16 18.28h-6.667c-0.552 0-1 0.448-1 1s0.448 1 1 1v0h6.667c0.552 0 1-0.448 1-1s-0.448-1-1-1v0z"></path>
</svg>
