<!-- Generated by IcoMoon.io -->
<svg version="1.1" xmlns="http://www.w3.org/2000/svg" width="32" height="32" viewBox="0 0 32 32">
<title>my-goals</title>
<path d="M10.4 8.533c0 1.031-0.836 1.867-1.867 1.867s-1.867-0.836-1.867-1.867c0-1.031 0.836-1.867 1.867-1.867s1.867 0.836 1.867 1.867zM17.867 8.533c0 1.031-0.836 1.867-1.867 1.867s-1.867-0.836-1.867-1.867c0-1.031 0.836-1.867 1.867-1.867s1.867 0.836 1.867 1.867zM25.333 8.533c0 1.031-0.836 1.867-1.867 1.867s-1.867-0.836-1.867-1.867c0-1.031 0.836-1.867 1.867-1.867s1.867 0.836 1.867 1.867zM10.4 16c0 1.031-0.836 1.867-1.867 1.867s-1.867-0.836-1.867-1.867c0-1.031 0.836-1.867 1.867-1.867s1.867 0.836 1.867 1.867zM17.867 16c0 1.031-0.836 1.867-1.867 1.867s-1.867-0.836-1.867-1.867c0-1.031 0.836-1.867 1.867-1.867s1.867 0.836 1.867 1.867zM25.333 16c0 1.031-0.836 1.867-1.867 1.867s-1.867-0.836-1.867-1.867c0-1.031 0.836-1.867 1.867-1.867s1.867 0.836 1.867 1.867zM10.4 23.467c0 1.031-0.836 1.867-1.867 1.867s-1.867-0.836-1.867-1.867c0-1.031 0.836-1.867 1.867-1.867s1.867 0.836 1.867 1.867zM17.867 23.467c0 1.031-0.836 1.867-1.867 1.867s-1.867-0.836-1.867-1.867c0-1.031 0.836-1.867 1.867-1.867s1.867 0.836 1.867 1.867zM25.333 23.467c0 1.031-0.836 1.867-1.867 1.867s-1.867-0.836-1.867-1.867c0-1.031 0.836-1.867 1.867-1.867s1.867 0.836 1.867 1.867z"></path>
</svg>
