<!-- Generated by IcoMoon.io -->
<svg version="1.1" xmlns="http://www.w3.org/2000/svg" width="32" height="32" viewBox="0 0 32 32">
<title>notes</title>
<path d="M27.587 10.28c-0.053-0.124-0.125-0.23-0.214-0.32l-6.666-6.666c-0.090-0.088-0.196-0.16-0.313-0.211l-0.007-0.003c-0.113-0.051-0.245-0.080-0.384-0.080-0.001 0-0.002 0-0.003 0h-14.666c-0.549 0.007-0.993 0.451-1 0.999v24.001c0.007 0.549 0.451 0.993 0.999 1h21.334c0.549-0.007 0.993-0.451 1-0.999v-17.334c0-0.001 0-0.002 0-0.003 0-0.139-0.029-0.271-0.082-0.39l0.002 0.006zM21 6.413l3.253 3.253h-3.253zM6.333 27v-22h12.667v5.667c0.007 0.549 0.451 0.993 0.999 1h5.667v15.333zM22 15h-12c-0.552 0-1 0.448-1 1s0.448 1 1 1v0h12c0.552 0 1-0.448 1-1s-0.448-1-1-1v0zM18 20.333h-8c-0.552 0-1 0.448-1 1s0.448 1 1 1v0h8c0.552 0 1-0.448 1-1s-0.448-1-1-1v0z"></path>
</svg>
