<!-- Generated by IcoMoon.io -->
<svg version="1.1" xmlns="http://www.w3.org/2000/svg" width="32" height="32" viewBox="0 0 32 32">
<title>sound-on</title>
<path d="M15.827 7.347c-0.213-0.109-0.464-0.173-0.73-0.173-0.38 0-0.73 0.13-1.007 0.349l0.003-0.003-5.427 4.173h-3.333c-0.549 0.007-0.993 0.451-1 0.999v6.667c0.007 0.549 0.451 0.993 0.999 1h3.334l5.427 4.173c0.273 0.215 0.621 0.346 1 0.347h0c0.003 0 0.006 0 0.009 0 0.264 0 0.514-0.064 0.733-0.178l-0.009 0.004c0.549-0.273 0.92-0.83 0.92-1.474 0-0.002 0-0.005 0-0.007v0-14.4c0-0.002 0-0.004 0-0.007 0-0.644-0.371-1.201-0.91-1.469l-0.010-0.004zM18.987 20.493c0.179 0.173 0.424 0.28 0.693 0.28h0c0.002 0 0.003 0 0.005 0 0.281 0 0.535-0.118 0.715-0.306l0-0c1.114-1.156 1.801-2.731 1.801-4.467s-0.686-3.311-1.803-4.469l0.002 0.002c-0.163-0.12-0.368-0.192-0.589-0.192-0.552 0-1 0.448-1 1 0 0.194 0.055 0.376 0.151 0.529l-0.002-0.004c0.769 0.797 1.242 1.883 1.242 3.080s-0.473 2.283-1.243 3.081l0.001-0.001c-0.189 0.182-0.307 0.438-0.307 0.721 0 0.296 0.128 0.562 0.333 0.745l0.001 0.001zM20 4.893c-0.107-0.042-0.231-0.067-0.36-0.067-0.552 0-1 0.448-1 1 0 0.423 0.263 0.785 0.634 0.931l0.007 0.002c3.75 1.464 6.358 5.047 6.358 9.24s-2.608 7.776-6.29 9.217l-0.067 0.023c-0.378 0.148-0.641 0.51-0.641 0.933 0 0.552 0.448 1 1 1 0 0 0.001 0 0.001 0h-0c0.008 0 0.017 0 0.026 0 0.121 0 0.236-0.025 0.34-0.069l-0.006 0.002c4.494-1.771 7.616-6.074 7.616-11.107s-3.122-9.336-7.535-11.079l-0.081-0.028z"></path>
</svg>
