<!-- Generated by IcoMoon.io -->
<svg version="1.1" xmlns="http://www.w3.org/2000/svg" width="32" height="32" viewBox="0 0 32 32">
<title>star-outline</title>
<path d="M23.413 28.413c-0.171-0-0.332-0.045-0.472-0.123l0.005 0.003-6.947-3.653-6.947 3.653c-0.15 0.094-0.332 0.15-0.527 0.15s-0.377-0.056-0.531-0.152l0.004 0.002c-0.252-0.187-0.414-0.483-0.414-0.817 0-0.060 0.005-0.118 0.015-0.175l-0.001 0.006 1.333-7.733-5.627-5.547c-0.188-0.182-0.304-0.436-0.304-0.718 0-0.5 0.366-0.913 0.845-0.988l0.006-0.001 7.773-1.133 3.48-7.040c0.185-0.306 0.515-0.507 0.893-0.507s0.709 0.201 0.891 0.503l0.003 0.005 3.48 7.040 7.773 1.133c0.378 0.059 0.682 0.323 0.798 0.673l0.002 0.007c0.032 0.094 0.051 0.201 0.051 0.314 0 0.28-0.117 0.533-0.304 0.713l-0 0-5.613 5.48 1.333 7.733c0.010 0.052 0.015 0.112 0.015 0.173 0 0.552-0.448 1-1 1-0.001 0-0.001 0-0.002 0h0zM6.147 14l4.52 4.44c0.189 0.18 0.307 0.434 0.307 0.715 0 0.058-0.005 0.115-0.015 0.171l0.001-0.006-1.080 6.267 5.653-2.92c0.136-0.070 0.296-0.111 0.467-0.111s0.331 0.041 0.473 0.113l-0.006-0.003 5.627 2.96-1.080-6.267c-0.009-0.049-0.014-0.106-0.014-0.165 0-0.281 0.118-0.535 0.307-0.715l0-0 4.547-4.44-6.293-0.907c-0.329-0.054-0.6-0.259-0.744-0.541l-0.003-0.006-2.813-5.733-2.813 5.693c-0.146 0.287-0.418 0.493-0.741 0.546l-0.006 0.001z"></path>
</svg>
