<!-- Generated by IcoMoon.io -->
<svg version="1.1" xmlns="http://www.w3.org/2000/svg" width="32" height="32" viewBox="0 0 32 32">
<title>time</title>
<path d="M16 29c-7.18 0-13-5.82-13-13s5.82-13 13-13c7.18 0 13 5.82 13 13v0c-0.008 7.177-5.823 12.992-12.999 13h-0.001zM16 5c-6.075 0-11 4.925-11 11s4.925 11 11 11c6.075 0 11-4.925 11-11v0c-0.008-6.072-4.928-10.992-10.999-11h-0.001zM20.947 21.947c-0.001 0-0.003 0-0.005 0-0.275 0-0.523-0.112-0.702-0.293l-4.947-4.947c-0.181-0.181-0.293-0.431-0.293-0.707v-7.387c0-0.552 0.448-1 1-1s1 0.448 1 1v0 6.973l4.653 4.653c0.181 0.181 0.292 0.431 0.292 0.707s-0.112 0.526-0.292 0.707v0c-0.179 0.181-0.427 0.293-0.702 0.293-0.002 0-0.003 0-0.005 0h0z"></path>
</svg>
