<!-- Generated by IcoMoon.io -->
<svg version="1.1" xmlns="http://www.w3.org/2000/svg" width="32" height="32" viewBox="0 0 32 32">
<title>add-circle-outline</title>
<path d="M16 3c-7.18 0-13 5.82-13 13s5.82 13 13 13c7.18 0 13-5.82 13-13v0c-0.008-7.177-5.823-12.992-12.999-13h-0.001zM16 27c-6.075 0-11-4.925-11-11s4.925-11 11-11c6.075 0 11 4.925 11 11v0c-0.008 6.072-4.928 10.992-10.999 11h-0.001zM21.333 15h-4.333v-4.333c0-0.552-0.448-1-1-1s-1 0.448-1 1v0 4.333h-4.333c-0.552 0-1 0.448-1 1s0.448 1 1 1v0h4.333v4.333c0 0.552 0.448 1 1 1s1-0.448 1-1v0-4.333h4.333c0.552 0 1-0.448 1-1s-0.448-1-1-1v0z"></path>
</svg>
