<!-- Generated by IcoMoon.io -->
<svg version="1.1" xmlns="http://www.w3.org/2000/svg" width="32" height="32" viewBox="0 0 32 32">
<title>add-to-list</title>
<path d="M6.667 10.333h18.667c0.552 0 1-0.448 1-1s-0.448-1-1-1v0h-18.667c-0.552 0-1 0.448-1 1s0.448 1 1 1v0zM14 21.667h-7.333c-0.552 0-1 0.448-1 1s0.448 1 1 1v0h7.333c0.552 0 1-0.448 1-1s-0.448-1-1-1v0zM14 15h-7.333c-0.552 0-1 0.448-1 1s0.448 1 1 1v0h7.333c0.552 0 1-0.448 1-1s-0.448-1-1-1v0zM25.333 18.213h-2.453v-2.467c0-0.552-0.448-1-1-1s-1 0.448-1 1v0 2.467h-2.467c-0.552 0-1 0.448-1 1s0.448 1 1 1v0h2.467v2.453c0 0.552 0.448 1 1 1s1-0.448 1-1v0-2.453h2.453c0.552 0 1-0.448 1-1s-0.448-1-1-1v0z"></path>
</svg>
