<!-- Generated by IcoMoon.io -->
<svg version="1.1" xmlns="http://www.w3.org/2000/svg" width="32" height="32" viewBox="0 0 32 32">
<title>added-to-calendar</title>
<path d="M26.667 4.333h-3v-1.667c0-0.552-0.448-1-1-1s-1 0.448-1 1v0 1.667h-11.333v-1.667c0-0.552-0.448-1-1-1s-1 0.448-1 1v0 1.667h-3c-0.552 0-1 0.448-1 1v0 21.333c0 0.552 0.448 1 1 1v0h21.333c0.552 0 1-0.448 1-1v0-21.333c0-0.552-0.448-1-1-1v0zM25.667 25.667h-19.333v-19.333h2v1.667c0 0.552 0.448 1 1 1s1-0.448 1-1v0-1.667h11.333v1.667c0 0.552 0.448 1 1 1s1-0.448 1-1v0-1.667h2zM20.627 11.733l-6.413 6.413-2.84-2.827c-0.179-0.184-0.43-0.298-0.707-0.298s-0.527 0.114-0.706 0.298l-0 0c-0.181 0.181-0.292 0.431-0.292 0.707s0.112 0.526 0.292 0.707v0l3.533 3.533c0.183 0.181 0.435 0.294 0.713 0.294s0.53-0.112 0.713-0.294l7.12-7.12c0.181-0.181 0.292-0.431 0.292-0.707s-0.112-0.526-0.292-0.707v0c-0.179-0.184-0.43-0.298-0.707-0.298s-0.527 0.114-0.706 0.298l-0 0z"></path>
</svg>
