<!-- Generated by IcoMoon.io -->
<svg version="1.1" xmlns="http://www.w3.org/2000/svg" width="32" height="32" viewBox="0 0 32 32">
<title>added-to-calendar-filled</title>
<path d="M23.667 2.667c0-0.552-0.448-1-1-1s-1 0.448-1 1v0 1.667h2zM10.333 2.667c0-0.552-0.448-1-1-1s-1 0.448-1 1v0 1.667h2zM26.667 4.333h-3v1c0 0.552-0.448 1-1 1s-1-0.448-1-1v0-1h-11.333v1c0 0.552-0.448 1-1 1s-1-0.448-1-1v0-1h-3c-0.552 0-1 0.448-1 1v0 21.333c0 0.552 0.448 1 1 1v0h21.333c0.552 0 1-0.448 1-1v0-21.333c0-0.552-0.448-1-1-1v0zM22.040 13.147l-7.12 7.12c-0.183 0.181-0.435 0.294-0.713 0.294s-0.53-0.112-0.713-0.294l-3.533-3.533c-0.181-0.181-0.292-0.431-0.292-0.707s0.112-0.526 0.292-0.707v0c0.179-0.184 0.43-0.298 0.707-0.298s0.527 0.114 0.706 0.298l0 0 2.84 2.827 6.413-6.413c0.179-0.184 0.43-0.298 0.707-0.298s0.527 0.114 0.706 0.298l0 0c0.181 0.181 0.292 0.431 0.292 0.707s-0.112 0.526-0.292 0.707v0z"></path>
</svg>
