<!-- Generated by IcoMoon.io -->
<svg version="1.1" xmlns="http://www.w3.org/2000/svg" width="32" height="32" viewBox="0 0 32 32">
<title>arrow-drop-down</title>
<path d="M20.293 14.040c-0.093-0.228-0.313-0.387-0.57-0.387-0.001 0-0.002 0-0.004 0h-7.44c-0.001 0-0.002 0-0.003 0-0.257 0-0.477 0.158-0.568 0.383l-0.001 0.004c-0.018 0.055-0.028 0.119-0.028 0.184 0 0.174 0.072 0.33 0.188 0.442l0 0 3.707 3.467c0.114 0.099 0.263 0.159 0.427 0.159s0.313-0.060 0.427-0.159l-0.001 0.001 3.707-3.467c0.116-0.112 0.188-0.269 0.188-0.442 0-0.066-0.010-0.129-0.030-0.189l0.001 0.004z"></path>
</svg>
