<!-- Generated by IcoMoon.io -->
<svg version="1.1" xmlns="http://www.w3.org/2000/svg" width="32" height="32" viewBox="0 0 32 32">
<title>arrow-back</title>
<path d="M26.76 15h-18.907l6.28-6.333c0.181-0.181 0.292-0.431 0.292-0.707s-0.112-0.526-0.292-0.707v0c-0.181-0.181-0.431-0.292-0.707-0.292s-0.526 0.112-0.707 0.292v0l-8 8.080c-0.173 0.17-0.281 0.406-0.281 0.667 0 0.014 0 0.028 0.001 0.041l-0-0.002c0 0.276 0.112 0.526 0.293 0.707v0l8.080 8c0.177 0.181 0.424 0.293 0.696 0.293 0.004 0 0.007-0 0.011-0h-0.001c0.546-0.008 0.986-0.453 0.986-1 0-0.276-0.112-0.526-0.293-0.707v0l-6.4-6.333h18.947c0.552 0 1-0.448 1-1s-0.448-1-1-1v0z"></path>
</svg>
