<!-- Generated by IcoMoon.io -->
<svg version="1.1" xmlns="http://www.w3.org/2000/svg" width="32" height="32" viewBox="0 0 32 32">
<title>billing-info</title>
<path d="M26.973 28.12s0-0.080 0-0.12v-24c0.003-0.018 0.005-0.039 0.005-0.060s-0.002-0.042-0.005-0.062l0 0.002c0.004-0.032 0.006-0.069 0.006-0.107s-0.002-0.075-0.006-0.111l0 0.005c-0.025-0.066-0.056-0.123-0.095-0.175l0.001 0.002s0-0.080 0-0.12v0c-0.047-0.055-0.1-0.104-0.157-0.145l-0.003-0.002-0.147-0.093h-0.173c-0.030-0.006-0.065-0.009-0.1-0.009s-0.070 0.003-0.103 0.010l0.003-0.001h-0.133c-0.028-0.004-0.060-0.006-0.093-0.006s-0.065 0.002-0.097 0.006l0.004-0c-0.071 0.022-0.133 0.054-0.188 0.095l0.002-0.001h-0.12l-2.907 2.107-2.667-2.12c-0.172-0.131-0.39-0.21-0.627-0.21s-0.455 0.079-0.629 0.212l0.003-0.002-2.747 2.12-2.667-2.12c-0.17-0.13-0.386-0.208-0.62-0.208s-0.45 0.078-0.623 0.21l0.002-0.002-2.76 2.12-2.667-2.12h-0.12l-0.213-0.147c-0.032-0.004-0.069-0.006-0.107-0.006s-0.075 0.002-0.111 0.006l0.005-0h-0.12c-0.030-0.006-0.065-0.009-0.1-0.009s-0.070 0.003-0.103 0.010l0.003-0.001h-0.173l-0.147 0.107c-0.063 0.035-0.116 0.079-0.159 0.132l-0.001 0.001s0 0.080 0 0.12c-0.037 0.050-0.068 0.107-0.092 0.168l-0.002 0.005c-0.004 0.032-0.006 0.069-0.006 0.107s0.002 0.075 0.006 0.111l-0-0.005c-0.003 0.018-0.005 0.039-0.005 0.060s0.002 0.042 0.005 0.062l-0-0.002v24.067c-0.003 0.018-0.005 0.039-0.005 0.060s0.002 0.042 0.005 0.062l-0-0.002c-0.004 0.032-0.006 0.069-0.006 0.107s0.002 0.075 0.006 0.111l-0-0.005c0.025 0.066 0.056 0.123 0.095 0.175l-0.001-0.002s0 0.080 0 0.12v0c0.074 0.076 0.157 0.142 0.248 0.197l0.005 0.003h0.080c0.121 0.055 0.263 0.089 0.412 0.093l0.002 0c0.13-0.003 0.253-0.027 0.368-0.069l-0.008 0.003 0.12-0.067h0.12l2.667-2.12 2.667 2.173c0.172 0.131 0.39 0.21 0.627 0.21s0.455-0.079 0.629-0.212l-0.003 0.002 2.747-2.173 2.667 2.173c0.17 0.13 0.386 0.208 0.62 0.208s0.45-0.078 0.622-0.21l-0.003 0.002 2.76-2.173 2.667 2.16s0.080 0 0.12 0.067l0.173 0.093c0.032 0.006 0.069 0.010 0.107 0.010s0.075-0.003 0.11-0.010l-0.004 0.001h0.493l0.16-0.107c0.056-0.038 0.104-0.082 0.146-0.132l0.001-0.001s0 0 0 0 0-0.080 0.067-0.12c0.037-0.050 0.068-0.107 0.092-0.168l0.002-0.005c0.075-0.095 0.134-0.206 0.171-0.326l0.002-0.007zM22.053 24.547l-2.667 2.173-2.667-2.173c-0.172-0.131-0.39-0.21-0.627-0.21s-0.455 0.079-0.629 0.212l0.003-0.002-2.787 2.12-2.667-2.173c-0.17-0.13-0.386-0.208-0.62-0.208s-0.45 0.078-0.623 0.21l0.002-0.002-1.72 1.333v-19.747l1.707 1.333c0.168 0.136 0.384 0.219 0.62 0.219s0.452-0.083 0.622-0.221l-0.002 0.001 2.653-2.080 2.667 2.173c0.172 0.131 0.39 0.21 0.627 0.21s0.455-0.079 0.629-0.212l-0.003 0.002 2.667-2.173 2.667 2.173c0.167 0.133 0.38 0.213 0.613 0.213 0.005 0 0.010-0 0.015-0h-0.001c0.003 0 0.006 0 0.010 0 0.229 0 0.44-0.080 0.605-0.215l-0.002 0.001 1.72-1.333v19.747l-1.707-1.333c-0.162-0.117-0.364-0.188-0.583-0.188-0.194 0-0.374 0.055-0.527 0.15l0.004-0.002zM22.253 13.667h-12.507c-0.552 0-1-0.448-1-1s0.448-1 1-1v0h12.507c0.552 0 1 0.448 1 1s-0.448 1-1 1v0zM22.253 20.333h-12.507c-0.552 0-1-0.448-1-1s0.448-1 1-1v0h12.507c0.552 0 1 0.448 1 1s-0.448 1-1 1v0z"></path>
</svg>
