<!-- Generated by IcoMoon.io -->
<svg version="1.1" xmlns="http://www.w3.org/2000/svg" width="32" height="32" viewBox="0 0 32 32">
<title>call</title>
<path d="M16 3c-7.18 0-13 5.82-13 13s5.82 13 13 13c7.18 0 13-5.82 13-13v0c-0.008-7.177-5.823-12.992-12.999-13h-0.001zM22.667 19.653c-0.055 0.373-0.157 0.71-0.303 1.023l0.009-0.023c-0.099 0.168-0.214 0.313-0.346 0.439l-0.001 0.001c-0.147 0.133-0.293 0.213-0.44 0.36l-0.133 0.133c-0.147 0.147-0.293 0.147-0.507 0.293-0.314 0.161-0.683 0.262-1.074 0.28l-0.006 0h-0.707c-0.227-0.067-0.507-0.067-0.72-0.133-1.993-0.518-3.725-1.441-5.178-2.681l0.018 0.015c-0.176-0.259-0.365-0.486-0.573-0.693l-0-0-0.293-0.28c-1.087-1.021-1.982-2.231-2.635-3.581l-0.032-0.073-0.067-0.227c-0.208-0.467-0.334-1.010-0.347-1.582l-0-0.005c0.010-0.854 0.305-1.637 0.793-2.262l-0.006 0.008c0.147-0.147 0.213-0.28 0.36-0.427 0.165-0.101 0.304-0.198 0.438-0.302l-0.011 0.008 0.080-0.067c0.133 0 0.28 0 0.427 0h0.787c0.216 0.047 0.395 0.178 0.505 0.357l0.002 0.003c0.213 0.427 1.067 2.36 1.147 2.667 0.013 0.058 0.021 0.126 0.021 0.195 0 0.197-0.063 0.379-0.17 0.528l0.002-0.003c-0.147 0.133-0.213 0.347-0.36 0.493s-0.507 0.573-0.507 0.573c-0.045 0.081-0.072 0.178-0.072 0.281 0 0.028 0.002 0.055 0.006 0.082l-0-0.003c0.067 0.147 0.067 0.213 0.147 0.293l0.067 0.133c0.381 0.656 0.823 1.221 1.332 1.718l0.002 0.002c0.147 0.147 0.36 0.293 0.507 0.44 0.589 0.546 1.278 0.996 2.034 1.316l0.046 0.017 0.36 0.147c0.076 0.068 0.171 0.116 0.277 0.133l0.003 0h0.080c0.154-0.001 0.288-0.086 0.359-0.211l0.001-0.002 1.067-1.213c0.144-0.090 0.319-0.145 0.506-0.147h0.001c0.067 0 0.147 0.067 0.213 0.067 0.72 0.36 1.867 0.867 1.867 0.867l0.787 0.36c0.083 0.036 0.154 0.085 0.213 0.146l0 0z"></path>
</svg>
