<!-- Generated by IcoMoon.io -->
<svg version="1.1" xmlns="http://www.w3.org/2000/svg" width="32" height="32" viewBox="0 0 32 32">
<title>camera-off</title>
<path d="M27.867 27.293l-24-24c-0.178-0.166-0.418-0.268-0.682-0.268-0.552 0-1 0.448-1 1 0 0.264 0.102 0.504 0.269 0.682l-0.001-0.001 3.827 3.827h-1.107c-0.645 0.007-1.166 0.528-1.173 1.173v12.587c0.007 0.645 0.528 1.166 1.173 1.173h15.721c0.040 0.007 0.086 0.010 0.133 0.010s0.093-0.004 0.138-0.011l-0.005 0.001 5.333 5.333c0.181 0.181 0.431 0.292 0.707 0.292s0.526-0.112 0.707-0.292v0c0.199-0.183 0.323-0.445 0.323-0.736 0-0.309-0.141-0.586-0.361-0.769l-0.002-0.001zM28 21.507v-11.013c-0.002-0.473-0.282-0.879-0.686-1.064l-0.007-0.003c-0.143-0.065-0.31-0.103-0.485-0.103-0.299 0-0.573 0.109-0.783 0.291l0.002-0.001-4 3.467v-3.373c-0.008-0.65-0.536-1.173-1.187-1.173-0 0-0 0-0 0h-7.067l13.827 13.827c0.236-0.21 0.385-0.514 0.387-0.853v-0z"></path>
</svg>
