<!-- Generated by IcoMoon.io -->
<svg version="1.1" xmlns="http://www.w3.org/2000/svg" width="32" height="32" viewBox="0 0 32 32">
<title>camera-on-outline</title>
<path d="M21.427 24h-17.427c-0.549-0.007-0.993-0.451-1-0.999v-13.974c-0-0.004-0-0.009-0-0.013 0-0.555 0.446-1.006 0.999-1.013h17.427c0.552 0 1 0.448 1 1v0 4.413l4.92-4.293c0.176-0.152 0.408-0.245 0.661-0.245 0.147 0 0.287 0.031 0.413 0.088l-0.006-0.003c0.348 0.161 0.585 0.506 0.587 0.906v12.214c-0.002 0.401-0.239 0.746-0.58 0.904l-0.006 0.003c-0.121 0.057-0.262 0.090-0.411 0.090-0.252 0-0.482-0.095-0.657-0.25l0.001 0.001-4.92-4.293v4.413c0.001 0.016 0.001 0.035 0.001 0.053 0 0.552-0.448 1-1 1-0 0-0.001 0-0.002 0h0zM5 21.973h15.427v-5.627c-0.010-0.052-0.015-0.112-0.015-0.173s0.006-0.121 0.016-0.179l-0.001 0.006c-0.010-0.052-0.015-0.112-0.015-0.173s0.006-0.121 0.016-0.179l-0.001 0.006v-5.627h-15.427zM22.547 16l4.453 3.893v-7.787z"></path>
</svg>
