<!-- Generated by IcoMoon.io -->
<svg version="1.1" xmlns="http://www.w3.org/2000/svg" width="32" height="32" viewBox="0 0 32 32">
<title>camera-on</title>
<path d="M27.307 9.427c-0.143-0.065-0.31-0.103-0.485-0.103-0.299 0-0.573 0.109-0.783 0.291l0.002-0.001-4 3.467v-3.373c-0.008-0.65-0.536-1.173-1.187-1.173-0 0-0 0-0 0h-15.68c-0.645 0.007-1.166 0.528-1.173 1.173v12.587c0.007 0.645 0.528 1.166 1.173 1.173h15.721c0 0 0 0 0 0 0.651 0 1.179-0.524 1.187-1.173v-3.374l4 3.467c0.206 0.182 0.478 0.293 0.776 0.293 0.004 0 0.007-0 0.011-0h-0.001c0.174-0.004 0.339-0.043 0.488-0.11l-0.008 0.003c0.411-0.188 0.692-0.594 0.693-1.066v-11.014c-0.009-0.481-0.306-0.891-0.726-1.064l-0.008-0.003z"></path>
</svg>
