<!-- Generated by IcoMoon.io -->
<svg version="1.1" xmlns="http://www.w3.org/2000/svg" width="32" height="32" viewBox="0 0 32 32">
<title>camera-off-outline</title>
<path d="M28.413 8.987c-0.12-0.054-0.259-0.085-0.406-0.085-0.253 0-0.484 0.093-0.662 0.246l0.001-0.001-4.92 4.293v-4.413c0-0.008 0-0.017 0-0.027 0-0.552-0.448-1-1-1-0 0-0 0-0 0h-10.16l2.067 2.027h7.16v5.627c-0.010 0.052-0.015 0.112-0.015 0.173s0.006 0.121 0.016 0.179l-0.001-0.006c-0.010 0.052-0.015 0.112-0.015 0.173s0.006 0.121 0.016 0.179l-0.001-0.006v0.84l2 2v-0.627l4.92 4.293c0.174 0.155 0.404 0.25 0.656 0.25 0.149 0 0.29-0.033 0.417-0.092l-0.006 0.003c0.348-0.161 0.585-0.506 0.587-0.906v-12.214c-0.014-0.415-0.278-0.765-0.646-0.904l-0.007-0.002zM27 19.893l-4.453-3.893 4.453-3.893zM4.867 5.64c-0.178-0.166-0.418-0.268-0.682-0.268-0.552 0-1 0.448-1 1 0 0.264 0.102 0.504 0.269 0.682l-0.001-0.001 0.973 0.947h-0.427c-0.549 0.007-0.993 0.451-1 0.999v13.974c-0 0.004-0 0.009-0 0.013 0 0.555 0.446 1.006 0.999 1.013h16.374l1.747 1.747c0.179 0.181 0.427 0.293 0.702 0.293 0.002 0 0.003 0 0.005 0h-0c0.003 0 0.007 0 0.010 0 0.273 0 0.52-0.112 0.696-0.293l0-0c0.184-0.179 0.298-0.43 0.298-0.707s-0.114-0.527-0.298-0.706l-0-0zM5 21.973v-12h1.427l12 12z"></path>
</svg>
