<!-- Generated by IcoMoon.io -->
<svg version="1.1" xmlns="http://www.w3.org/2000/svg" width="32" height="32" viewBox="0 0 32 32">
<title>camera</title>
<path d="M26.973 27.067h-21.947c-1.119 0-2.027-0.907-2.027-2.027v0-15.080c0.037-1.090 0.93-1.96 2.026-1.96 0 0 0.001 0 0.001 0h5.907l0.453-1.6c0.262-0.846 1.032-1.452 1.945-1.467l0.002-0h5.333c0.005-0 0.010-0 0.016-0 0.922 0 1.702 0.612 1.954 1.452l0.004 0.014 0.427 1.6h5.907c1.119 0 2.027 0.907 2.027 2.027v0 15.013c0 1.119-0.907 2.027-2.027 2.027v0zM5.027 9.933v15.107h21.973v-15.107h-6.667c-0.453 0-0.835-0.301-0.958-0.713l-0.002-0.007-0.707-2.24h-5.333l-0.707 2.24c-0.125 0.419-0.508 0.72-0.96 0.72v0zM16 22.4c-2.946 0-5.333-2.388-5.333-5.333s2.388-5.333 5.333-5.333c2.946 0 5.333 2.388 5.333 5.333v0c0 2.946-2.388 5.333-5.333 5.333v0zM16 13.827c-0.004-0-0.009-0-0.013-0-1.819 0-3.293 1.474-3.293 3.293s1.474 3.293 3.293 3.293c1.819 0 3.293-1.474 3.293-3.293v0c0 0 0-0 0-0 0-1.814-1.467-3.286-3.279-3.293h-0.001z"></path>
</svg>
