<!-- Generated by IcoMoon.io -->
<svg version="1.1" xmlns="http://www.w3.org/2000/svg" width="32" height="32" viewBox="0 0 32 32">
<title>check-big</title>
<path d="M32 16c0 8.837-7.163 16-16 16s-16-7.163-16-16c0-8.837 7.163-16 16-16s16 7.163 16 16zM12.533 22.826c0.183 0.076 0.379 0.114 0.576 0.114 0.204-0.001 0.406-0.044 0.592-0.129 0.181-0.082 0.343-0.2 0.476-0.347l10.884-10.871c0.281-0.281 0.439-0.662 0.439-1.060 0-0.396-0.157-0.777-0.437-1.058-0.138-0.141-0.303-0.253-0.485-0.33-0.183-0.077-0.379-0.117-0.578-0.117s-0.395 0.040-0.578 0.117c-0.182 0.077-0.346 0.189-0.484 0.33l-9.832 9.819-4.058-4.033c-0.284-0.265-0.66-0.409-1.049-0.402s-0.759 0.164-1.034 0.439c-0.275 0.275-0.432 0.646-0.439 1.034s0.137 0.765 0.402 1.049l0.006 0.006 5.112 5.112c0.139 0.14 0.304 0.252 0.487 0.327z"></path>
</svg>
