<!-- Generated by IcoMoon.io -->
<svg version="1.1" xmlns="http://www.w3.org/2000/svg" width="32" height="32" viewBox="0 0 32 32">
<title>comment</title>
<path d="M5.333 28.427c-0.008 0-0.018 0-0.027 0-0.538 0-0.973-0.436-0.973-0.973 0-0.009 0-0.019 0-0.028l-0 0.001v-18.92c0-0 0-0.001 0-0.001 0-1.252 1.015-2.267 2.267-2.267 0.023 0 0.047 0 0.070 0.001l-0.003-0h18.8c1.252 0 2.267 1.015 2.267 2.267v13.467c0 1.252-1.015 2.267-2.267 2.267v0h-14.347l-5.173 4c-0.167 0.117-0.375 0.187-0.599 0.187-0.005 0-0.010-0-0.015-0h0.001zM6.667 8.24c-0.147 0-0.267 0.119-0.267 0.267v16.893l3.84-2.96c0.165-0.125 0.374-0.2 0.6-0.2 0.005 0 0.009 0 0.014 0h14.666c0.147 0 0.267-0.119 0.267-0.267v0-13.467c0-0.147-0.119-0.267-0.267-0.267v0z"></path>
</svg>
