<!-- Generated by IcoMoon.io -->
<svg version="1.1" xmlns="http://www.w3.org/2000/svg" width="32" height="32" viewBox="0 0 32 32">
<title>connection-good</title>
<path d="M20.6 20.667c-0.001 0-0.003 0-0.005 0-0.275 0-0.523-0.112-0.702-0.293l-0-0c-0.996-0.996-2.373-1.612-3.893-1.612s-2.897 0.616-3.893 1.612v0c-0.183 0.187-0.438 0.302-0.72 0.302-0.557 0-1.009-0.452-1.009-1.009 0-0.275 0.11-0.525 0.289-0.707l-0 0c1.361-1.374 3.248-2.224 5.333-2.224s3.972 0.85 5.333 2.224l0.001 0.001c0.184 0.179 0.298 0.43 0.298 0.707s-0.114 0.527-0.298 0.706l-0 0c-0.177 0.181-0.424 0.294-0.697 0.294-0.013 0-0.025-0-0.038-0.001l0.002 0zM24.080 17.187c-0.001 0-0.003 0-0.005 0-0.275 0-0.523-0.112-0.702-0.293l-0-0c-1.887-1.887-4.494-3.054-7.373-3.054s-5.486 1.167-7.373 3.054v0c-0.181 0.181-0.431 0.292-0.707 0.292s-0.526-0.112-0.707-0.292v0c-0.184-0.179-0.298-0.43-0.298-0.707s0.114-0.527 0.298-0.706l0-0c2.249-2.249 5.355-3.639 8.787-3.639s6.538 1.391 8.787 3.639v0c0.184 0.179 0.298 0.43 0.298 0.707s-0.114 0.527-0.298 0.706l-0 0c-0.173 0.181-0.416 0.294-0.685 0.294-0.008 0-0.015-0-0.022-0l0.001 0zM27.707 13.573c-0.006 0-0.014 0-0.021 0-0.269 0-0.513-0.113-0.685-0.293l-0-0c-2.814-2.817-6.704-4.56-11-4.56s-8.186 1.743-11 4.56l-0 0c-0.178 0.166-0.418 0.268-0.682 0.268-0.552 0-1-0.448-1-1 0-0.264 0.102-0.504 0.269-0.682l-0.001 0.001c3.176-3.179 7.565-5.145 12.413-5.145s9.237 1.966 12.413 5.145l0 0c0.181 0.181 0.292 0.431 0.292 0.707s-0.112 0.526-0.292 0.707v0c-0.179 0.181-0.427 0.293-0.702 0.293-0.002 0-0.003 0-0.005 0h0zM17.667 23.613c0 0.92-0.746 1.667-1.667 1.667s-1.667-0.746-1.667-1.667c0-0.92 0.746-1.667 1.667-1.667s1.667 0.746 1.667 1.667z"></path>
</svg>
