<!-- Generated by IcoMoon.io -->
<svg version="1.1" xmlns="http://www.w3.org/2000/svg" width="32" height="32" viewBox="0 0 32 32">
<title>connection-bad</title>
<path d="M17.667 23.613c0 0.92-0.746 1.667-1.667 1.667s-1.667-0.746-1.667-1.667c0-0.92 0.746-1.667 1.667-1.667s1.667 0.746 1.667 1.667zM21.813 15.6c0.581 0.413 1.090 0.851 1.558 1.331l0.002 0.003c0.179 0.181 0.427 0.293 0.702 0.293 0.002 0 0.003 0 0.005 0h-0c0.006 0 0.014 0 0.021 0 0.269 0 0.513-0.113 0.685-0.293l0-0c0.184-0.179 0.298-0.43 0.298-0.707s-0.114-0.527-0.298-0.706l-0-0c-1.713-1.767-3.948-3.019-6.456-3.507l-0.077-0.013zM23.547 22.4l-16.173-16.173c-0.178-0.166-0.418-0.268-0.682-0.268-0.552 0-1 0.448-1 1 0 0.264 0.102 0.504 0.269 0.682l-0.001-0.001 1.333 1.333c-1.414 0.827-2.632 1.786-3.703 2.889l-0.004 0.004c-0.192 0.185-0.312 0.445-0.312 0.733 0 0.562 0.456 1.018 1.018 1.018 0.275 0 0.524-0.109 0.707-0.285l-0 0c1.094-1.108 2.35-2.054 3.73-2.799l0.083-0.041 2.347 2.347c-1.557 0.65-2.886 1.551-4 2.667l-0 0c-0.184 0.179-0.298 0.43-0.298 0.707s0.114 0.527 0.298 0.706l0 0c0.181 0.181 0.431 0.292 0.707 0.292s0.526-0.112 0.707-0.292v0c1.115-1.111 2.482-1.97 4.007-2.485l0.073-0.021 2.453 2.467c-1.741 0.183-3.278 0.942-4.441 2.081l0.001-0.001c-0.166 0.178-0.268 0.418-0.268 0.682 0 0.552 0.448 1 1 1 0.264 0 0.504-0.102 0.682-0.269l-0.001 0.001c0.97-0.997 2.325-1.616 3.825-1.616 0.465 0 0.916 0.059 1.346 0.171l-0.037-0.008 4.893 4.893c0.179 0.181 0.427 0.293 0.702 0.293 0.002 0 0.003 0 0.005 0h-0c0.006 0 0.014 0 0.021 0 0.269 0 0.513-0.113 0.685-0.293l0-0c0.192-0.18 0.312-0.436 0.312-0.72 0-0.27-0.109-0.516-0.285-0.694l0 0zM28.413 11.867c-3.162-3.21-7.555-5.199-12.413-5.2h-0c-1.007 0.011-1.984 0.103-2.935 0.269l0.108-0.016 1.813 1.8c0.333 0 0.667 0 1.013 0 4.305 0.007 8.197 1.77 10.998 4.612l0.002 0.002c0.173 0.181 0.416 0.294 0.685 0.294 0.008 0 0.015-0 0.022-0l-0.001 0c0.001 0 0.003 0 0.005 0 0.275 0 0.523-0.112 0.702-0.293l0-0c0.197-0.183 0.32-0.444 0.32-0.733s-0.123-0.55-0.32-0.733l-0.001-0.001z"></path>
</svg>
