<!-- Generated by IcoMoon.io -->
<svg version="1.1" xmlns="http://www.w3.org/2000/svg" width="32" height="32" viewBox="0 0 32 32">
<title>courses</title>
<path d="M26.147 5.4h-15.48c-0.004-0-0.009-0-0.013-0-1.576 0-2.853 1.277-2.853 2.853 0 0 0 0 0 0v0 10.667c-0 0.008-0 0.017-0 0.027 0 1.576 1.277 2.853 2.853 2.853 0.005 0 0.009 0 0.014-0h15.479c1.576 0 2.853-1.277 2.853-2.853v0-10.667c0-0.008 0-0.017 0-0.027 0-1.576-1.277-2.853-2.853-2.853-0 0-0 0-0 0v0zM27 18.947c0 0.471-0.382 0.853-0.853 0.853v0h-15.48c-0.471 0-0.853-0.382-0.853-0.853v0-10.667c-0-0.008-0-0.017-0-0.027 0-0.471 0.382-0.853 0.853-0.853 0 0 0 0 0 0h15.48c0.471 0 0.853 0.382 0.853 0.853v0zM23.2 24.6h-16.533c-0.95 0-1.72-0.77-1.72-1.72v0-11.68c0-0.552-0.448-1-1-1s-1 0.448-1 1v0 11.68c-0 0.020-0.001 0.043-0.001 0.067 0 2.055 1.665 3.72 3.72 3.72 0 0 0 0 0.001 0h16.533c0.552 0 1-0.448 1-1s-0.448-1-1-1v0zM21.333 12.373v0l-3.907-2.227c-0.167-0.094-0.367-0.149-0.58-0.149s-0.413 0.055-0.586 0.153l0.006-0.003c-0.345 0.205-0.573 0.576-0.573 1v4.44c0.006 0.423 0.232 0.791 0.568 0.997l0.005 0.003c0.171 0.089 0.372 0.143 0.586 0.147h0.001c0.21-0.006 0.407-0.059 0.581-0.15l-0.007 0.003 3.907-2.227c0.338-0.207 0.561-0.574 0.561-0.993s-0.222-0.787-0.556-0.99l-0.005-0.003z"></path>
</svg>
