<!-- Generated by IcoMoon.io -->
<svg version="1.1" xmlns="http://www.w3.org/2000/svg" width="32" height="32" viewBox="0 0 32 32">
<title>credit-spent</title>
<path d="M12.307 13.773c0.306 1.932 1.959 3.391 3.953 3.391s3.647-1.459 3.95-3.368l0.003-0.023c0.008-0.064 0.012-0.138 0.012-0.213s-0.004-0.149-0.013-0.222l0.001 0.009c-0.018-0.107-0.105-0.189-0.212-0.2l-0.001-0h-7.493c-0 0-0 0-0 0-0.133 0-0.24 0.107-0.24 0.24 0 0.005 0 0.009 0 0.014l-0-0.001c-0.005 0.056-0.008 0.121-0.008 0.187s0.003 0.131 0.009 0.195l-0.001-0.008zM18.227 19.587c0-1.105-0.895-2-2-2s-2 0.895-2 2v0c-0.005 0.032-0.008 0.069-0.008 0.107s0.003 0.075 0.009 0.111l-0.001-0.004c-0 0.004-0.001 0.009-0.001 0.013 0 0.066 0.054 0.12 0.12 0.12 0 0 0.001 0 0.001 0h3.787c0 0 0 0 0.001 0 0.066 0 0.12-0.054 0.12-0.12 0-0.005-0-0.009-0.001-0.014l0 0.001c0.001-0.013 0.002-0.028 0.002-0.044 0-0.061-0.010-0.119-0.030-0.173l0.001 0.004zM29.147 6.667l-3.813-3.72c-0.076-0.111-0.169-0.204-0.276-0.278l-0.004-0.002c-0.115-0.044-0.248-0.070-0.387-0.070s-0.272 0.026-0.394 0.072l0.008-0.003c-0.124 0.058-0.23 0.134-0.32 0.226l-3.774 3.774c-0.181 0.181-0.292 0.431-0.292 0.707s0.112 0.526 0.292 0.707v0c0.179 0.181 0.427 0.293 0.702 0.293 0.002 0 0.003 0 0.005 0h-0c0.003 0 0.007 0 0.010 0 0.273 0 0.52-0.112 0.696-0.293l0-0 2.067-2.053v16c0 0.92-0.746 1.667-1.667 1.667v0h-12c-0 0-0 0-0 0-0.92 0-1.667-0.746-1.667-1.667 0-0.009 0-0.019 0-0.028l-0 0.001v-12c0-0.92 0.746-1.667 1.667-1.667v0h4.667c0.552 0 1-0.448 1-1s-0.448-1-1-1v0h-4.667c-2.025 0-3.667 1.642-3.667 3.667v0 12c0 2.025 1.642 3.667 3.667 3.667v0h12c2.025 0 3.667-1.642 3.667-3.667v0-15.933l2.067 2.053c0.179 0.184 0.43 0.298 0.707 0.298s0.527-0.114 0.706-0.298l0-0c0.193-0.183 0.313-0.441 0.313-0.727s-0.12-0.544-0.313-0.726l-0-0z"></path>
</svg>
