<!-- Generated by IcoMoon.io -->
<svg version="1.1" xmlns="http://www.w3.org/2000/svg" width="32" height="32" viewBox="0 0 32 32">
<title>credit</title>
<path d="M16 29c-7.18 0-13-5.82-13-13s5.82-13 13-13c7.18 0 13 5.82 13 13v0c-0.008 7.177-5.823 12.992-12.999 13h-0.001zM16 5c-6.075 0-11 4.925-11 11s4.925 11 11 11c6.075 0 11-4.925 11-11v0c-0.008-6.072-4.928-10.992-10.999-11h-0.001zM11.387 12.787c0.357 2.253 2.286 3.955 4.612 3.955 2.302 0 4.215-1.667 4.597-3.86l0.004-0.028c0.042-0.149 0.067-0.321 0.067-0.498 0-0.003 0-0.006-0-0.009v0c0-0.155-0.125-0.28-0.28-0.28v0h-8.773c-0.155 0-0.28 0.125-0.28 0.28v0 0c-0.008 0.064-0.013 0.138-0.013 0.213s0.005 0.149 0.014 0.222l-0.001-0.009zM18.293 19.573c-0.211-1.097-1.163-1.915-2.307-1.915s-2.096 0.818-2.304 1.901l-0.002 0.015c-0.006 0.040-0.009 0.086-0.009 0.133s0.003 0.093 0.010 0.139l-0.001-0.005c-0.001 0.004-0.001 0.009-0.001 0.014 0 0.066 0.054 0.12 0.12 0.12 0.005 0 0.010-0 0.015-0.001l-0.001 0h4.387c0.004 0 0.009 0.001 0.013 0.001 0.074 0 0.133-0.060 0.133-0.133 0-0 0-0 0-0.001v0c-0.011-0.1-0.030-0.19-0.056-0.278l0.003 0.011z"></path>
</svg>
