<!-- Generated by IcoMoon.io -->
<svg version="1.1" xmlns="http://www.w3.org/2000/svg" width="32" height="32" viewBox="0 0 32 32">
<title>credits-filled</title>
<path d="M16 3c-7.18 0-13 5.82-13 13s5.82 13 13 13c7.18 0 13-5.82 13-13v0c-0.008-7.177-5.823-12.992-12.999-13h-0.001zM18.973 20.88c0 0.004 0 0.009 0 0.013 0 0.096-0.078 0.173-0.173 0.173-0 0-0 0-0.001 0h-5.64c-0.103 0-0.187-0.084-0.187-0.187v0c-0.005-0.050-0.008-0.108-0.008-0.167s0.003-0.117 0.009-0.174l-0.001 0.007c0.26-1.422 1.489-2.485 2.967-2.485s2.707 1.063 2.964 2.467l0.003 0.018c0.009 0.040 0.013 0.086 0.013 0.133s-0.005 0.093-0.014 0.138l0.001-0.004zM21.92 12c-0.52 2.836-2.972 4.957-5.92 4.957-2.976 0-5.447-2.162-5.929-5.001l-0.005-0.035c-0.011-0.084-0.017-0.181-0.017-0.28s0.006-0.196 0.018-0.291l-0.001 0.011c-0-0.004-0-0.009-0-0.013 0-0.199 0.161-0.36 0.36-0.36 0 0 0 0 0 0h11.28c0 0 0 0 0 0 0.199 0 0.36 0.161 0.36 0.36 0 0.005-0 0.009-0 0.014l0-0.001c-0.025 0.237-0.076 0.454-0.153 0.658l0.006-0.018z"></path>
</svg>
