<!-- Generated by IcoMoon.io -->
<svg version="1.1" xmlns="http://www.w3.org/2000/svg" width="32" height="32" viewBox="0 0 32 32">
<title>delete</title>
<path d="M25.333 7.48h-3.573v-2.227c0-0.781-0.633-1.413-1.413-1.413v0h-8.693c-0.781 0-1.413 0.633-1.413 1.413v0 2.227h-3.573c-0.552 0-1 0.448-1 1s0.448 1 1 1v0h0.293l1.427 17.187c0.113 1.267 1.17 2.253 2.457 2.253 0.003 0 0.007 0 0.010-0h10.293c0.006 0 0.014 0 0.021 0 1.285 0 2.339-0.987 2.445-2.244l0.001-0.009 1.427-17.187h0.293c0.552 0 1-0.448 1-1s-0.448-1-1-1v0zM12.24 5.84h7.52v1.64h-7.52zM21.573 26.52c-0.021 0.247-0.227 0.44-0.478 0.44-0.001 0-0.001 0-0.002 0h-10.24c-0.001 0-0.002 0-0.003 0-0.246 0-0.449-0.186-0.477-0.424l-0-0.002-1.333-17.053h13.987z"></path>
</svg>
