<!-- Generated by IcoMoon.io -->
<svg version="1.1" xmlns="http://www.w3.org/2000/svg" width="32" height="32" viewBox="0 0 32 32">
<title>dislike</title>
<path d="M28 4.080c0.552 0 1 0.448 1 1v0 14.56c0 0.552-0.448 1-1 1s-1-0.448-1-1v0-14.56c0-0.552 0.448-1 1-1v0zM9.787 3.787h10.44c1.828 0.008 3.307 1.491 3.307 3.32 0 0 0 0 0 0v0 11.56c0 0.007 0 0.016 0 0.024 0 0.912-0.378 1.735-0.986 2.322l-0.001 0.001-6.36 6.373c-0.486 0.506-1.168 0.82-1.924 0.82-0.533 0-1.030-0.157-1.447-0.426l0.010 0.006c-0.54-0.32-0.955-0.803-1.18-1.381l-0.006-0.019c-0.090-0.266-0.143-0.573-0.147-0.892v-0.468l0.867-4.2h-6.040c-1.831-0.008-3.312-1.489-3.32-3.319v-2.294c0.003-0.437 0.086-0.853 0.235-1.237l-0.008 0.024 3.52-8.2c0.513-1.193 1.678-2.013 3.034-2.013 0.002 0 0.004 0 0.006 0h-0zM14.28 26.2c0.003 0 0.008 0 0.012 0 0.188 0 0.359-0.076 0.482-0.2l0-0 6.373-6.387c0.239-0.229 0.387-0.55 0.387-0.905 0-0.005-0-0.010-0-0.015v0.001-11.587c0-0.736-0.597-1.333-1.333-1.333v0h-10.413c-0.535 0.009-0.992 0.332-1.197 0.792l-0.003 0.008-3.507 8.187c-0.051 0.13-0.080 0.281-0.080 0.438 0 0.005 0 0.010 0 0.016v-0.001 2.32c0 0.736 0.597 1.333 1.333 1.333v0h7.307c0.001 0 0.003 0 0.005 0 0.308 0 0.584 0.139 0.767 0.358l0.001 0.002c0.16 0.178 0.258 0.416 0.258 0.676 0 0.034-0.002 0.068-0.005 0.102l0-0.004-1.12 5.56s0 0 0 0.147c0.055 0.13 0.147 0.236 0.264 0.305l0.003 0.002c0.129 0.1 0.289 0.167 0.462 0.186l0.004 0z"></path>
</svg>
