<!-- Generated by IcoMoon.io -->
<svg version="1.1" xmlns="http://www.w3.org/2000/svg" width="32" height="32" viewBox="0 0 32 32">
<title>downloaded-circle-small</title>
<path d="M16 3c-7.18 0-13 5.82-13 13s5.82 13 13 13c7.18 0 13-5.82 13-13v0c-0.008-7.177-5.823-12.992-12.999-13h-0.001zM21.16 23.44h-10.32c-0.92 0-1.667-0.746-1.667-1.667s0.746-1.667 1.667-1.667v0h10.32c0.92 0 1.667 0.746 1.667 1.667s-0.746 1.667-1.667 1.667v0zM22.347 10.947l-7.333 7.333c-0.3 0.301-0.715 0.489-1.172 0.493h-0.001c-0.463-0.007-0.88-0.194-1.187-0.494l-3-3c-0.344-0.307-0.559-0.751-0.559-1.246 0-0.92 0.746-1.667 1.667-1.667 0.491 0 0.933 0.213 1.238 0.551l0.001 0.001 1.827 1.827 6.173-6.147c0.294-0.265 0.685-0.427 1.114-0.427 0.92 0 1.667 0.746 1.667 1.667 0 0.426-0.16 0.814-0.422 1.109l0.001-0.002z"></path>
</svg>
