<!-- Generated by IcoMoon.io -->
<svg version="1.1" xmlns="http://www.w3.org/2000/svg" width="32" height="32" viewBox="0 0 32 32">
<title>downloaded</title>
<path d="M16 3c-7.18 0-13 5.82-13 13s5.82 13 13 13c7.18 0 13-5.82 13-13v0c-0.008-7.177-5.823-12.992-12.999-13h-0.001zM10.547 13.507c0.181-0.181 0.431-0.292 0.707-0.292s0.526 0.112 0.707 0.292v0l2.32 2.333 5.72-5.76c0.178-0.166 0.418-0.268 0.682-0.268 0.552 0 1 0.448 1 1 0 0.264-0.102 0.504-0.269 0.682l0.001-0.001-6.453 6.467c-0.183 0.181-0.435 0.294-0.713 0.294s-0.53-0.112-0.713-0.294l0 0-2.987-3.040c-0.181-0.181-0.292-0.431-0.292-0.707s0.112-0.526 0.292-0.707v0zM21.213 22.213h-10.36c-0.552 0-1-0.448-1-1s0.448-1 1-1v0h10.293c0.552 0 1 0.448 1 1s-0.448 1-1 1v0z"></path>
</svg>
