<!-- Generated by IcoMoon.io -->
<svg version="1.1" xmlns="http://www.w3.org/2000/svg" width="32" height="32" viewBox="0 0 32 32">
<title>downloading-circle-small</title>
<path d="M16 3c-7.18 0-13 5.82-13 13s5.82 13 13 13c7.18 0 13-5.82 13-13v0c-0.008-7.177-5.823-12.992-12.999-13h-0.001zM21.813 19.213l-4.64 4.627c-0.298 0.305-0.714 0.494-1.173 0.494s-0.875-0.189-1.173-0.494l-0-0-4.64-4.627c-0.302-0.302-0.489-0.719-0.489-1.18 0-0.922 0.747-1.669 1.669-1.669 0.461 0 0.878 0.187 1.18 0.489v0l1.787 1.813v-9.333c0-0.92 0.746-1.667 1.667-1.667s1.667 0.746 1.667 1.667v0 9.333l1.787-1.787c0.302-0.302 0.719-0.489 1.18-0.489 0.922 0 1.669 0.747 1.669 1.669 0 0.461-0.187 0.878-0.489 1.18v0z"></path>
</svg>
