<!-- Generated by IcoMoon.io -->
<svg version="1.1" xmlns="http://www.w3.org/2000/svg" width="32" height="32" viewBox="0 0 32 32">
<title>edit</title>
<path d="M28.707 8.413l-5.12-5.12c-0.181-0.181-0.431-0.292-0.707-0.292s-0.526 0.112-0.707 0.292v0l-18.88 18.88c-0.181 0.181-0.293 0.431-0.293 0.707v5.12c0 0.552 0.448 1 1 1v0h5.12c0.276-0 0.526-0.112 0.707-0.293v0l18.88-18.88c0.181-0.181 0.292-0.431 0.292-0.707s-0.112-0.526-0.292-0.707v0zM8.707 27h-3.707v-3.707l13-13 3.693 3.707zM23.107 12.587l-3.693-3.707 3.467-3.467 3.707 3.707z"></path>
</svg>
