<!-- Generated by IcoMoon.io -->
<svg version="1.1" xmlns="http://www.w3.org/2000/svg" width="32" height="32" viewBox="0 0 32 32">
<title>feed</title>
<path d="M27.693 20.227h-23.387c-0.538 0-0.973-0.436-0.973-0.973s0.436-0.973 0.973-0.973h23.387c0.538 0 0.973 0.436 0.973 0.973s-0.436 0.973-0.973 0.973v0zM27.693 13.733h-12.107c-0.493-0.059-0.872-0.475-0.872-0.98s0.379-0.921 0.867-0.98l0.005-0h12.107c0.493 0.059 0.872 0.475 0.872 0.98s-0.379 0.921-0.867 0.98l-0.005 0zM27.693 26.667h-23.387c-0.538 0-0.973-0.436-0.973-0.973s0.436-0.973 0.973-0.973v0h23.387c0.538 0 0.973 0.436 0.973 0.973s-0.436 0.973-0.973 0.973v0zM27.693 7.227h-12.107c-0.538 0-0.973-0.436-0.973-0.973s0.436-0.973 0.973-0.973v0h12.107c0.538 0 0.973 0.436 0.973 0.973s-0.436 0.973-0.973 0.973v0zM7.56 13.733c-0.004 0-0.009 0-0.013 0-2.334 0-4.227-1.892-4.227-4.227s1.892-4.227 4.227-4.227c2.334 0 4.227 1.892 4.227 4.227v0c-0.008 2.327-1.888 4.212-4.212 4.227h-0.001zM7.56 7.227c-0.052-0.004-0.113-0.007-0.174-0.007-1.259 0-2.28 1.021-2.28 2.28s1.021 2.28 2.28 2.28c0.061 0 0.122-0.002 0.182-0.007l-0.008 0.001c1.182-0.093 2.106-1.075 2.106-2.273s-0.924-2.18-2.098-2.273l-0.008-0z"></path>
</svg>
