<!-- Generated by IcoMoon.io -->
<svg version="1.1" xmlns="http://www.w3.org/2000/svg" width="32" height="32" viewBox="0 0 32 32">
<title>following</title>
<path d="M19.293 16.787c0.004 0 0.009 0 0.013 0 3.439 0 6.227-2.788 6.227-6.227s-2.788-6.227-6.227-6.227c-3.439 0-6.227 2.788-6.227 6.227 0 0.005 0 0.009 0 0.014v-0.001c0.008 3.428 2.785 6.206 6.213 6.213h0.001zM19.293 6.347c0.004 0 0.009-0 0.013-0 2.334 0 4.227 1.892 4.227 4.227s-1.892 4.227-4.227 4.227c-2.334 0-4.227-1.892-4.227-4.227v0c0 0 0 0 0-0 0-2.33 1.885-4.219 4.213-4.227h0.001zM20.613 18.267h-2.667c-4.615 0.023-8.347 3.769-8.347 8.387 0 0.005 0 0.009 0 0.014v-0.001c0 0.552 0.448 1 1 1s1-0.448 1-1v0c0.008-3.524 2.862-6.379 6.386-6.387h2.667c3.507 0.030 6.339 2.876 6.347 6.386v0.001c0 0.552 0.448 1 1 1s1-0.448 1-1v0c0-0.004 0-0.009 0-0.013 0-4.632-3.755-8.387-8.387-8.387 0 0 0 0 0 0v0zM12.733 15.32c-0.179-0.184-0.43-0.298-0.707-0.298s-0.527 0.114-0.706 0.298l-0 0-4.933 4.933-1.68-1.68c-0.181-0.18-0.431-0.291-0.707-0.291-0.555 0-1.004 0.45-1.004 1.004 0 0.279 0.114 0.531 0.297 0.713l2.387 2.387c0.181 0.181 0.431 0.292 0.707 0.292s0.526-0.112 0.707-0.292v0l5.64-5.64c0.188-0.18 0.305-0.433 0.305-0.713s-0.117-0.533-0.305-0.713l-0-0z"></path>
</svg>
