<!-- Generated by IcoMoon.io -->
<svg version="1.1" xmlns="http://www.w3.org/2000/svg" width="32" height="32" viewBox="0 0 32 32">
<title>forward-10</title>
<path d="M11.667 13.707l-0.613 0.16c-0.046 0.006-0.099 0.010-0.153 0.010s-0.107-0.004-0.159-0.010l0.006 0.001c-0 0-0 0-0 0-0.408 0-0.739-0.327-0.747-0.733v-0.001c0.005-0.354 0.243-0.651 0.568-0.745l0.006-0.001 1.107-0.32c0.195-0.045 0.42-0.071 0.651-0.071 0.057 0 0.114 0.002 0.171 0.005l-0.008-0c0.471 0 0.853 0.382 0.853 0.853v0 6.333c0 0.471-0.382 0.853-0.853 0.853v0c-0.471 0-0.853-0.382-0.853-0.853v0zM15.013 16v0c-0.008-0.093-0.013-0.201-0.013-0.311 0-1.979 1.556-3.594 3.511-3.689l0.009-0c1.95 0.094 3.496 1.698 3.496 3.663 0 0.119-0.006 0.236-0.017 0.352l0.001-0.015c0.012 0.113 0.019 0.244 0.019 0.377 0 1.981-1.559 3.598-3.518 3.689l-0.008 0c-1.952-0.074-3.505-1.675-3.505-3.637 0-0.151 0.009-0.3 0.027-0.447l-0.002 0.018zM20.227 16v0c0-1.427-0.693-2.507-1.733-2.507s-1.707 1.040-1.707 2.48v0c0 1.44 0.68 2.507 1.733 2.507s1.707-1.027 1.707-2.48zM28 15c-0.549 0.007-0.993 0.451-1 0.999v0.001c0 6.075-4.925 11-11 11s-11-4.925-11-11c0-6.075 4.925-11 11-11v0c0.005 0 0.011 0 0.018 0 3.506 0 6.625 1.656 8.617 4.228l0.019 0.025-3.027-0.52c-0.525 0.033-0.939 0.467-0.939 0.998 0 0.425 0.265 0.788 0.639 0.933l0.007 0.002 5.253 0.893h0.627s0.067 0 0.107-0.080l0.12-0.093c0.055-0.051 0.104-0.108 0.145-0.17l0.002-0.003c0.003-0.016 0.005-0.034 0.005-0.053s-0.002-0.037-0.006-0.055l0 0.002c0.039-0.069 0.071-0.149 0.092-0.233l0.001-0.007 0.893-5.267c0.008-0.049 0.013-0.105 0.013-0.162 0-0.491-0.354-0.899-0.82-0.984l-0.006-0.001c-0.056-0.011-0.12-0.018-0.186-0.018-0.49 0-0.896 0.357-0.974 0.825l-0.001 0.006-0.44 2.733c-2.397-2.981-6.044-4.872-10.133-4.872-7.165 0-12.973 5.808-12.973 12.973s5.808 12.973 12.973 12.973c7.165 0 12.973-5.808 12.973-12.973 0-0.036-0-0.071-0-0.107l0 0.005c-0.007-0.549-0.451-0.993-0.999-1h-0.001z"></path>
</svg>
