<!-- Generated by IcoMoon.io -->
<svg version="1.1" xmlns="http://www.w3.org/2000/svg" width="32" height="32" viewBox="0 0 32 32">
<title>forward</title>
<path d="M28.507 15.133l-11.173-6.453c-0.144-0.082-0.316-0.13-0.5-0.13s-0.356 0.048-0.505 0.133l0.005-0.003c-0.297 0.18-0.492 0.5-0.493 0.867v5.733l-0.147-0.147-11.187-6.453c-0.144-0.082-0.316-0.13-0.5-0.13s-0.356 0.048-0.505 0.133l0.005-0.003c-0.304 0.172-0.507 0.493-0.507 0.862 0 0.002 0 0.003 0 0.005v-0 12.907c0 0.001 0 0.003 0 0.005 0 0.369 0.202 0.69 0.502 0.86l0.005 0.003c0.136 0.084 0.301 0.133 0.477 0.133 0.006 0 0.011-0 0.017-0h-0.001c0.002 0 0.005 0 0.008 0 0.184 0 0.356-0.049 0.504-0.136l-0.005 0.003 11.173-6.453 0.147-0.147v5.733c0.001 0.366 0.197 0.687 0.489 0.864l0.005 0.003c0.143 0.084 0.315 0.133 0.499 0.133 0.003 0 0.005 0 0.008-0h-0c0.005 0 0.010 0 0.016 0 0.176 0 0.341-0.050 0.481-0.136l-0.004 0.002 11.187-6.453c0.295-0.181 0.488-0.501 0.488-0.867s-0.194-0.686-0.484-0.864l-0.004-0.003z"></path>
</svg>
