<!-- Generated by IcoMoon.io -->
<svg version="1.1" xmlns="http://www.w3.org/2000/svg" width="32" height="32" viewBox="0 0 32 32">
<title>full-screen</title>
<path d="M12.307 24.333h-4.64v-5.093c0-0.552-0.448-1-1-1s-1 0.448-1 1v0 6.093c0.007 0.549 0.451 0.993 0.999 1h5.641c0.552 0 1-0.448 1-1s-0.448-1-1-1v0zM25.333 18.24c-0.549 0.007-0.993 0.451-1 0.999v5.094h-4.64c-0.552 0-1 0.448-1 1s0.448 1 1 1v0h5.64c0.549-0.007 0.993-0.451 1-0.999v-6.094c-0.007-0.549-0.451-0.993-0.999-1h-0.001zM25.333 5.667h-5.64c-0.552 0-1 0.448-1 1s0.448 1 1 1v0h4.64v4.187c0 0.552 0.448 1 1 1s1-0.448 1-1v0-5.187c-0.007-0.549-0.451-0.993-0.999-1h-0.001zM12.307 5.667h-5.64c-0.549 0.007-0.993 0.451-1 0.999v5.187c0 0.552 0.448 1 1 1s1-0.448 1-1v0-4.187h4.64c0.552 0 1-0.448 1-1s-0.448-1-1-1v0z"></path>
</svg>
