<!-- Generated by IcoMoon.io -->
<svg version="1.1" xmlns="http://www.w3.org/2000/svg" width="32" height="32" viewBox="0 0 32 32">
<title>help-outline</title>
<path d="M15.92 18.907c-0.022-0.001-0.047-0.002-0.072-0.002-0.367 0-0.702 0.137-0.956 0.363l0.001-0.001c-0.241 0.253-0.389 0.596-0.389 0.973s0.148 0.72 0.389 0.974l-0.001-0.001c0.281 0.224 0.641 0.359 1.033 0.359s0.752-0.135 1.037-0.362l-0.003 0.003c0.232-0.257 0.374-0.598 0.374-0.973s-0.142-0.717-0.375-0.975l0.001 0.001c-0.255-0.225-0.591-0.362-0.96-0.362-0.028 0-0.056 0.001-0.084 0.002l0.004-0zM16.173 9.96c-0.087-0.007-0.189-0.011-0.291-0.011-0.972 0-1.862 0.346-2.555 0.923l0.007-0.005c-0.624 0.577-1.014 1.4-1.014 2.314 0 0.026 0 0.051 0.001 0.077l-0-0.004h2.12c0.004-0.41 0.177-0.778 0.453-1.039l0.001-0.001c0.264-0.234 0.614-0.377 0.997-0.377 0.039 0 0.077 0.001 0.114 0.004l-0.005-0c0.025-0.001 0.054-0.002 0.083-0.002 0.379 0 0.726 0.131 1 0.351l-0.003-0.002c0.246 0.204 0.401 0.51 0.401 0.852 0 0.014-0 0.029-0.001 0.043l0-0.002c0.001 0.016 0.001 0.034 0.001 0.052 0 0.317-0.106 0.61-0.284 0.845l0.003-0.004c-0.284 0.325-0.625 0.594-1.008 0.791l-0.019 0.009c-0.473 0.257-0.859 0.618-1.139 1.054l-0.007 0.012c-0.18 0.35-0.286 0.763-0.286 1.201 0 0.112 0.007 0.223 0.020 0.332l-0.001-0.013v0.44h2.067v-0.467c-0.001-0.019-0.001-0.041-0.001-0.063 0-0.325 0.1-0.626 0.271-0.875l-0.003 0.005c0.299-0.328 0.652-0.6 1.046-0.804l0.021-0.010c0.994-0.494 1.665-1.502 1.667-2.666v-0c0.001-0.032 0.002-0.069 0.002-0.106 0-0.847-0.395-1.601-1.010-2.090l-0.006-0.004c-0.665-0.48-1.496-0.767-2.395-0.767-0.086 0-0.172 0.003-0.257 0.008l0.012-0.001zM16 3c-7.18 0-13 5.82-13 13s5.82 13 13 13c7.18 0 13-5.82 13-13v0c-0.008-7.177-5.823-12.992-12.999-13h-0.001zM16 27c-6.075 0-11-4.925-11-11s4.925-11 11-11c6.075 0 11 4.925 11 11v0c-0.008 6.072-4.928 10.992-10.999 11h-0.001z"></path>
</svg>
