<!-- Generated by IcoMoon.io -->
<svg version="1.1" xmlns="http://www.w3.org/2000/svg" width="32" height="32" viewBox="0 0 32 32">
<title>history</title>
<path d="M16 3c-7.155 0.013-12.95 5.817-12.95 12.973 0 3.49 1.378 6.659 3.621 8.991l-0.004-0.004h-3.067c-0.552 0-1 0.448-1 1s0.448 1 1 1v0h5.333c0.549-0.007 0.993-0.451 1-0.999v-5.334c0-0.552-0.448-1-1-1s-1 0.448-1 1v0 2.813c-1.787-1.946-2.883-4.552-2.883-7.413 0-6.060 4.913-10.973 10.973-10.973s10.973 4.913 10.973 10.973c0 6.060-4.913 10.973-10.973 10.973-0.008 0-0.017 0-0.025-0h0.001c-0.951-0.009-1.869-0.13-2.747-0.35l0.081 0.017c-0.071-0.018-0.152-0.028-0.235-0.028-0.465 0-0.857 0.313-0.976 0.741l-0.002 0.007c-0.019 0.073-0.030 0.156-0.030 0.242 0 0.468 0.322 0.861 0.756 0.97l0.007 0.001c0.96 0.254 2.063 0.4 3.2 0.4 7.18 0 13-5.82 13-13s-5.82-13-13-13c-0.019 0-0.037 0-0.056 0h0.003zM16 8.56c-0.549 0.007-0.993 0.451-1 0.999v6.441c0 0.276 0.112 0.526 0.293 0.707v0l2.813 2.813c0.181 0.181 0.431 0.293 0.707 0.293h0c0.275-0.006 0.523-0.117 0.707-0.294l-0 0c0.181-0.181 0.292-0.431 0.292-0.707s-0.112-0.526-0.292-0.707v0l-2.52-2.52v-6.027c-0.007-0.549-0.451-0.993-0.999-1h-0.001z"></path>
</svg>
