<!-- Generated by IcoMoon.io -->
<svg version="1.1" xmlns="http://www.w3.org/2000/svg" width="32" height="32" viewBox="0 0 32 32">
<title>info</title>
<path d="M16 29c-7.18 0-13-5.82-13-13s5.82-13 13-13c7.18 0 13 5.82 13 13v0c-0.008 7.177-5.823 12.992-12.999 13h-0.001zM16 5c-6.075 0-11 4.925-11 11s4.925 11 11 11c6.075 0 11-4.925 11-11v0c-0.008-6.072-4.928-10.992-10.999-11h-0.001zM16 22.053c-0.549-0.007-0.993-0.451-1-0.999v-6.667c0-0.552 0.448-1 1-1s1 0.448 1 1v0 6.667c-0.007 0.549-0.451 0.993-0.999 1h-0.001zM16 12c-0.139-0.002-0.272-0.026-0.395-0.069l0.009 0.003c-0.24-0.117-0.43-0.306-0.544-0.54l-0.003-0.007c-0.051-0.113-0.080-0.245-0.080-0.384 0-0.001 0-0.002 0-0.003v0c0-0.001 0-0.002 0-0.004 0-0.134 0.029-0.261 0.082-0.375l-0.002 0.006c0.055-0.13 0.131-0.241 0.226-0.333l0-0c0.184-0.175 0.433-0.282 0.707-0.282s0.523 0.107 0.707 0.282l-0-0c0.173 0.181 0.28 0.428 0.28 0.699 0 0.003 0 0.005-0 0.008v-0c0 0.011 0.001 0.023 0.001 0.036 0 0.126-0.025 0.247-0.070 0.357l0.002-0.006c-0.053 0.124-0.125 0.23-0.214 0.32l0-0c-0.177 0.181-0.424 0.293-0.696 0.293-0.004 0-0.007-0-0.011-0h0.001z"></path>
</svg>
