<!-- Generated by IcoMoon.io -->
<svg version="1.1" xmlns="http://www.w3.org/2000/svg" width="32" height="32" viewBox="0 0 32 32">
<title>language</title>
<path d="M16 3c-7.18 0-13 5.82-13 13s5.82 13 13 13c7.18 0 13-5.82 13-13v0c-0.008-7.177-5.823-12.992-12.999-13h-0.001zM26.413 19.507h-4.627c0.226-1.053 0.357-2.264 0.36-3.504v-0.002c-0.007-1.098-0.109-2.167-0.297-3.206l0.017 0.113h4.413c0.038 0.004 0.082 0.006 0.127 0.006s0.089-0.002 0.132-0.006l-0.006 0c0.293 0.925 0.464 1.989 0.467 3.092v0.002c-0.003 1.256-0.218 2.462-0.61 3.583l0.023-0.077zM12.227 19.507c-0.237-1.048-0.373-2.252-0.373-3.488 0-0.007 0-0.013 0-0.020v0.001c0.008-1.099 0.119-2.167 0.325-3.201l-0.018 0.107h7.68c0.188 0.927 0.299 1.995 0.307 3.087l0 0.006c-0.001 1.233-0.137 2.434-0.394 3.59l0.020-0.11zM19.213 21.507c-0.77 1.957-1.858 3.632-3.218 5.045l0.005-0.005c-1.357-1.415-2.447-3.099-3.178-4.963l-0.036-0.103zM5.587 19.507c-0.369-1.045-0.583-2.25-0.587-3.505v-0.001c-0-0.008-0-0.017-0-0.026 0-1.114 0.171-2.187 0.487-3.196l-0.020 0.076c0.038 0.004 0.082 0.006 0.127 0.006s0.089-0.002 0.132-0.006l-0.006 0h4.413c-0.174 0.944-0.276 2.032-0.28 3.143v0.003c0.005 1.235 0.136 2.436 0.38 3.595l-0.020-0.115h-4.493zM12.68 10.907c0.747-2.122 1.88-3.942 3.326-5.459l-0.006 0.006c1.44 1.512 2.573 3.331 3.287 5.348l0.033 0.105zM25.733 10.907h-4.333c-0.648-2.137-1.638-3.994-2.92-5.608l0.026 0.034c3.156 0.756 5.733 2.792 7.198 5.515l0.029 0.059zM13.493 5.333c-1.231 1.582-2.199 3.439-2.797 5.455l-0.030 0.118h-4.4c1.493-2.782 4.070-4.818 7.152-5.558l0.075-0.015zM6.467 21.48h4.2c0.679 1.989 1.644 3.711 2.865 5.218l-0.025-0.032c-3.019-0.722-5.506-2.603-7.012-5.136l-0.028-0.051zM18.467 26.707c1.204-1.487 2.178-3.222 2.831-5.107l0.036-0.12h4.24c-1.537 2.591-4.035 4.475-6.992 5.172l-0.075 0.015z"></path>
</svg>
