<!-- Generated by IcoMoon.io -->
<svg version="1.1" xmlns="http://www.w3.org/2000/svg" width="32" height="32" viewBox="0 0 32 32">
<title>location</title>
<path d="M16 29c-0.001 0-0.003 0-0.005 0-0.275 0-0.523-0.112-0.702-0.293l-7.027-7.027c-1.985-1.982-3.213-4.721-3.213-7.748 0-6.046 4.901-10.947 10.947-10.947s10.947 4.901 10.947 10.947c0 3.026-1.228 5.766-3.213 7.747l-7.027 7.027c-0.179 0.181-0.427 0.293-0.702 0.293-0.002 0-0.003 0-0.005 0h0zM9.68 20.267l6.32 6.32 6.32-6.32c1.623-1.62 2.627-3.859 2.627-6.332 0-4.941-4.006-8.947-8.947-8.947s-8.947 4.006-8.947 8.947c0 2.474 1.004 4.713 2.627 6.332l0 0zM16 18.667c-2.592 0-4.693-2.101-4.693-4.693s2.101-4.693 4.693-4.693c2.592 0 4.693 2.101 4.693 4.693 0 0.005 0 0.009-0 0.014v-0.001c-0.008 2.586-2.106 4.68-4.693 4.68 0 0-0 0-0 0v0zM16 11.293c-1.473 0-2.667 1.194-2.667 2.667s1.194 2.667 2.667 2.667c1.473 0 2.667-1.194 2.667-2.667v0c0-0.012 0-0.026 0-0.040 0-1.473-1.194-2.667-2.667-2.667-0 0-0 0-0 0v0z"></path>
</svg>
