<!-- Generated by IcoMoon.io -->
<svg version="1.1" xmlns="http://www.w3.org/2000/svg" width="32" height="32" viewBox="0 0 32 32">
<title>logout</title>
<path d="M24 9.853c-0.181-0.181-0.431-0.292-0.707-0.292s-0.526 0.112-0.707 0.292v0c-0.184 0.179-0.298 0.43-0.298 0.707s0.114 0.527 0.298 0.706l0 0c1.672 1.67 2.707 3.979 2.707 6.528 0 5.096-4.131 9.227-9.227 9.227s-9.227-4.131-9.227-9.227c0-2.55 1.034-4.858 2.707-6.528l0-0c0.184-0.179 0.298-0.43 0.298-0.707s-0.114-0.527-0.298-0.706l-0-0c-0.181-0.181-0.431-0.292-0.707-0.292s-0.526 0.112-0.707 0.292v0c-2.027 2.029-3.28 4.83-3.28 7.925 0 6.193 5.020 11.213 11.213 11.213s11.213-5.020 11.213-11.213c0-3.094-1.253-5.896-3.28-7.925l0 0zM11.72 9.333c0.003 0 0.007 0 0.010 0 0.273 0 0.52-0.112 0.696-0.293l0-0 2.573-2.587v11.92c0 0.552 0.448 1 1 1s1-0.448 1-1v0-11.96l2.573 2.56c0.181 0.181 0.431 0.292 0.707 0.292s0.526-0.112 0.707-0.292v0c0.181-0.181 0.292-0.431 0.292-0.707s-0.112-0.526-0.292-0.707v0l-4.307-4.267c-0.175-0.175-0.414-0.286-0.679-0.293l-0.001-0c-0.276 0-0.526 0.112-0.707 0.293v0l-4.28 4.307c-0.181 0.181-0.292 0.431-0.292 0.707s0.112 0.526 0.292 0.707v0c0.179 0.189 0.428 0.309 0.705 0.32l0.002 0z"></path>
</svg>
