<!-- Generated by IcoMoon.io -->
<svg version="1.1" xmlns="http://www.w3.org/2000/svg" width="32" height="32" viewBox="0 0 32 32">
<title>messages</title>
<path d="M5.333 27.667c-0.14-0.001-0.273-0.030-0.393-0.082l0.006 0.003c-0.363-0.151-0.613-0.503-0.613-0.913 0-0.002 0-0.005 0-0.007v0-19.2c0-1.731 1.403-3.133 3.133-3.133v0h17.067c1.73 0 3.133 1.403 3.133 3.133v0 12.8c0 1.73-1.403 3.133-3.133 3.133v0h-14.52l-4 4c-0.178 0.165-0.417 0.267-0.68 0.267-0 0-0 0-0 0v0zM7.467 6.333c-0.626 0-1.133 0.507-1.133 1.133v0 16.787l2.56-2.56c0.181-0.181 0.431-0.293 0.707-0.293h14.933c0.626 0 1.133-0.507 1.133-1.133v0-12.8c0-0.626-0.507-1.133-1.133-1.133v0zM21.333 17.64h-10.667c-0.552 0-1-0.448-1-1s0.448-1 1-1v0h10.667c0.552 0 1 0.448 1 1s-0.448 1-1 1v0zM21.333 12.307h-10.667c-0.552 0-1-0.448-1-1s0.448-1 1-1v0h10.667c0.552 0 1 0.448 1 1s-0.448 1-1 1v0z"></path>
</svg>
