<!-- Generated by IcoMoon.io -->
<svg version="1.1" xmlns="http://www.w3.org/2000/svg" width="32" height="32" viewBox="0 0 32 32">
<title>messages-filled</title>
<path d="M24.533 4.333h-17.067c-1.731 0-3.133 1.403-3.133 3.133v0 19.2c0 0.002-0 0.004-0 0.007 0 0.41 0.25 0.762 0.607 0.911l0.007 0.002c0.114 0.050 0.247 0.079 0.386 0.080h0c0.276-0.003 0.524-0.115 0.707-0.294l4-4h14.493c1.73 0 3.133-1.403 3.133-3.133v0-12.773c0-1.731-1.403-3.133-3.133-3.133v0zM21.333 17.667h-10.667c-0.552 0-1-0.448-1-1s0.448-1 1-1v0h10.667c0.552 0 1 0.448 1 1s-0.448 1-1 1v0zM21.333 12.333h-10.667c-0.552 0-1-0.448-1-1s0.448-1 1-1v0h10.667c0.552 0 1 0.448 1 1s-0.448 1-1 1v0z"></path>
</svg>
