<!-- Generated by IcoMoon.io -->
<svg version="1.1" xmlns="http://www.w3.org/2000/svg" width="32" height="32" viewBox="0 0 32 32">
<title>mic-on</title>
<path d="M15.907 21c2.025 0 3.667-1.642 3.667-3.667v0-8c0-2.025-1.642-3.667-3.667-3.667s-3.667 1.642-3.667 3.667v0 8c0 2.025 1.642 3.667 3.667 3.667v0zM23.667 17.333c0-0.552-0.448-1-1-1s-1 0.448-1 1v0c0 0 0 0 0 0 0 3.099-2.493 5.615-5.583 5.653l-0.004 0h-0.16c-3.093-0.038-5.587-2.554-5.587-5.653 0-0 0-0 0-0v0c0-0.552-0.448-1-1-1s-1 0.448-1 1v0c0.008 3.875 2.89 7.076 6.627 7.582l0.040 0.004v1.747c0 0.552 0.448 1 1 1s1-0.448 1-1v0-1.72c3.782-0.512 6.667-3.72 6.667-7.601 0-0.004 0-0.009 0-0.013v0.001z"></path>
</svg>
