<!-- Generated by IcoMoon.io -->
<svg version="1.1" xmlns="http://www.w3.org/2000/svg" width="32" height="32" viewBox="0 0 32 32">
<title>mic-off</title>
<path d="M19.573 9.333c0-2.025-1.642-3.667-3.667-3.667v0c-0.002 0-0.004 0-0.006 0-1.305 0-2.449 0.686-3.092 1.718l-0.009 0.015 6.773 6.773zM26.013 24.627l-18.667-18.667c-0.178-0.166-0.418-0.268-0.682-0.268-0.552 0-1 0.448-1 1 0 0.264 0.102 0.504 0.269 0.682l-0.001-0.001 6.307 6.307v3.653c0 0.002 0 0.004 0 0.007 0 2.018 1.636 3.653 3.653 3.653 1.011 0 1.925-0.41 2.587-1.073l0-0 1.52 1.413c-0.995 0.985-2.356 1.601-3.862 1.627l-0.005 0h-0.16c-3.107-0.008-5.625-2.521-5.64-5.625v-0.001c0-0.552-0.448-1-1-1s-1 0.448-1 1v0c0.008 3.875 2.89 7.076 6.627 7.582l0.040 0.004v1.747c0 0.552 0.448 1 1 1s1-0.448 1-1v0-1.72c1.711-0.236 3.206-1.023 4.332-2.172l0.001-0.001 3.267 3.267c0.181 0.181 0.431 0.292 0.707 0.292s0.526-0.112 0.707-0.292v0c0.181-0.181 0.292-0.431 0.292-0.707s-0.112-0.526-0.292-0.707v0zM23.667 17.333c0-0.552-0.448-1-1-1v0c-0.003-0-0.006-0-0.009-0-0.249 0-0.476 0.096-0.645 0.254l0.001-0.001 1.573 1.573c0.037-0.234 0.066-0.519 0.079-0.808l0.001-0.019z"></path>
</svg>
