<!-- Generated by IcoMoon.io -->
<svg version="1.1" xmlns="http://www.w3.org/2000/svg" width="32" height="32" viewBox="0 0 32 32">
<title>my-courses-new</title>
<path d="M24 27.667h-21.333c-0.549-0.007-0.993-0.451-1-0.999v-16.001c0-0.552 0.448-1 1-1s1 0.448 1 1v0 15h20.333c0.552 0 1 0.448 1 1s-0.448 1-1 1v0zM29.333 4.333h-21.333c-0.549 0.007-0.993 0.451-1 0.999v16.001c0.007 0.549 0.451 0.993 0.999 1h21.334c0.549-0.007 0.993-0.451 1-0.999v-16.001c-0.007-0.549-0.451-0.993-0.999-1h-0.001zM20.973 13.96l-3.88 2.24c-0.102 0.059-0.224 0.093-0.355 0.093-0.002 0-0.004 0-0.006-0h0c-0.004 0-0.010 0-0.015 0-0.132 0-0.255-0.035-0.362-0.095l0.004 0.002c-0.216-0.129-0.358-0.361-0.36-0.626v-4.48c0.007-0.4 0.332-0.721 0.733-0.721 0.132 0 0.256 0.035 0.364 0.096l-0.004-0.002 3.88 2.24c0.216 0.124 0.36 0.353 0.36 0.616 0 0.004-0 0.008-0 0.011v-0.001c-0.002 0.266-0.144 0.497-0.357 0.625l-0.003 0.002z"></path>
</svg>
