<!-- Generated by IcoMoon.io -->
<svg version="1.1" xmlns="http://www.w3.org/2000/svg" width="32" height="32" viewBox="0 0 32 32">
<title>my-library</title>
<path d="M30.667 4.707h-29.333c-0.563 0-1.020-0.457-1.020-1.020s0.457-1.020 1.020-1.020v0h29.333c0.552 0 1 0.448 1 1s-0.448 1-1 1v0zM10.667 24.4h-9.333c-0.552 0-1-0.448-1-1s0.448-1 1-1v0h9.333c0.552 0 1 0.448 1 1s-0.448 1-1 1v0zM10.667 13.893h-9.333c-0.552 0-1-0.448-1-1s0.448-1 1-1v0h9.333c0.552 0 1 0.448 1 1s-0.448 1-1 1v0zM30.667 29.333c-0.001 0-0.002 0-0.003 0-0.139 0-0.271-0.029-0.39-0.082l0.006 0.002-6.293-2.667-6.253 2.667c-0.113 0.046-0.245 0.073-0.383 0.073-0.21 0-0.405-0.062-0.568-0.169l0.004 0.002c-0.272-0.179-0.45-0.482-0.453-0.826v-15.281c0 0 0-0 0-0 0-1.601 1.294-2.899 2.893-2.907h9.521c1.602 0.008 2.899 1.304 2.907 2.906v15.241c-0.004 0.345-0.182 0.647-0.45 0.824l-0.004 0.002c-0.143 0.123-0.328 0.202-0.531 0.213l-0.002 0zM24 24.56c0.003 0 0.006-0 0.009-0 0.277 0 0.539 0.059 0.777 0.165l-0.012-0.005 4.893 2.093v-13.76c-0.007-0.498-0.409-0.899-0.906-0.907h-9.521c-0 0-0 0-0 0-0.493 0-0.893 0.4-0.893 0.893 0 0.005 0 0.009 0 0.014v-0.001 13.72l4.893-2.093c0.224-0.101 0.485-0.159 0.76-0.16h0z"></path>
</svg>
