<!-- Generated by IcoMoon.io -->
<svg version="1.1" xmlns="http://www.w3.org/2000/svg" width="32" height="32" viewBox="0 0 32 32">
<title>new-slide</title>
<path d="M28 21.8c-0.542-0.013-0.977-0.455-0.977-1 0-0.12 0.021-0.234 0.059-0.341l-0.002 0.007c0.156-0.362 0.509-0.611 0.921-0.611 0.275 0 0.525 0.111 0.705 0.291l-0-0c0.093 0.087 0.166 0.194 0.211 0.314l0.002 0.006c0.051 0.115 0.081 0.249 0.081 0.391 0 0.275-0.112 0.524-0.294 0.703l-0 0c-0.087 0.093-0.194 0.166-0.314 0.211l-0.006 0.002c-0.077 0.022-0.166 0.035-0.258 0.035-0.045 0-0.090-0.003-0.134-0.009l0.005 0.001zM24.253 20.8c0.007-0.549 0.451-0.993 0.999-1h0.001c0.552 0 1 0.448 1 1v0 0c0 0.004 0 0.009 0 0.013 0 0.545-0.442 0.987-0.987 0.987-0.005 0-0.009-0-0.014-0h0.001c-0.552 0-1-0.448-1-1v0zM21.52 20.8c0-0.552 0.448-1 1-1v0 0c0.549 0.007 0.993 0.451 1 0.999v0.001c0 0.552-0.448 1-1 1v0 0c-0.004 0-0.009 0-0.013 0-0.545 0-0.987-0.442-0.987-0.987 0-0.005 0-0.009 0-0.014v0.001zM18.773 20.8c0-0.552 0.448-1 1-1v0 0c0.549 0.007 0.993 0.451 1 0.999v0.001c0 0.552-0.448 1-1 1v0 0c-0.004 0-0.009 0-0.013 0-0.545 0-0.987-0.442-0.987-0.987 0-0.005 0-0.009 0-0.014v0.001zM16 20.8c0.007-0.549 0.451-0.993 0.999-1h0.001c0.552 0 1 0.448 1 1v0 0c0 0.004 0 0.009 0 0.013 0 0.545-0.442 0.987-0.987 0.987-0.005 0-0.009-0-0.014-0h0.001c-0.552 0-1-0.448-1-1v0zM13.333 20.8c0-0.552 0.448-1 1-1v0 0c0.549 0.007 0.993 0.451 1 0.999v0.001c0 0.552-0.448 1-1 1v0 0c-0.004 0-0.009 0-0.013 0-0.545 0-0.987-0.442-0.987-0.987 0-0.005 0-0.009 0-0.014v0.001zM10.587 20.8c0-0.552 0.448-1 1-1v0 0c0.549 0.007 0.993 0.451 1 0.999v0.001c0 0.552-0.448 1-1 1v0 0c-0.016 0.001-0.035 0.001-0.053 0.001-0.545 0-0.987-0.442-0.987-0.987 0-0.005 0-0.010 0-0.016v0.001zM8.8 21.8c-0.552-0-0.999-0.448-0.999-1 0-0.276 0.112-0.526 0.292-0.707v0c0.181-0.18 0.43-0.291 0.705-0.291 0.412 0 0.766 0.249 0.919 0.605l0.002 0.006c0.050 0.114 0.079 0.247 0.080 0.386v0c0 0.001 0 0.002 0 0.003 0 0.139-0.029 0.271-0.082 0.39l0.002-0.006c-0.053 0.124-0.125 0.23-0.214 0.32l0-0c-0.181 0.181-0.431 0.293-0.707 0.293h-0zM7.8 17.92c0.007-0.549 0.451-0.993 0.999-1h0.001c0.552 0 1 0.448 1 1v0 0c0 0.004 0 0.009 0 0.013 0 0.545-0.442 0.987-0.987 0.987-0.005 0-0.009-0-0.014-0h0.001c-0.552 0-1-0.448-1-1v0zM7.8 15.040c0.007-0.549 0.451-0.993 0.999-1h0.001c0.552 0 1 0.448 1 1v0 0c-0.015 0.533-0.451 0.96-0.986 0.96-0.005 0-0.010-0-0.014-0h0.001c-0 0-0.001 0-0.001 0-0.538 0-0.977-0.425-0.999-0.958l-0-0.002zM7.8 12.16c0.007-0.549 0.451-0.993 0.999-1h0.001c0.552 0 1 0.448 1 1v0 0c0 0.004 0 0.009 0 0.013 0 0.545-0.442 0.987-0.987 0.987-0.005 0-0.009-0-0.014-0h0.001c-0.552 0-1-0.448-1-1v0zM7.8 9.333c0.007-0.549 0.451-0.993 0.999-1h0.001c0.552 0 1 0.448 1 1v0 0c0 0.004 0 0.009 0 0.013 0 0.545-0.442 0.987-0.987 0.987-0.005 0-0.009-0-0.014-0h0.001c-0.552 0-1-0.448-1-1v0zM8.8 7.4c-0.552 0-1-0.448-1-1v0c0-0.001 0-0.002 0-0.004 0-0.134 0.029-0.261 0.082-0.375l-0.002 0.006c0.050-0.13 0.122-0.241 0.213-0.333l-0 0c0.184-0.175 0.433-0.282 0.707-0.282s0.523 0.107 0.707 0.282l-0-0c0.091 0.092 0.163 0.203 0.211 0.327l0.002 0.007c0.051 0.109 0.080 0.236 0.080 0.37 0 0.001 0 0.003 0 0.004v-0c0 0.003 0 0.007 0 0.010 0 0.273-0.112 0.52-0.293 0.696l-0 0c-0.181 0.181-0.431 0.293-0.707 0.293h-0zM24.253 6.4c0.007-0.549 0.451-0.993 0.999-1h0.001c0.552 0 1 0.448 1 1v0 0c0 0.004 0 0.009 0 0.013 0 0.545-0.442 0.987-0.987 0.987-0.005 0-0.009-0-0.014-0h0.001c-0.552 0-1-0.448-1-1v0zM21.52 6.4c0-0.552 0.448-1 1-1v0 0c0.549 0.007 0.993 0.451 1 0.999v0.001c0 0.552-0.448 1-1 1v0 0c-0.004 0-0.009 0-0.013 0-0.545 0-0.987-0.442-0.987-0.987 0-0.005 0-0.009 0-0.014v0.001zM18.773 6.4c0-0.552 0.448-1 1-1v0 0c0.549 0.007 0.993 0.451 1 0.999v0.001c0 0.552-0.448 1-1 1v0 0c-0.004 0-0.009 0-0.013 0-0.545 0-0.987-0.442-0.987-0.987 0-0.005 0-0.009 0-0.014v0.001zM16 6.4c0.007-0.549 0.451-0.993 0.999-1h0.001c0.552 0 1 0.448 1 1v0 0c0 0.004 0 0.009 0 0.013 0 0.545-0.442 0.987-0.987 0.987-0.005 0-0.009-0-0.014-0h0.001c-0.552 0-1-0.448-1-1v0zM13.333 6.4c0.007-0.549 0.451-0.993 0.999-1h0.001c0.552 0 1 0.448 1 1v0 0c0 0.004 0 0.009 0 0.013 0 0.545-0.442 0.987-0.987 0.987-0.005 0-0.009-0-0.014-0h0.001c-0.552 0-1-0.448-1-1v0zM10.6 6.4c0-0.552 0.448-1 1-1v0 0c0.549 0.007 0.993 0.451 1 0.999v0.001c0 0.552-0.448 1-1 1v0 0c-0.020 0.001-0.043 0.002-0.067 0.002-0.545 0-0.987-0.442-0.987-0.987 0-0.005 0-0.011 0-0.016v0.001zM28 7.4c-0.276-0-0.526-0.112-0.707-0.293v0c-0.088-0.090-0.16-0.196-0.211-0.313l-0.003-0.007c-0.051-0.113-0.080-0.245-0.080-0.384 0-0.001 0-0.002 0-0.003v0c0.013-0.542 0.455-0.977 1-0.977 0.12 0 0.234 0.021 0.341 0.059l-0.007-0.002c0.124 0.053 0.23 0.125 0.32 0.214l-0-0c0.181 0.181 0.293 0.431 0.293 0.707v0c0 0.001 0 0.002 0 0.003 0 0.139-0.029 0.271-0.082 0.39l0.002-0.006c-0.102 0.242-0.291 0.431-0.527 0.531l-0.006 0.002c-0.098 0.044-0.211 0.073-0.331 0.080l-0.003 0zM27 17.92c0.007-0.549 0.451-0.993 0.999-1h0.001c0.549 0.007 0.993 0.451 1 0.999v0.001c0 0.552-0.448 1-1 1v0 0c-0.552 0-1-0.448-1-1v0zM27 15.040c0.007-0.549 0.451-0.993 0.999-1h0.001c0.549 0.007 0.993 0.451 1 0.999v0.001c-0.022 0.535-0.461 0.96-0.999 0.96-0 0-0.001 0-0.001 0h0c-0 0-0.001 0-0.001 0-0.538 0-0.977-0.425-0.999-0.958l-0-0.002zM27 12.16c0.007-0.549 0.451-0.993 0.999-1h0.001c0.549 0.007 0.993 0.451 1 0.999v0.001c0 0.552-0.448 1-1 1v0 0c-0.552 0-1-0.448-1-1v0zM27 9.28c0.007-0.549 0.451-0.993 0.999-1h0.001c0.549 0.007 0.993 0.451 1 0.999v0.001c0 0.552-0.448 1-1 1v0 0c-0 0-0.001 0-0.001 0-0.534 0-0.969-0.418-0.998-0.944l-0-0.003zM23.2 26.667h-19.2c-0.549-0.007-0.993-0.451-1-0.999v-14.467c0-0.552 0.448-1 1-1s1 0.448 1 1v0 13.333h18.2c0.552 0 1 0.448 1 1s-0.448 1-1 1v0zM20.907 12.6h-1.333v-1.333c0-0.552-0.448-1-1-1s-1 0.448-1 1v0 1.333h-1.467c-0.552 0-1 0.448-1 1s0.448 1 1 1v0h1.4v1.4c0 0.552 0.448 1 1 1s1-0.448 1-1v0-1.333h1.333c0.552 0 1-0.448 1-1s-0.448-1-1-1v0z"></path>
</svg>
