<!-- Generated by IcoMoon.io -->
<svg version="1.1" xmlns="http://www.w3.org/2000/svg" width="32" height="32" viewBox="0 0 32 32">
<title>offline</title>
<path d="M16 29c-7.18 0-13-5.82-13-13s5.82-13 13-13c7.18 0 13 5.82 13 13v0c-0.008 7.177-5.823 12.992-12.999 13h-0.001zM16 5c-6.075 0-11 4.925-11 11s4.925 11 11 11c6.075 0 11-4.925 11-11v0c-0.008-6.072-4.928-10.992-10.999-11h-0.001zM14.28 18.253c-0.275-0.006-0.523-0.117-0.707-0.294l0 0-3.027-3.040c-0.178-0.182-0.287-0.432-0.287-0.707 0-0.56 0.454-1.014 1.014-1.014 0.285 0 0.542 0.118 0.726 0.307l0 0 2.32 2.333 5.68-5.76c0.178-0.166 0.418-0.268 0.682-0.268 0.552 0 1 0.448 1 1 0 0.264-0.102 0.504-0.269 0.682l0.001-0.001-6.467 6.467c-0.171 0.172-0.405 0.282-0.665 0.293l-0.002 0zM21.147 22.213h-10.293c-0.552 0-1-0.448-1-1s0.448-1 1-1v0h10.293c0.552 0 1 0.448 1 1s-0.448 1-1 1v0z"></path>
</svg>
