<!-- Generated by IcoMoon.io -->
<svg version="1.1" xmlns="http://www.w3.org/2000/svg" width="32" height="32" viewBox="0 0 32 32">
<title>pdf</title>
<path d="M10.947 17.947h-1.547c-0.317 0-0.573 0.257-0.573 0.573v0 4.147c0 0.317 0.257 0.573 0.573 0.573s0.573-0.257 0.573-0.573v0-1.027h0.853c0.072 0.010 0.156 0.016 0.24 0.016 1.031 0 1.867-0.836 1.867-1.867 0-0.015-0-0.030-0.001-0.044l0 0.002c0-0.012 0-0.026 0-0.040 0-0.979-0.794-1.773-1.773-1.773-0.075 0-0.15 0.005-0.222 0.014l0.009-0.001zM11.773 19.773c-0.012 0.44-0.371 0.792-0.813 0.792-0.033 0-0.066-0.002-0.097-0.006l0.004 0h-0.893v-1.587h0.88c0.56 0 0.92 0.28 0.92 0.787zM15.8 17.947h-1.453c-0.317 0-0.573 0.257-0.573 0.573v0 4c0 0.317 0.257 0.573 0.573 0.573v0h1.453c0.048 0.003 0.105 0.005 0.161 0.005 1.429 0 2.587-1.158 2.587-2.587 0-0.030-0-0.060-0.002-0.089l0 0.004c-0.048-1.383-1.181-2.486-2.572-2.486-0.062 0-0.123 0.002-0.183 0.006l0.008-0zM17.333 20.547c0.001 0.021 0.002 0.045 0.002 0.069 0 0.817-0.663 1.48-1.48 1.48-0.029 0-0.057-0.001-0.086-0.002l0.004 0h-0.893v-3.12h0.893c0.020-0.001 0.044-0.002 0.068-0.002 0.825 0 1.493 0.669 1.493 1.493 0 0.024-0.001 0.048-0.002 0.072l0-0.003zM23.040 17.947h-2.907c-0.317 0-0.573 0.257-0.573 0.573v0 4.147c0 0.317 0.257 0.573 0.573 0.573s0.573-0.257 0.573-0.573v0-1.547h1.96c0.287 0 0.52-0.233 0.52-0.52s-0.233-0.52-0.52-0.52h-2v-1.107h2.333c0.249-0.041 0.437-0.255 0.437-0.513s-0.188-0.472-0.434-0.513l-0.003-0zM27.587 10.28c-0.053-0.124-0.125-0.23-0.214-0.32l-6.666-6.666c-0.090-0.088-0.196-0.16-0.313-0.211l-0.007-0.003c-0.113-0.051-0.245-0.080-0.384-0.080-0.001 0-0.002 0-0.003 0h-14.666c-0.549 0.007-0.993 0.451-1 0.999v24.001c0.007 0.549 0.451 0.993 0.999 1h21.334c0.549-0.007 0.993-0.451 1-0.999v-17.334c0-0.001 0-0.002 0-0.003 0-0.139-0.029-0.271-0.082-0.39l0.002 0.006zM21 6.413l3.253 3.253h-3.253zM6.333 27v-22h12.667v5.667c0.007 0.549 0.451 0.993 0.999 1h5.667v15.333z"></path>
</svg>
