<!-- Generated by IcoMoon.io -->
<svg version="1.1" xmlns="http://www.w3.org/2000/svg" width="32" height="32" viewBox="0 0 32 32">
<title>photo-outline</title>
<path d="M25.52 3h-19.040c-1.922 0-3.48 1.558-3.48 3.48v0 19.040c0 1.922 1.558 3.48 3.48 3.48v0h19.040c1.922 0 3.48-1.558 3.48-3.48v0-19.040c0-1.922-1.558-3.48-3.48-3.48v0zM6.48 5h19.040c0.817 0 1.48 0.663 1.48 1.48v18.747l-6.893-8.347c-0.193-0.208-0.468-0.338-0.773-0.338s-0.58 0.13-0.773 0.337l-0.001 0.001-5.653 6.853-2.573-3.107c-0.191-0.208-0.464-0.337-0.767-0.337s-0.576 0.13-0.766 0.337l-0.001 0.001-3.8 4.6v-18.747c0-0.817 0.663-1.48 1.48-1.48v0zM6.48 27c-0.113-0.011-0.217-0.035-0.316-0.070l0.009 0.003 3.4-4.093 2.56 3.093c0.187 0.215 0.461 0.351 0.767 0.351s0.58-0.135 0.766-0.349l0.001-0.001 5.667-6.84 6.493 7.84c-0.089 0.032-0.193 0.055-0.301 0.066l-0.006 0zM10.587 14.973c2.025 0 3.667-1.642 3.667-3.667s-1.642-3.667-3.667-3.667c-2.025 0-3.667 1.642-3.667 3.667v0c0 2.025 1.642 3.667 3.667 3.667v0zM10.587 9.64c0.92 0 1.667 0.746 1.667 1.667s-0.746 1.667-1.667 1.667c-0.92 0-1.667-0.746-1.667-1.667v0c0-0.92 0.746-1.667 1.667-1.667v0z"></path>
</svg>
