<!-- Generated by IcoMoon.io -->
<svg version="1.1" xmlns="http://www.w3.org/2000/svg" width="32" height="32" viewBox="0 0 32 32">
<title>play-circle</title>
<path d="M16 3c-7.18 0-13 5.82-13 13s5.82 13 13 13c7.18 0 13-5.82 13-13v0c-0.008-7.177-5.823-12.992-12.999-13h-0.001zM20.987 17.173l-5.907 3.4c-0.191 0.115-0.42 0.184-0.666 0.187h-0.001c-0.251-0-0.486-0.069-0.686-0.19l0.006 0.003c-0.408-0.233-0.679-0.665-0.68-1.16v-6.827c0.001-0.495 0.272-0.927 0.673-1.157l0.007-0.003c0.191-0.112 0.421-0.179 0.667-0.179s0.475 0.066 0.673 0.182l-0.006-0.003 5.907 3.4c0.42 0.23 0.7 0.669 0.7 1.173s-0.28 0.943-0.693 1.17l-0.007 0.003z"></path>
</svg>
