<!-- Generated by IcoMoon.io -->
<svg version="1.1" xmlns="http://www.w3.org/2000/svg" width="32" height="32" viewBox="0 0 32 32">
<title>plus</title>
<path d="M30.52 4.333h-28.44c-0.552 0-1 0.448-1 1v0 16c0 0.552 0.448 1 1 1v0h28.44c0.549-0.007 0.993-0.451 1-0.999v-16.001c-0.007-0.549-0.451-0.993-0.999-1h-0.001zM29.52 20.333h-26.44v-14h26.44zM23.413 25.667h-14.227c-0.552 0-1 0.448-1 1s0.448 1 1 1v0h14.227c0.552 0 1-0.448 1-1s-0.448-1-1-1v0zM12.747 14.333h2.547v2.56c0 0.552 0.448 1 1 1s1-0.448 1-1v0-2.56h2.56c0.552 0 1-0.448 1-1s-0.448-1-1-1v0h-2.52v-2.56c0-0.552-0.448-1-1-1s-1 0.448-1 1v0 2.56h-2.587c-0.552 0-1 0.448-1 1s0.448 1 1 1v0z"></path>
</svg>
