<!-- Generated by IcoMoon.io -->
<svg version="1.1" xmlns="http://www.w3.org/2000/svg" width="32" height="32" viewBox="0 0 32 32">
<title>plus-new</title>
<path d="M22.293 26h-12c-0.552 0-1-0.448-1-1s0.448-1 1-1v0h12c0.552 0 1 0.448 1 1s-0.448 1-1 1v0zM28.293 6h-24c-0.549 0.007-0.993 0.451-1 0.999v13.494c0 0.552 0.448 1 1 1v0h24c0.004 0 0.009 0 0.013 0 0.545 0 0.987-0.442 0.987-0.987 0-0.005-0-0.009-0-0.014v0.001-13.493c0-0.552-0.448-1-1-1v0zM19.293 14.747h-1.96v2c0 0.552-0.448 1-1 1s-1-0.448-1-1v0-2h-2c-0.552 0-1-0.448-1-1s0.448-1 1-1v0h2v-2c0-0.552 0.448-1 1-1s1 0.448 1 1v0 2h2c0.552 0 1 0.448 1 1s-0.448 1-1 1v0z"></path>
</svg>
