<!-- Generated by IcoMoon.io -->
<svg version="1.1" xmlns="http://www.w3.org/2000/svg" width="32" height="32" viewBox="0 0 32 32">
<title>profile</title>
<path d="M16 16.773c3.682 0 6.667-2.985 6.667-6.667s-2.985-6.667-6.667-6.667c-3.682 0-6.667 2.985-6.667 6.667v0c0 3.682 2.985 6.667 6.667 6.667v0zM16 5.44c2.577 0 4.667 2.089 4.667 4.667s-2.089 4.667-4.667 4.667c-2.577 0-4.667-2.089-4.667-4.667v0c0-2.577 2.089-4.667 4.667-4.667v0zM17.427 18.547h-2.853c-4.978 0-9.013 4.035-9.013 9.013v0c0 0.552 0.448 1 1 1s1-0.448 1-1v0c0.008-3.87 3.143-7.006 7.013-7.013h2.854c3.87 0.008 7.006 3.143 7.013 7.013v0.001c0 0.552 0.448 1 1 1s1-0.448 1-1v0c0-4.978-4.035-9.013-9.013-9.013v0z"></path>
</svg>
