<!-- Generated by IcoMoon.io -->
<svg version="1.1" xmlns="http://www.w3.org/2000/svg" width="32" height="32" viewBox="0 0 32 32">
<title>refer</title>
<path d="M27.533 9.2h-5.107c0.515-0.225 0.956-0.521 1.335-0.882l-0.002 0.002c0.588-0.603 0.951-1.427 0.951-2.337 0-0.512-0.115-0.996-0.32-1.43l0.009 0.020c-0.78-1.728-2.489-2.909-4.473-2.909-0.059 0-0.117 0.001-0.175 0.003l0.008-0c-2.2 0-3.267 1.907-3.787 3.813-0.52-1.907-1.6-3.813-3.8-3.813-0.051-0.002-0.111-0.003-0.171-0.003-1.987 0-3.698 1.181-4.469 2.879l-0.013 0.031c-0.193 0.412-0.306 0.895-0.306 1.404 0 0.91 0.361 1.737 0.947 2.344l-0.001-0.001c0.379 0.355 0.82 0.651 1.303 0.868l0.030 0.012h-5.027c-0.552 0-1 0.448-1 1v0 6.587c0.007 0.483 0.359 0.881 0.821 0.959l0.006 0.001v8.92c0.007 0.549 0.451 0.993 0.999 1h21.374c0.549-0.007 0.993-0.451 1-0.999v-8.921c0.467-0.079 0.82-0.477 0.827-0.959v-6.587c0-0 0-0.001 0-0.001 0-0.538-0.425-0.977-0.958-0.999l-0.002-0zM19.747 3.667c0.048-0.003 0.104-0.004 0.161-0.004 1.159 0 2.16 0.675 2.632 1.654l0.008 0.017c0.092 0.183 0.145 0.399 0.145 0.627 0 0.364-0.136 0.695-0.36 0.947l0.001-0.001c-0.8 0.8-3.067 1.2-4.813 1.333 0.16-1.76 0.72-4.573 2.227-4.573zM9.333 5.333c0.483-0.996 1.487-1.671 2.648-1.671 0.054 0 0.107 0.001 0.16 0.004l-0.007-0c1.52 0 2.080 2.813 2.24 4.547-1.76-0.107-4-0.507-4.827-1.333-0.218-0.249-0.35-0.577-0.35-0.936 0-0.222 0.051-0.432 0.141-0.619l-0.004 0.009zM14.973 25.667h-8.68v-7.88h8.707zM25.64 25.667h-8.64v-7.88h8.707zM26.667 15.067c0 0.004 0 0.009 0 0.013 0 0.228-0.185 0.413-0.413 0.413-0 0-0 0-0 0h-20.533c-0.217-0.014-0.387-0.194-0.387-0.412 0-0.005 0-0.010 0-0.015l-0 0.001v-3.16c0-0.228 0.185-0.413 0.413-0.413v0h20.48c0.228 0 0.413 0.185 0.413 0.413v0z"></path>
</svg>
