<!-- Generated by IcoMoon.io -->
<svg version="1.1" xmlns="http://www.w3.org/2000/svg" width="32" height="32" viewBox="0 0 32 32">
<title>reorder</title>
<path d="M28 20.333h-24c-0.552 0-1-0.448-1-1s0.448-1 1-1v0h24c0.552 0 1 0.448 1 1s-0.448 1-1 1v0zM28 13.667h-24c-0.552 0-1-0.448-1-1s0.448-1 1-1v0h24c0.552 0 1 0.448 1 1s-0.448 1-1 1v0zM28 27h-24c-0.552 0-1-0.448-1-1s0.448-1 1-1v0h24c0.552 0 1 0.448 1 1s-0.448 1-1 1v0zM28 7h-24c-0.552 0-1-0.448-1-1s0.448-1 1-1v0h24c0.552 0 1 0.448 1 1s-0.448 1-1 1v0z"></path>
</svg>
