<!-- Generated by IcoMoon.io -->
<svg version="1.1" xmlns="http://www.w3.org/2000/svg" width="32" height="32" viewBox="0 0 32 32">
<title>reply</title>
<path d="M28 25c-0.003 0-0.007 0-0.010 0-0.33 0-0.622-0.162-0.801-0.41l-0.002-0.003c-3.027-4.24-7.227-6.32-13.187-6.533v1.333c0 0.002 0 0.005 0 0.007 0 0.976-0.6 1.813-1.451 2.161l-0.016 0.006c-0.271 0.117-0.586 0.185-0.917 0.185-0.652 0-1.242-0.265-1.67-0.692l-6.253-6.267c-0.426-0.427-0.689-1.016-0.689-1.667s0.263-1.24 0.689-1.667l6.253-6.267c0.424-0.4 0.997-0.646 1.627-0.646 1.294 0 2.346 1.036 2.373 2.323l0 0.003v1.333c7.933 1.453 13.24 6.973 14.987 15.653 0.011 0.055 0.017 0.119 0.017 0.185 0 0.414-0.245 0.77-0.597 0.933l-0.006 0.003c-0.076 0.020-0.164 0.031-0.254 0.031-0.033 0-0.065-0.001-0.097-0.004l0.004 0zM13 16c5.333 0 9.573 1.333 12.84 4.107-2.052-5.505-6.986-9.479-12.918-10.114l-0.068-0.006c-0.485-0.074-0.852-0.487-0.853-0.987v-2.173c0-0.002 0-0.005 0-0.007 0-0.156-0.099-0.289-0.238-0.339l-0.002-0.001c-0.040-0.017-0.087-0.028-0.136-0.028-0.099 0-0.188 0.041-0.251 0.107l-6.267 6.267c-0.068 0.063-0.11 0.153-0.11 0.253s0.042 0.19 0.11 0.253l6.267 6.267c0.067 0.066 0.16 0.107 0.261 0.107 0.050 0 0.098-0.010 0.141-0.028l-0.002 0.001c0.133-0.046 0.227-0.17 0.227-0.316 0-0.006-0-0.012-0.001-0.018l0 0.001v-2.307c-0.001-0.012-0.001-0.026-0.001-0.040 0-0.552 0.448-1 1-1 0 0 0.001 0 0.001 0h-0z"></path>
</svg>
