<!-- Generated by IcoMoon.io -->
<svg version="1.1" xmlns="http://www.w3.org/2000/svg" width="32" height="32" viewBox="0 0 32 32">
<title>report-triangle</title>
<path d="M28 27.387h-24c-0.004 0-0.008 0-0.012 0-0.363 0-0.681-0.196-0.852-0.489l-0.003-0.005c-0.082-0.144-0.13-0.316-0.13-0.5s0.048-0.356 0.133-0.505l-0.003 0.005 12-20.787c0.189-0.282 0.506-0.465 0.867-0.465s0.678 0.183 0.864 0.461l0.002 0.004 12 20.787c0.082 0.144 0.13 0.316 0.13 0.5s-0.048 0.356-0.133 0.505l0.003-0.005c-0.174 0.297-0.491 0.493-0.855 0.493-0.004 0-0.009-0-0.013-0h0.001zM5.733 25.333h20.533l-10.267-17.72zM16 19.147c-0.549-0.007-0.993-0.451-1-0.999v-3.481c0-0.552 0.448-1 1-1s1 0.448 1 1v0 3.427c0 0.012 0.001 0.026 0.001 0.040 0 0.555-0.447 1.006-1 1.013h-0.001zM16 22.56c-0.011 0-0.023 0.001-0.036 0.001-0.126 0-0.247-0.025-0.357-0.070l0.006 0.002c-0.124-0.053-0.23-0.125-0.32-0.214l0 0c-0.179-0.182-0.29-0.431-0.293-0.706v-0.001c-0-0.003-0-0.007-0-0.010 0-0.273 0.112-0.52 0.293-0.696l0-0c0.184-0.175 0.433-0.282 0.707-0.282s0.523 0.107 0.707 0.282l-0-0c0.181 0.177 0.293 0.424 0.293 0.696 0 0.004-0 0.007-0 0.011v-0.001c-0 0.276-0.112 0.526-0.293 0.707v0c-0.090 0.088-0.196 0.16-0.313 0.211l-0.007 0.003c-0.104 0.043-0.224 0.067-0.351 0.067-0.013 0-0.025-0-0.038-0.001l0.002 0z"></path>
</svg>
