<!-- Generated by IcoMoon.io -->
<svg version="1.1" xmlns="http://www.w3.org/2000/svg" width="32" height="32" viewBox="0 0 32 32">
<title>report</title>
<path d="M5.333 27.667c-0.14-0.001-0.273-0.030-0.393-0.082l0.006 0.003c-0.363-0.151-0.613-0.503-0.613-0.913 0-0.002 0-0.005 0-0.007v0-19.2c0-1.731 1.403-3.133 3.133-3.133v0h17.067c1.73 0 3.133 1.403 3.133 3.133v0 12.8c0 1.73-1.403 3.133-3.133 3.133v0h-14.52l-4 4c-0.179 0.163-0.418 0.264-0.679 0.267h-0.001zM7.467 6.333c-0.626 0-1.133 0.507-1.133 1.133v0 16.787l2.56-2.56c0.181-0.181 0.431-0.293 0.707-0.293h14.933c0.626 0 1.133-0.507 1.133-1.133v0-12.8c0-0.626-0.507-1.133-1.133-1.133v0zM16 14.907c-0.549-0.007-0.993-0.451-1-0.999v-3.601c0-0.552 0.448-1 1-1s1 0.448 1 1v0 3.6c-0.007 0.549-0.451 0.993-0.999 1h-0.001zM16 18.333c-0.004 0-0.009 0-0.014 0-0.135 0-0.263-0.029-0.378-0.082l0.006 0.002c-0.128-0.055-0.239-0.127-0.334-0.214l0.001 0.001c-0.181-0.181-0.293-0.431-0.293-0.707v-0c0.002-0.14 0.031-0.273 0.083-0.394l-0.003 0.007c0.059-0.122 0.13-0.228 0.214-0.321l-0.001 0.001c0.094-0.088 0.205-0.16 0.326-0.211l0.007-0.003c0.112-0.050 0.243-0.080 0.38-0.080s0.268 0.029 0.386 0.082l-0.006-0.002c0.129 0.053 0.239 0.125 0.334 0.214l-0.001-0.001c0.083 0.092 0.154 0.198 0.21 0.312l0.003 0.008c0.049 0.114 0.078 0.247 0.080 0.386v0.001c-0 0.276-0.112 0.526-0.293 0.707v0c-0.185 0.173-0.432 0.283-0.705 0.293l-0.002 0z"></path>
</svg>
