<!-- Generated by IcoMoon.io -->
<svg version="1.1" xmlns="http://www.w3.org/2000/svg" width="32" height="32" viewBox="0 0 32 32">
<title>rewind</title>
<path d="M3.507 15.133l11.16-6.453c0.144-0.082 0.316-0.13 0.5-0.13s0.356 0.048 0.505 0.133l-0.005-0.003c0.297 0.18 0.492 0.5 0.493 0.867v5.733l0.147-0.147 11.187-6.453c0.144-0.082 0.316-0.13 0.5-0.13s0.356 0.048 0.505 0.133l-0.005-0.003c0.297 0.18 0.492 0.5 0.493 0.867v12.907c-0.001 0.366-0.197 0.687-0.489 0.864l-0.005 0.003c-0.143 0.084-0.315 0.133-0.499 0.133-0.003 0-0.005 0-0.008-0h0c-0.005 0-0.010 0-0.016 0-0.176 0-0.341-0.050-0.481-0.136l0.004 0.002-11.187-6.453-0.147-0.147v5.733c-0.001 0.366-0.197 0.687-0.489 0.864l-0.005 0.003c-0.143 0.084-0.315 0.133-0.499 0.133-0.003 0-0.005 0-0.008-0h0c-0.005 0-0.010 0-0.016 0-0.176 0-0.341-0.050-0.481-0.136l0.004 0.002-11.16-6.453c-0.302-0.176-0.501-0.498-0.501-0.867s0.199-0.691 0.496-0.864l0.005-0.003z"></path>
</svg>
