<!-- Generated by IcoMoon.io -->
<svg version="1.1" xmlns="http://www.w3.org/2000/svg" width="32" height="32" viewBox="0 0 32 32">
<title>rupee-outline</title>
<path d="M16 3c-7.18 0-13 5.82-13 13s5.82 13 13 13c7.18 0 13-5.82 13-13v0c-0.008-7.177-5.823-12.992-12.999-13h-0.001zM16 27c-6.075 0-11-4.925-11-11s4.925-11 11-11c6.075 0 11 4.925 11 11v0c-0.008 6.072-4.928 10.992-10.999 11h-0.001zM16.893 12.36h1.693c0.018 0.002 0.039 0.002 0.059 0.002 0.195 0 0.371-0.077 0.501-0.203l-0 0c0.112-0.118 0.183-0.277 0.187-0.453v-0.001c-0.001-0.189-0.072-0.362-0.187-0.494l0.001 0.001c-0.131-0.125-0.309-0.202-0.505-0.202-0.019 0-0.038 0.001-0.057 0.002l0.003-0h-5.173c-0.018-0.002-0.039-0.002-0.059-0.002-0.195 0-0.371 0.077-0.501 0.203l0-0c-0.116 0.12-0.187 0.283-0.187 0.463 0 0.001 0 0.003 0 0.004v-0c-0 0.002-0 0.004-0 0.007 0 0.183 0.071 0.35 0.187 0.474l-0-0c0.131 0.125 0.309 0.202 0.505 0.202 0.019 0 0.038-0.001 0.057-0.002l-0.002 0h0.56c0.079-0.013 0.171-0.020 0.264-0.020 0.653 0 1.223 0.353 1.531 0.878l0.005 0.008h-2.36c-0.018-0.002-0.039-0.002-0.059-0.002-0.195 0-0.371 0.077-0.501 0.203l0-0c-0.115 0.117-0.186 0.277-0.187 0.453v0c-0 0.009-0.001 0.020-0.001 0.032 0 0.368 0.298 0.667 0.667 0.667 0.028 0 0.056-0.002 0.084-0.005l-0.003 0h2.427c-0.054 0.215-0.161 0.4-0.307 0.547l0-0c-0.134 0.146-0.293 0.267-0.471 0.356l-0.009 0.004c-0.18 0.079-0.39 0.144-0.609 0.184l-0.018 0.003c-0.102 0.010-0.22 0.015-0.34 0.015s-0.238-0.006-0.355-0.016l0.015 0.001h-0.080c-0.010-0-0.022-0.001-0.035-0.001-0.232 0-0.445 0.086-0.607 0.228l0.001-0.001c-0.157 0.151-0.254 0.362-0.254 0.596 0 0.011 0 0.021 0.001 0.032l-0-0.002c0.005 0.202 0.074 0.387 0.188 0.536l-0.002-0.002c0.136 0.19 0.285 0.356 0.451 0.504l0.003 0.003 2.973 2.8c0.139 0.13 0.291 0.249 0.454 0.353l0.013 0.007c0.151 0.1 0.336 0.16 0.535 0.16 0.004 0 0.008-0 0.013-0h-0.001c0.013 0.001 0.028 0.001 0.043 0.001 0.236 0 0.451-0.092 0.611-0.241l-0 0c0.156-0.144 0.254-0.35 0.254-0.579 0-0.012-0-0.024-0.001-0.036l0 0.002c0-0.009 0.001-0.020 0.001-0.031 0-0.141-0.040-0.273-0.109-0.385l0.002 0.003c-0.074-0.127-0.158-0.236-0.254-0.334l0 0-2.573-2.347c0.289-0.053 0.544-0.127 0.788-0.223l-0.028 0.010c0.296-0.104 0.553-0.249 0.778-0.431l-0.005 0.004c0.252-0.194 0.461-0.428 0.62-0.695l0.006-0.011c0.174-0.308 0.292-0.67 0.332-1.055l0.001-0.012h0.72c0.018 0.002 0.039 0.002 0.059 0.002 0.195 0 0.371-0.077 0.501-0.203l-0 0c0.112-0.118 0.183-0.277 0.187-0.453v-0.001c-0.001-0.189-0.072-0.362-0.187-0.494l0.001 0.001c-0.131-0.125-0.309-0.202-0.505-0.202-0.019 0-0.038 0.001-0.057 0.002l0.003-0h-0.893c-0.1-0.169-0.22-0.314-0.358-0.438l-0.002-0.002c-0.131-0.128-0.28-0.238-0.443-0.328l-0.011-0.005s0 0 0 0z"></path>
</svg>
