<!-- Generated by IcoMoon.io -->
<svg version="1.1" xmlns="http://www.w3.org/2000/svg" width="32" height="32" viewBox="0 0 32 32">
<title>save-outline</title>
<path d="M25.333 29c-0.144-0.001-0.282-0.030-0.407-0.083l0.007 0.003-8.8-3.773c-0.039-0.019-0.085-0.030-0.133-0.030s-0.094 0.011-0.135 0.031l0.002-0.001-8.8 3.773c-0.118 0.053-0.255 0.083-0.399 0.083-0.204 0-0.393-0.061-0.551-0.165l0.004 0.002c-0.272-0.185-0.449-0.491-0.453-0.839v-21.334c0-2.025 1.642-3.667 3.667-3.667v0h13.333c2.025 0 3.667 1.642 3.667 3.667v0 21.333c-0.004 0.349-0.181 0.655-0.45 0.838l-0.004 0.002c-0.153 0.1-0.341 0.16-0.543 0.16-0.001 0-0.003 0-0.004 0h0zM16 23.12c0.337 0.003 0.657 0.071 0.95 0.193l-0.017-0.006 7.4 3.173v-19.813c0-0.92-0.746-1.667-1.667-1.667v0h-13.333c-0.915 0.008-1.653 0.751-1.653 1.667 0 0 0 0 0 0v0 19.813l7.413-3.173c0.268-0.115 0.579-0.183 0.905-0.187h0.001z"></path>
</svg>
