<!-- Generated by IcoMoon.io -->
<svg version="1.1" xmlns="http://www.w3.org/2000/svg" width="32" height="32" viewBox="0 0 32 32">
<title>send</title>
<path d="M27.653 16.067v-0.067c0.003-0.022 0.005-0.047 0.005-0.073s-0.002-0.051-0.005-0.076l0 0.003c0.003-0.012 0.004-0.026 0.004-0.040s-0.002-0.028-0.005-0.041l0 0.001c-0.001-0.020-0.002-0.043-0.002-0.067s0.001-0.047 0.002-0.070l-0 0.003c-0.039-0.072-0.079-0.133-0.123-0.19l0.003 0.004-0.093-0.107c-0.057-0.053-0.123-0.098-0.195-0.131l-0.005-0.002h-0.067l-21.427-9.88c-0.121-0.054-0.262-0.086-0.41-0.086-0.269 0-0.514 0.104-0.697 0.273l0.001-0.001c-0.197 0.189-0.319 0.455-0.319 0.749 0 0.143 0.029 0.28 0.081 0.404l-0.003-0.007 3.733 9.333-3.733 9.333c-0.040 0.103-0.063 0.222-0.063 0.347 0 0.545 0.442 0.987 0.987 0.987 0.003 0 0.007-0 0.010-0h-0c0.062 0.013 0.134 0.020 0.207 0.020s0.145-0.007 0.214-0.021l-0.007 0.001 21.333-9.707c0.071-0.034 0.132-0.074 0.188-0.121l-0.001 0.001 0.080-0.067c0.092-0.078 0.165-0.176 0.211-0.288l0.002-0.005s0 0 0-0.080c0.051-0.097 0.084-0.21 0.093-0.33l0-0.003zM22.053 15h-12.16l-2.667-6.76zM7.187 23.76l2.667-6.76h12.16z"></path>
</svg>
