<!-- Generated by IcoMoon.io -->
<svg version="1.1" xmlns="http://www.w3.org/2000/svg" width="32" height="32" viewBox="0 0 32 32">
<title>settings</title>
<path d="M16 20.427c-2.445 0-4.427-1.982-4.427-4.427s1.982-4.427 4.427-4.427c2.445 0 4.427 1.982 4.427 4.427v0c0 2.445-1.982 4.427-4.427 4.427v0zM16 13.573c-1.34 0-2.427 1.086-2.427 2.427s1.086 2.427 2.427 2.427c1.34 0 2.427-1.086 2.427-2.427v0c-0.008-1.337-1.090-2.419-2.426-2.427h-0.001zM16 29c-0.003 0-0.006 0-0.009 0-0.942 0-1.859-0.107-2.74-0.309l0.082 0.016c-0.829-0.184-1.44-0.913-1.44-1.785 0-0.015 0-0.029 0.001-0.043l-0 0.002v-1.333c-0.414-0.163-0.766-0.337-1.099-0.538l0.032 0.018c-0.386-0.214-0.713-0.426-1.024-0.657l0.024 0.017-1.093 0.68c-0.275 0.176-0.61 0.281-0.97 0.281-0.528 0-1.004-0.226-1.335-0.587l-0.001-0.001c-1.215-1.323-2.163-2.913-2.747-4.668l-0.026-0.092c-0.054-0.166-0.086-0.356-0.086-0.554 0-0.696 0.386-1.301 0.956-1.614l0.010-0.005 1.12-0.493c-0.050-0.356-0.079-0.768-0.080-1.186v-0.001c-0-0.029-0.001-0.063-0.001-0.098 0-0.384 0.024-0.762 0.072-1.133l-0.005 0.044-1.133-0.6c-0.599-0.315-1-0.933-1-1.645 0-0.208 0.034-0.408 0.097-0.594l-0.004 0.013c0.569-1.858 1.484-3.462 2.679-4.814l-0.012 0.014c0.338-0.371 0.823-0.603 1.362-0.603 0.354 0 0.685 0.1 0.966 0.274l-0.008-0.005 1.107 0.667c0.282-0.219 0.6-0.435 0.931-0.63l0.042-0.023c0.289-0.177 0.635-0.36 0.992-0.522l0.062-0.025v-1.333c-0.001-0.023-0.002-0.050-0.002-0.076 0-0.865 0.597-1.591 1.402-1.788l0.013-0.003c0.829-0.194 1.782-0.305 2.76-0.305s1.931 0.111 2.845 0.321l-0.085-0.016c0.829 0.184 1.44 0.913 1.44 1.785 0 0.015-0 0.029-0 0.043l0-0.002v1.333c0.426 0.183 0.776 0.361 1.114 0.559l-0.047-0.025c0.386 0.214 0.713 0.426 1.024 0.657l-0.024-0.017 1.093-0.68c0.275-0.176 0.61-0.281 0.97-0.281 0.528 0 1.004 0.226 1.335 0.587l0.001 0.001c1.221 1.326 2.174 2.92 2.76 4.682l0.026 0.092c0.054 0.166 0.085 0.356 0.085 0.554 0 0.696-0.386 1.301-0.956 1.614l-0.010 0.005-1.12 0.613c0.050 0.356 0.079 0.768 0.080 1.186v0.001c0 0.029 0.001 0.063 0.001 0.098 0 0.384-0.024 0.762-0.072 1.133l0.005-0.044 1.133 0.6c0.59 0.314 0.985 0.926 0.985 1.629 0 0.189-0.029 0.372-0.082 0.544l0.003-0.013c-0.573 1.857-1.487 3.461-2.679 4.814l0.012-0.014c-0.338 0.371-0.823 0.603-1.362 0.603-0.354 0-0.685-0.1-0.966-0.274l0.008 0.005-1.107-0.667c-0.285 0.219-0.607 0.435-0.943 0.63l-0.043 0.023c-0.289 0.177-0.635 0.36-0.992 0.522l-0.062 0.025v1.333c0.001 0.023 0.002 0.050 0.002 0.076 0 0.865-0.597 1.591-1.402 1.788l-0.013 0.003c-0.719 0.141-1.545 0.222-2.39 0.222-0.163 0-0.325-0.003-0.487-0.009l0.023 0.001zM13.893 26.787c0.657 0.143 1.412 0.225 2.187 0.225s1.529-0.082 2.257-0.238l-0.070 0.013v-1.867c-0-0.008-0-0.017-0-0.026 0-0.43 0.268-0.798 0.647-0.945l0.007-0.002c0.545-0.193 1.011-0.413 1.451-0.674l-0.038 0.021c0.479-0.29 0.893-0.589 1.281-0.918l-0.014 0.012c0.174-0.156 0.405-0.252 0.658-0.252 0.191 0 0.368 0.054 0.519 0.148l-0.004-0.002 1.587 0.96c0.937-1.063 1.671-2.331 2.125-3.725l0.021-0.075-1.64-0.867c-0.313-0.173-0.522-0.501-0.522-0.878 0-0.062 0.006-0.122 0.016-0.181l-0.001 0.006c0.085-0.468 0.133-1.006 0.133-1.555 0-0.002 0-0.004 0-0.005v0c-0.003-0.549-0.061-1.083-0.169-1.598l0.009 0.052c-0.011-0.056-0.017-0.121-0.017-0.187 0-0.375 0.203-0.702 0.506-0.877l0.005-0.003 1.627-0.893c-0.518-1.469-1.29-2.73-2.273-3.794l0.007 0.007-1.52 0.987c-0.151 0.092-0.333 0.146-0.528 0.146-0.252 0-0.482-0.090-0.66-0.241l0.002 0.001c-0.39-0.319-0.827-0.615-1.288-0.87l-0.045-0.023c-0.401-0.24-0.867-0.465-1.353-0.647l-0.060-0.020c-0.392-0.146-0.667-0.517-0.667-0.952 0-0.007 0-0.015 0-0.022l-0 0.001v-1.853c-0.657-0.143-1.412-0.225-2.187-0.225s-1.529 0.082-2.257 0.238l0.070-0.013v1.867c0 0.008 0 0.017 0 0.026 0 0.43-0.268 0.798-0.647 0.945l-0.007 0.002c-0.545 0.193-1.011 0.413-1.451 0.674l0.038-0.021c-0.507 0.286-0.943 0.586-1.35 0.92l0.016-0.013c-0.17 0.143-0.391 0.229-0.632 0.229-0.117 0-0.23-0.021-0.335-0.058l0.007 0.002-1.627-0.96c-0.937 1.063-1.671 2.331-2.125 3.725l-0.021 0.075 1.64 0.867c0.313 0.173 0.522 0.501 0.522 0.878 0 0.062-0.006 0.122-0.016 0.181l0.001-0.006c-0.085 0.467-0.133 1.006-0.133 1.555 0 0.002 0 0.004 0 0.005v-0c0.003 0.549 0.061 1.083 0.169 1.599l-0.009-0.052c0.011 0.056 0.017 0.121 0.017 0.187 0 0.375-0.203 0.702-0.506 0.877l-0.005 0.003-1.627 0.893c0.501 1.455 1.251 2.708 2.208 3.77l-0.008-0.010 1.52-0.987c0.149-0.093 0.329-0.147 0.523-0.147 0.249 0 0.477 0.091 0.652 0.242l-0.001-0.001c0.39 0.314 0.826 0.609 1.285 0.868l0.048 0.025c0.425 0.249 0.919 0.474 1.435 0.65l0.058 0.017c0.392 0.146 0.667 0.517 0.667 0.952 0 0.007-0 0.015-0 0.022l0-0.001zM18.267 26.88v0z"></path>
</svg>
