<!-- Generated by IcoMoon.io -->
<svg version="1.1" xmlns="http://www.w3.org/2000/svg" width="32" height="32" viewBox="0 0 32 32">
<title>share</title>
<path d="M3.6 24.933c-0.4-0.133-0.667-0.667-0.533-1.067 1.733-8.667 7.067-14.267 14.933-15.6v-1.333c0-0.533 0.267-1.2 0.667-1.6 0.933-0.933 2.4-0.933 3.333-0.133l6.267 6.267c0.933 0.933 0.933 2.4 0 3.333l-6.267 6.267c-0.667 0.667-1.733 0.933-2.533 0.533-0.933-0.4-1.467-1.2-1.467-2.133v-1.333c-6 0.267-10.133 2.267-13.2 6.533-0.133 0.267-0.533 0.4-0.8 0.4-0.133 0-0.267 0-0.4-0.133zM19.067 16c0.533 0 0.933 0.533 0.933 1.067v2.267c0 0.133 0.133 0.267 0.267 0.267s0.267 0 0.4-0.133l6.267-6.267c0 0 0 0 0 0 0.133-0.133 0.133-0.4 0-0.533l-6.267-6.267c-0.133-0.133-0.267-0.133-0.4-0.133-0.133 0.267-0.267 0.4-0.267 0.533v2.133c0 0.533-0.4 0.933-0.8 0.933-5.867 0.667-10.933 4.533-12.933 10.133 3.2-2.667 7.333-4 12.8-4 0 0 0 0 0 0z"></path>
</svg>
