<!-- Generated by IcoMoon.io -->
<svg version="1.1" xmlns="http://www.w3.org/2000/svg" width="32" height="32" viewBox="0 0 32 32">
<title>slides-outline</title>
<path d="M28 5.667h-16c-0.549 0.007-0.993 0.451-1 0.999v3.001h-3c-0.549 0.007-0.993 0.451-1 0.999v3.001h-3c-0.549 0.007-0.993 0.451-1 0.999v10.667c0.007 0.549 0.451 0.993 0.999 1h16.001c0.549-0.007 0.993-0.451 1-0.999v-3.001h3c0.549-0.007 0.993-0.451 1-0.999v-3.001h3c0.549-0.007 0.993-0.451 1-0.999v-10.667c-0.007-0.549-0.451-0.993-0.999-1h-0.001zM19 24.333h-14v-8.667h14zM23 20.333h-2v-5.667c-0.007-0.549-0.451-0.993-0.999-1h-11.001v-2h14zM27 16.333h-2v-5.667c-0.007-0.549-0.451-0.993-0.999-1h-11.001v-2h14z"></path>
</svg>
