<!-- Generated by IcoMoon.io -->
<svg version="1.1" xmlns="http://www.w3.org/2000/svg" width="32" height="32" viewBox="0 0 32 32">
<title>sound-on-outline</title>
<path d="M15.093 24.827c-0.379-0.001-0.727-0.131-1.003-0.349l0.003 0.003-5.427-4.173h-3.333c-0.549-0.007-0.993-0.451-1-0.999v-6.667c0.036-0.526 0.469-0.941 0.999-0.947h3.334l5.427-4.173c0.277-0.216 0.63-0.347 1.014-0.347 0.913 0 1.653 0.74 1.653 1.653 0 0.010-0 0.019-0 0.029l0-0.001v14.32c0 0.002 0 0.004 0 0.006 0 0.644-0.371 1.201-0.91 1.469l-0.010 0.004c-0.211 0.109-0.46 0.174-0.725 0.174-0.008 0-0.015-0-0.023-0h0.001zM8.987 18.28c0.001 0 0.003 0 0.004 0 0.225 0 0.432 0.075 0.598 0.202l-0.002-0.002 5.16 4v-12.933l-5.16 4c-0.165 0.128-0.375 0.206-0.603 0.206-0.089 0-0.175-0.012-0.257-0.034l0.007 0.002h-2.4v4.613h2.453zM19.68 20.773c-0.552-0-0.999-0.448-0.999-1 0-0.269 0.107-0.514 0.28-0.694l-0 0c0.769-0.797 1.242-1.883 1.242-3.080s-0.473-2.283-1.243-3.081l0.001 0.001c-0.094-0.149-0.149-0.331-0.149-0.525 0-0.552 0.448-1 1-1 0.221 0 0.426 0.072 0.592 0.194l-0.003-0.002c1.114 1.156 1.801 2.731 1.801 4.467s-0.686 3.311-1.803 4.469l0.002-0.002c-0.174 0.158-0.407 0.255-0.662 0.255-0.020 0-0.041-0.001-0.061-0.002l0.003 0zM19.68 27.173c-0 0-0.001 0-0.001 0-0.552 0-1-0.448-1-1 0-0.423 0.263-0.785 0.634-0.931l0.007-0.002c3.75-1.464 6.358-5.047 6.358-9.24s-2.608-7.776-6.29-9.217l-0.067-0.023c-0.444-0.108-0.768-0.503-0.768-0.973 0-0.552 0.448-1 1-1 0.163 0 0.318 0.039 0.454 0.109l-0.006-0.003c4.494 1.771 7.616 6.074 7.616 11.107s-3.122 9.336-7.535 11.079l-0.081 0.028c-0.094 0.040-0.204 0.065-0.319 0.067h-0.001z"></path>
</svg>
