<!-- Generated by IcoMoon.io -->
<svg version="1.1" xmlns="http://www.w3.org/2000/svg" width="32" height="32" viewBox="0 0 32 32">
<title>sound-off</title>
<path d="M16.747 8.827c0-0.008 0-0.018 0-0.027 0-0.913-0.74-1.653-1.653-1.653-0.384 0-0.737 0.131-1.017 0.35l0.004-0.003-1.827 1.44 4.493 4.493zM4.787 5.467c-0.184-0.178-0.436-0.288-0.713-0.288s-0.529 0.11-0.714 0.289l0-0c-0.181 0.181-0.292 0.431-0.292 0.707s0.112 0.526 0.292 0.707v0l4.813 4.813h-2.84c-0.549 0.007-0.993 0.451-1 0.999v6.667c0.007 0.549 0.451 0.993 0.999 1h3.334l5.427 4.173c0.273 0.215 0.621 0.346 1 0.347h0c0.003 0 0.006 0 0.009 0 0.264 0 0.514-0.064 0.733-0.178l-0.009 0.004c0.549-0.273 0.92-0.83 0.92-1.474 0-0.002 0-0.005 0-0.007v0-2.96l4.16 4.16c-0.455 0.299-0.977 0.572-1.527 0.792l-0.060 0.021c-0.378 0.148-0.641 0.51-0.641 0.933 0 0.552 0.448 1 1 1 0 0 0.001 0 0.001 0h-0c0.008 0 0.017 0 0.026 0 0.121 0 0.236-0.025 0.34-0.069l-0.006 0.002c0.886-0.35 1.651-0.766 2.355-1.263l-0.035 0.023 2.333 2.347c0.183 0.181 0.435 0.294 0.713 0.294s0.53-0.112 0.713-0.294l-0 0c0.181-0.181 0.292-0.431 0.292-0.707s-0.112-0.526-0.292-0.707v0zM20.2 16c-0.002 0.289-0.026 0.57-0.071 0.845l0.004-0.031 1.6 1.6c0.295-0.713 0.466-1.541 0.466-2.409 0-1.737-0.686-3.313-1.802-4.473l0.002 0.002c-0.163-0.12-0.368-0.192-0.589-0.192-0.552 0-1 0.448-1 1 0 0.194 0.055 0.376 0.151 0.529l-0.002-0.004c0.768 0.799 1.24 1.886 1.24 3.084 0 0.018-0 0.035-0 0.052l0-0.003zM19.32 6.76c3.742 1.45 6.347 5.020 6.347 9.199 0 0.014-0 0.029-0 0.043v-0.002c0 0.004 0 0.008 0 0.012 0 1.832-0.495 3.548-1.359 5.022l0.025-0.047 1.453 1.453c1.187-1.818 1.893-4.043 1.893-6.434 0-5.052-3.153-9.367-7.599-11.085l-0.081-0.028c-0.107-0.042-0.231-0.067-0.36-0.067-0.552 0-1 0.448-1 1 0 0.423 0.263 0.785 0.634 0.931l0.007 0.002z"></path>
</svg>
