<!-- Generated by IcoMoon.io -->
<svg version="1.1" xmlns="http://www.w3.org/2000/svg" width="32" height="32" viewBox="0 0 32 32">
<title>sound-off-outline</title>
<path d="M25.4 28.587c-0.001 0-0.003 0-0.005 0-0.275 0-0.523-0.112-0.702-0.293l-21.333-21.333c-0.181-0.181-0.292-0.431-0.292-0.707s0.112-0.526 0.292-0.707v0c0.184-0.178 0.436-0.288 0.713-0.288s0.529 0.11 0.714 0.289l21.333 21.333c0.181 0.181 0.293 0.431 0.293 0.707 0 0.552-0.448 1-1 1-0.004 0-0.009-0-0.013-0h0.001zM14.747 9.547v1.96l2 2v-4.68c0-0.008 0-0.018 0-0.027 0-0.913-0.74-1.653-1.653-1.653-0.384 0-0.737 0.131-1.017 0.35l0.004-0.003-1.867 1.48 1.413 1.427zM4.787 5.547c-0.184-0.178-0.436-0.288-0.713-0.288s-0.529 0.11-0.714 0.289l0-0c-0.181 0.181-0.292 0.431-0.292 0.707s0.112 0.526 0.292 0.707v0l4.733 4.733h-2.76c-0.549 0.007-0.993 0.451-1 0.999v6.667c0.007 0.549 0.451 0.993 0.999 1h3.334l5.427 4.173c0.273 0.215 0.621 0.346 1 0.347h0c0.003 0 0.006 0 0.009 0 0.264 0 0.514-0.064 0.733-0.178l-0.009 0.004c0.549-0.273 0.92-0.83 0.92-1.474 0-0.002 0-0.005 0-0.007v0-2.88l4.107 4.107c-0.441 0.295-0.946 0.56-1.479 0.768l-0.054 0.019c-0.378 0.148-0.641 0.51-0.641 0.933 0 0.552 0.448 1 1 1 0 0 0.001 0 0.001 0h-0c0.008 0 0.017 0 0.026 0 0.121 0 0.236-0.025 0.34-0.069l-0.006 0.002c0.867-0.345 1.614-0.748 2.305-1.225l-0.039 0.025 2.387 2.387c0.183 0.181 0.435 0.294 0.713 0.294s0.53-0.112 0.713-0.294l-0 0c0.181-0.181 0.292-0.431 0.292-0.707s-0.112-0.526-0.292-0.707v0zM14.747 22.453l-5.16-4c-0.161-0.124-0.365-0.199-0.586-0.2h-2.667v-4.56h2.4c0.075 0.021 0.161 0.032 0.25 0.032 0.228 0 0.438-0.077 0.605-0.207l-0.002 0.002 0.187-0.187 4.973 4.973zM20.2 16c-0 0.311-0.029 0.616-0.085 0.91l0.005-0.030 1.587 1.587c0.308-0.725 0.486-1.568 0.486-2.453 0-1.743-0.694-3.325-1.821-4.482l0.001 0.001c-0.163-0.12-0.368-0.192-0.589-0.192-0.552 0-1 0.448-1 1 0 0.194 0.055 0.376 0.151 0.529l-0.002-0.004c0.783 0.802 1.267 1.9 1.267 3.111 0 0.008-0 0.016-0 0.024v-0.001zM19.32 6.76c3.742 1.459 6.345 5.034 6.345 9.217 0 1.869-0.52 3.617-1.423 5.107l0.025-0.044 1.467 1.453c1.206-1.83 1.925-4.074 1.925-6.486 0-5.046-3.142-9.358-7.577-11.086l-0.081-0.028c-0.107-0.042-0.231-0.067-0.36-0.067-0.552 0-1 0.448-1 1 0 0.423 0.263 0.785 0.634 0.931l0.007 0.002z"></path>
</svg>
