<!-- Generated by IcoMoon.io -->
<svg version="1.1" xmlns="http://www.w3.org/2000/svg" width="32" height="32" viewBox="0 0 32 32">
<title>star-circle-outline</title>
<path d="M16 3c-7.18 0-13 5.82-13 13s5.82 13 13 13c7.18 0 13-5.82 13-13v0c-0.008-7.177-5.823-12.992-12.999-13h-0.001zM16 27c-6.075 0-11-4.925-11-11s4.925-11 11-11c6.075 0 11 4.925 11 11v0c-0.008 6.072-4.928 10.992-10.999 11h-0.001zM20.147 13.507l-2.24-0.32-1.013-2.040c-0.185-0.306-0.515-0.508-0.893-0.508s-0.709 0.201-0.891 0.503l-0.003 0.005-1 2.040-2.253 0.32c-0.484 0.075-0.851 0.489-0.851 0.989 0 0.282 0.116 0.536 0.304 0.718l0 0 1.613 1.587-0.373 2.227c-0.010 0.053-0.016 0.114-0.016 0.177 0 0.552 0.448 1 1 1 0.166 0 0.323-0.041 0.461-0.113l-0.006 0.003 2.013-1.067 2 1.067c0.137 0.065 0.297 0.105 0.466 0.107h0.001c0.22-0.001 0.423-0.071 0.59-0.189l-0.003 0.002c0.253-0.181 0.417-0.474 0.417-0.805 0-0.064-0.006-0.127-0.018-0.187l0.001 0.006-0.373-2.227 1.613-1.587c0.189-0.178 0.307-0.43 0.307-0.709 0-0.114-0.020-0.223-0.055-0.324l0.002 0.007c-0.118-0.357-0.422-0.621-0.794-0.679l-0.006-0.001z"></path>
</svg>
