<!-- Generated by IcoMoon.io -->
<svg version="1.1" xmlns="http://www.w3.org/2000/svg" width="32" height="32" viewBox="0 0 32 32">
<title>star-filled</title>
<path d="M28.947 13c-0.118-0.357-0.422-0.621-0.794-0.679l-0.006-0.001-7.773-1.133-3.48-7.040c-0.185-0.306-0.515-0.507-0.893-0.507s-0.709 0.201-0.891 0.503l-0.003 0.005-3.48 7.040-7.773 1.133c-0.484 0.075-0.851 0.489-0.851 0.989 0 0.282 0.116 0.536 0.304 0.718l0 0 5.613 5.48-1.333 7.733c-0.009 0.051-0.014 0.11-0.014 0.169 0 0.334 0.162 0.631 0.412 0.815l0.003 0.002c0.15 0.094 0.332 0.15 0.527 0.15s0.377-0.056 0.531-0.152l-0.004 0.002 6.96-3.587 6.947 3.653c0.135 0.075 0.295 0.12 0.467 0.12h0c0.001 0 0.001 0 0.002 0 0.552 0 1-0.448 1-1 0-0.061-0.006-0.121-0.016-0.179l0.001 0.006-1.333-7.733 5.613-5.48c0.194-0.181 0.315-0.437 0.315-0.723 0-0.109-0.018-0.213-0.050-0.311l0.002 0.007z"></path>
</svg>
