<!-- Generated by IcoMoon.io -->
<svg version="1.1" xmlns="http://www.w3.org/2000/svg" width="32" height="32" viewBox="0 0 32 32">
<title>star-circle</title>
<path d="M16 3c-7.18 0-13 5.82-13 13s5.82 13 13 13c7.18 0 13-5.82 13-13v0c-0.008-7.177-5.823-12.992-12.999-13h-0.001zM20.693 15.213l-1.613 1.587 0.373 2.227c0.011 0.055 0.017 0.117 0.017 0.181 0 0.331-0.163 0.624-0.414 0.803l-0.003 0.002c-0.163 0.116-0.367 0.186-0.586 0.187h-0c-0.17-0.002-0.33-0.041-0.474-0.11l0.007 0.003-2-1.067-2.013 1.067c-0.132 0.069-0.289 0.11-0.456 0.11-0.552 0-1-0.448-1-1 0-0.062 0.006-0.123 0.017-0.183l-0.001 0.006 0.373-2.227-1.613-1.587c-0.188-0.182-0.304-0.436-0.304-0.718 0-0.5 0.366-0.914 0.845-0.988l0.006-0.001 2.253-0.32 1-2.040c0.185-0.306 0.515-0.508 0.893-0.508s0.709 0.201 0.891 0.503l0.003 0.005 1.013 2.040 2.24 0.32c0.378 0.059 0.682 0.323 0.798 0.673l0.002 0.007c0.032 0.094 0.051 0.201 0.051 0.314 0 0.28-0.117 0.533-0.304 0.713l-0 0z"></path>
</svg>
