<!-- Generated by IcoMoon.io -->
<svg version="1.1" xmlns="http://www.w3.org/2000/svg" width="32" height="32" viewBox="0 0 32 32">
<title>switch-camera</title>
<path d="M25.6 6.667h-3.36l-1.427-1.627c-0.479-0.509-1.155-0.829-1.905-0.84l-0.002-0h-5.813c-0.75 0.001-1.424 0.324-1.891 0.838l-0.002 0.002-1.44 1.627h-3.36c-0 0-0 0-0.001 0-1.854 0-3.362 1.484-3.399 3.33l-0 0.004v14.4c0 1.878 1.522 3.4 3.4 3.4v0h19.2c1.878 0 3.4-1.522 3.4-3.4v0-14.4c-0.037-1.849-1.545-3.333-3.399-3.333-0 0-0 0-0.001 0h0zM27 24.4c0.001 0.020 0.002 0.044 0.002 0.068 0 0.736-0.597 1.333-1.333 1.333-0.024 0-0.048-0.001-0.072-0.002l0.003 0h-19.2c-0 0-0.001 0-0.002 0-0.736 0-1.333-0.597-1.333-1.333 0-0.023 0.001-0.047 0.002-0.070l-0 0.003v-14.4c0-0.736 0.597-1.333 1.333-1.333v0h3.8c0.293-0.004 0.556-0.126 0.746-0.32l0-0 1.72-1.96c0.105-0.115 0.256-0.187 0.423-0.187 0.001 0 0.002 0 0.004 0h5.813c0.001 0 0.002 0 0.003 0 0.167 0 0.318 0.072 0.423 0.186l0 0 1.72 1.893c0.19 0.194 0.454 0.316 0.746 0.32h3.801c0.020-0.001 0.043-0.002 0.067-0.002 0.736 0 1.333 0.597 1.333 1.333 0 0.001 0 0.001 0 0.002v-0zM20.427 13.96c-0.183-0.196-0.443-0.318-0.732-0.318-0.552 0-1 0.448-1 1 0 0.289 0.122 0.549 0.318 0.731l0.001 0.001 0.96 0.96h-7.973l0.96-0.96c0.196-0.183 0.318-0.443 0.318-0.732 0-0.552-0.448-1-1-1-0.289 0-0.549 0.122-0.731 0.318l-0.001 0.001-2.667 2.667c-0.184 0.179-0.298 0.43-0.298 0.707s0.114 0.527 0.298 0.706l0 0 2.667 2.667c0.177 0.181 0.424 0.293 0.696 0.293 0.004 0 0.007-0 0.011-0h-0.001c0.001 0 0.003 0 0.005 0 0.275 0 0.523-0.112 0.702-0.293l0-0c0.181-0.181 0.292-0.431 0.292-0.707s-0.112-0.526-0.292-0.707v0l-0.96-0.96h8l-0.96 0.96c-0.181 0.181-0.292 0.431-0.292 0.707s0.112 0.526 0.292 0.707v0c0.179 0.181 0.427 0.293 0.702 0.293 0.002 0 0.003 0 0.005 0h-0c0.003 0 0.007 0 0.010 0 0.273 0 0.52-0.112 0.696-0.293l2.667-2.667c0.181-0.181 0.292-0.431 0.292-0.707s-0.112-0.526-0.292-0.707v0z"></path>
</svg>
