<!-- Generated by IcoMoon.io -->
<svg version="1.1" xmlns="http://www.w3.org/2000/svg" width="32" height="32" viewBox="0 0 32 32">
<title>terms-of-use</title>
<path d="M26.827 5.653h-2.24v-1.653c0-0.552-0.448-1-1-1s-1 0.448-1 1v0 1.653h-13v-1.653c0-0.552-0.448-1-1-1s-1 0.448-1 1v0 1.653h-2.093c-0 0-0 0-0 0-0.552 0-1 0.448-1 1 0 0.005 0 0.009 0 0.014v-0.001 21.333c0 0.552 0.448 1 1 1v0h21.333c0.549-0.007 0.993-0.451 1-0.999v-21.334c0-0 0-0 0-0 0-0.555-0.446-1.006-0.999-1.013h-0.001zM25.827 7.653v3.733h-19.333v-3.733zM6.493 27v-13.667h19.333v13.667zM22.827 18.667h-13.333c-0.552 0-1-0.448-1-1s0.448-1 1-1v0h13.333c0.552 0 1 0.448 1 1s-0.448 1-1 1v0zM22.827 24h-13.333c-0.552 0-1-0.448-1-1s0.448-1 1-1v0h13.333c0.552 0 1 0.448 1 1s-0.448 1-1 1v0z"></path>
</svg>
