<!-- Generated by IcoMoon.io -->
<svg version="1.1" xmlns="http://www.w3.org/2000/svg" width="32" height="32" viewBox="0 0 32 32">
<title>trending-up</title>
<path d="M28.92 8.587c-0.102-0.246-0.291-0.439-0.527-0.544l-0.006-0.003c-0.096-0.027-0.206-0.042-0.319-0.042-0.024 0-0.047 0.001-0.071 0.002l0.003-0h-6.667c-0.552 0-1 0.448-1 1s0.448 1 1 1v0h4.253l-6.667 6.667-4.253-4.28c-0.181-0.181-0.431-0.292-0.707-0.292s-0.526 0.112-0.707 0.292v0l-9.96 9.933c-0.181 0.181-0.292 0.431-0.292 0.707s0.112 0.526 0.292 0.707v0c0.181 0.181 0.431 0.292 0.707 0.292s0.526-0.112 0.707-0.292v0l9.227-9.227 4.267 4.267c0.181 0.181 0.431 0.292 0.707 0.292s0.526-0.112 0.707-0.292v0l7.387-7.387v4.253c0 0.552 0.448 1 1 1s1-0.448 1-1v0-6.667c0-0.001 0-0.002 0-0.003 0-0.139-0.029-0.271-0.082-0.39l0.002 0.006z"></path>
</svg>
