<!-- Generated by IcoMoon.io -->
<svg version="1.1" xmlns="http://www.w3.org/2000/svg" width="32" height="32" viewBox="0 0 32 32">
<title>unlock</title>
<path d="M24.667 10.893h-2.227v-1.333c0-0.001 0-0.002 0-0.003 0-3.557-2.883-6.44-6.44-6.44-2.653 0-4.931 1.604-5.917 3.894l-0.016 0.042c-0.058 0.122-0.092 0.265-0.092 0.415 0 0.415 0.256 0.77 0.618 0.916l0.007 0.002c0.124 0.061 0.269 0.097 0.423 0.097 0.414 0 0.768-0.259 0.908-0.623l0.002-0.007c0.69-1.612 2.262-2.72 4.093-2.72 2.452 0 4.44 1.988 4.44 4.44 0 0.005 0 0.009-0 0.014v-0.001 1.333h-13.133c-0.549 0.007-0.993 0.451-1 0.999v14.667c0 0.552 0.448 1 1 1v0h17.333c0.552 0 1-0.448 1-1v0-14.667c0-0.004 0-0.009 0-0.013 0-0.555-0.446-1.006-0.999-1.013h-0.001zM23.667 25.56h-15.333v-12.667h15.333zM18.333 19.547c0 1.289-1.045 2.333-2.333 2.333s-2.333-1.045-2.333-2.333c0-1.289 1.045-2.333 2.333-2.333s2.333 1.045 2.333 2.333z"></path>
</svg>
