<!-- Generated by IcoMoon.io -->
<svg version="1.1" xmlns="http://www.w3.org/2000/svg" width="32" height="32" viewBox="0 0 32 32">
<title>updates</title>
<path d="M26.573 14.187c-0.154-0.356-0.503-0.6-0.908-0.6-0.004 0-0.009 0-0.013 0h-6.306v-9.587c0-0 0-0.001 0-0.001 0-0.552-0.448-1-1-1-0.296 0-0.563 0.129-0.746 0.334l-0.001 0.001-12 13.413c-0.158 0.176-0.255 0.41-0.255 0.667 0 0.552 0.448 1 1 1 0 0 0.001 0 0.001 0h6.307v9.587c0 0.001 0 0.003 0 0.005 0 0.425 0.269 0.788 0.646 0.926l0.007 0.002c0.105 0.042 0.227 0.066 0.355 0.066 0.294 0 0.557-0.128 0.738-0.332l0.001-0.001 12-13.413c0.16-0.175 0.258-0.409 0.258-0.666 0-0.145-0.031-0.283-0.088-0.407l0.003 0.006z"></path>
</svg>
