<!-- Generated by IcoMoon.io -->
<svg version="1.1" xmlns="http://www.w3.org/2000/svg" width="32" height="32" viewBox="0 0 32 32">
<title>whatsapp</title>
<path d="M20.747 18.213l-0.587-0.267s-0.84-0.36-1.333-0.627c0 0-0.107 0-0.147 0-0.138 0.003-0.266 0.043-0.377 0.109l0.004-0.002-0.787 0.893c-0.050 0.096-0.148 0.16-0.261 0.16-0.002 0-0.004-0-0.006-0h0c-0.084-0.014-0.157-0.052-0.213-0.107l0 0-0.267-0.107c-0.586-0.259-1.089-0.595-1.523-1.003l0.003 0.003c-0.107-0.107-0.267-0.213-0.373-0.32-0.386-0.365-0.718-0.782-0.986-1.24l-0.014-0.026v-0.107s0-0.093-0.107-0.2c-0.014-0.040-0.023-0.086-0.023-0.133s0.008-0.094 0.024-0.136l-0.001 0.003s0.213-0.267 0.373-0.427 0.16-0.253 0.267-0.36c0.069-0.107 0.11-0.238 0.11-0.379 0-0.055-0.006-0.108-0.018-0.159l0.001 0.005c-0.28-0.802-0.564-1.462-0.886-2.1l0.046 0.1c-0.083-0.128-0.208-0.223-0.356-0.266l-0.004-0.001h-0.68c-0.107 0-0.213 0-0.32 0v0c-0.107 0-0.213 0.16-0.32 0.213s-0.16 0.213-0.267 0.32c-0.352 0.443-0.567 1.009-0.573 1.625v0.001c0.009 0.44 0.101 0.855 0.262 1.235l-0.008-0.022v0.16c0.499 1.038 1.153 1.922 1.942 2.662l0.005 0.004 0.213 0.213c0.157 0.13 0.296 0.27 0.422 0.421l0.004 0.005c1.052 0.913 2.322 1.604 3.72 1.985l0.067 0.015c0.16 0 0.373 0 0.533 0.107h0.52c0.294-0.015 0.567-0.092 0.811-0.218l-0.011 0.005c0.147-0.107 0.253-0.107 0.36-0.213l0.107-0.107c0.107-0.107 0.213-0.16 0.32-0.267 0.106-0.085 0.195-0.187 0.264-0.302l0.003-0.005c0.084-0.213 0.154-0.465 0.197-0.725l0.003-0.022v-0.36c-0.038-0.016-0.082-0.030-0.128-0.039l-0.005-0.001zM16 28.973c-0.035 0-0.076 0.001-0.117 0.001-2.417 0-4.678-0.669-6.607-1.833l0.058 0.032-0.413-0.2-3.373 0.88c-0.041 0.006-0.088 0.009-0.137 0.009-0.56 0-1.013-0.454-1.013-1.013 0-0.065 0.006-0.128 0.018-0.189l-0.001 0.006 0.92-3.36-0.307-0.427c-1.264-1.961-2.016-4.355-2.016-6.926 0-1.058 0.127-2.085 0.367-3.069l-0.018 0.088c0.813-3.408 2.906-6.224 5.732-7.968l0.055-0.032c1.961-1.231 4.345-1.96 6.899-1.96 1.043 0 2.057 0.122 3.030 0.352l-0.089-0.018c3.411 0.821 6.227 2.924 7.968 5.758l0.032 0.056c1.257 1.95 2.004 4.332 2.004 6.888 0 4.639-2.46 8.704-6.148 10.96l-0.056 0.032c-1.885 1.213-4.187 1.934-6.658 1.934-0.045 0-0.091-0-0.136-0.001l0.007 0zM8.973 24.973c0.001 0 0.002 0 0.003 0 0.31 0 0.602 0.074 0.861 0.205l-0.011-0.005 0.507 0.253c1.636 1.024 3.624 1.632 5.754 1.632 6.053 0 10.96-4.907 10.96-10.96 0-2.184-0.639-4.22-1.74-5.929l0.026 0.043c-1.513-2.436-3.907-4.203-6.727-4.866l-0.073-0.014c-0.763-0.187-1.64-0.294-2.541-0.294-2.142 0-4.143 0.606-5.84 1.655l0.048-0.027c-2.43 1.505-4.193 3.89-4.852 6.701l-0.014 0.073c-0.199 0.779-0.313 1.674-0.313 2.595 0 2.136 0.613 4.128 1.673 5.811l-0.027-0.045 0.293 0.453c0.205 0.303 0.327 0.677 0.327 1.080 0 0.171-0.022 0.336-0.063 0.494l0.003-0.014-0.44 1.667 1.76-0.453c0.134-0.034 0.289-0.054 0.447-0.054 0.011 0 0.023 0 0.034 0l-0.002-0z"></path>
</svg>
