<!-- Generated by IcoMoon.io -->
<svg version="1.1" xmlns="http://www.w3.org/2000/svg" width="32" height="32" viewBox="0 0 32 32">
<title>work</title>
<path d="M28 9h-5.667v-3c-0.007-0.549-0.451-0.993-0.999-1h-10.667c-0.549 0.007-0.993 0.451-1 0.999v3.001h-5.667c-0.549 0.007-0.993 0.451-1 0.999v16.001c0.007 0.549 0.451 0.993 0.999 1h24.001c0.549-0.007 0.993-0.451 1-0.999v-16.001c-0.007-0.549-0.451-0.993-0.999-1h-0.001zM11.667 7h8.667v2h-8.667zM27 25h-22v-6h7.493c0.441 1.549 1.844 2.664 3.507 2.664s3.065-1.115 3.5-2.638l0.006-0.026h7.493zM14.333 18c0.005-0.514 0.248-0.97 0.623-1.264l0.004-0.003c0.092-0.088 0.197-0.164 0.313-0.223l0.007-0.003 0.173-0.067c0.162-0.067 0.35-0.107 0.547-0.107s0.385 0.039 0.556 0.11l-0.010-0.004 0.173 0.067c0.123 0.063 0.228 0.138 0.32 0.227l-0-0c0.38 0.295 0.622 0.753 0.622 1.267s-0.242 0.971-0.619 1.264l-0.004 0.003c-0.092 0.088-0.197 0.164-0.313 0.223l-0.007 0.003-0.173 0.067c-0.162 0.067-0.35 0.107-0.547 0.107s-0.385-0.039-0.556-0.11l0.010 0.004-0.173-0.067c-0.123-0.063-0.228-0.138-0.32-0.227l0 0c-0.098-0.076-0.182-0.164-0.251-0.263l-0.003-0.004c-0.228-0.268-0.369-0.617-0.373-0.999v-0.001zM27 17h-7.493c-0.441-1.549-1.844-2.664-3.507-2.664s-3.065 1.115-3.5 2.638l-0.006 0.026h-7.493v-6h22z"></path>
</svg>
